<?xml version="1.0" encoding="utf-8" standalone="no"?>
<!DOCTYPE svg PUBLIC "-//W3C//DTD SVG 1.1//EN"
  "http://www.w3.org/Graphics/SVG/1.1/DTD/svg11.dtd">
<!-- Created with matplotlib (http://matplotlib.org/) -->
<svg height="343pt" version="1.1" viewBox="0 0 460 343" width="460pt" xmlns="http://www.w3.org/2000/svg" xmlns:xlink="http://www.w3.org/1999/xlink">
 <defs>
  <style type="text/css">
*{stroke-linecap:butt;stroke-linejoin:round;}
  </style>
 </defs>
 <g id="figure_1">
  <g id="patch_1">
   <path d="M 0 343.44 
L 460.8 343.44 
L 460.8 0 
L 0 0 
z
" style="fill:#ffffff;"/>
  </g>
  <g id="axes_1">
   <g id="patch_2">
    <path d="M 57.44 301.48 
L 447.48 301.48 
L 447.48 26.88 
L 57.44 26.88 
z
" style="fill:#ffffff;"/>
   </g>
   <g id="matplotlib.axis_1">
    <g id="xtick_1">
     <g id="line2d_1">
      <path clip-path="url(#p2a61507521)" d="M 75.169091 301.48 
L 75.169091 26.88 
" style="fill:none;stroke:#b0b0b0;stroke-linecap:square;stroke-width:0.8;"/>
     </g>
     <g id="line2d_2">
      <defs>
       <path d="M 0 0 
L 0 3.5 
" id="m8efb97cb2c" style="stroke:#000000;stroke-width:0.8;"/>
      </defs>
      <g>
       <use style="stroke:#000000;stroke-width:0.8;" x="75.169091" xlink:href="#m8efb97cb2c" y="301.48"/>
      </g>
     </g>
     <g id="text_1">
      <!-- 0 -->
      <defs>
       <path d="M 31.78125 66.40625 
Q 24.171875 66.40625 20.328125 58.90625 
Q 16.5 51.421875 16.5 36.375 
Q 16.5 21.390625 20.328125 13.890625 
Q 24.171875 6.390625 31.78125 6.390625 
Q 39.453125 6.390625 43.28125 13.890625 
Q 47.125 21.390625 47.125 36.375 
Q 47.125 51.421875 43.28125 58.90625 
Q 39.453125 66.40625 31.78125 66.40625 
z
M 31.78125 74.21875 
Q 44.046875 74.21875 50.515625 64.515625 
Q 56.984375 54.828125 56.984375 36.375 
Q 56.984375 17.96875 50.515625 8.265625 
Q 44.046875 -1.421875 31.78125 -1.421875 
Q 19.53125 -1.421875 13.0625 8.265625 
Q 6.59375 17.96875 6.59375 36.375 
Q 6.59375 54.828125 13.0625 64.515625 
Q 19.53125 74.21875 31.78125 74.21875 
z
" id="DejaVuSans-30"/>
      </defs>
      <g transform="translate(71.987841 316.078437)scale(0.1 -0.1)">
       <use xlink:href="#DejaVuSans-30"/>
      </g>
     </g>
    </g>
    <g id="xtick_2">
     <g id="line2d_3">
      <path clip-path="url(#p2a61507521)" d="M 146.092146 301.48 
L 146.092146 26.88 
" style="fill:none;stroke:#b0b0b0;stroke-linecap:square;stroke-width:0.8;"/>
     </g>
     <g id="line2d_4">
      <g>
       <use style="stroke:#000000;stroke-width:0.8;" x="146.092146" xlink:href="#m8efb97cb2c" y="301.48"/>
      </g>
     </g>
     <g id="text_2">
      <!-- 100 -->
      <defs>
       <path d="M 12.40625 8.296875 
L 28.515625 8.296875 
L 28.515625 63.921875 
L 10.984375 60.40625 
L 10.984375 69.390625 
L 28.421875 72.90625 
L 38.28125 72.90625 
L 38.28125 8.296875 
L 54.390625 8.296875 
L 54.390625 0 
L 12.40625 0 
z
" id="DejaVuSans-31"/>
      </defs>
      <g transform="translate(136.548396 316.078437)scale(0.1 -0.1)">
       <use xlink:href="#DejaVuSans-31"/>
       <use x="63.623047" xlink:href="#DejaVuSans-30"/>
       <use x="127.246094" xlink:href="#DejaVuSans-30"/>
      </g>
     </g>
    </g>
    <g id="xtick_3">
     <g id="line2d_5">
      <path clip-path="url(#p2a61507521)" d="M 217.015201 301.48 
L 217.015201 26.88 
" style="fill:none;stroke:#b0b0b0;stroke-linecap:square;stroke-width:0.8;"/>
     </g>
     <g id="line2d_6">
      <g>
       <use style="stroke:#000000;stroke-width:0.8;" x="217.015201" xlink:href="#m8efb97cb2c" y="301.48"/>
      </g>
     </g>
     <g id="text_3">
      <!-- 200 -->
      <defs>
       <path d="M 19.1875 8.296875 
L 53.609375 8.296875 
L 53.609375 0 
L 7.328125 0 
L 7.328125 8.296875 
Q 12.9375 14.109375 22.625 23.890625 
Q 32.328125 33.6875 34.8125 36.53125 
Q 39.546875 41.84375 41.421875 45.53125 
Q 43.3125 49.21875 43.3125 52.78125 
Q 43.3125 58.59375 39.234375 62.25 
Q 35.15625 65.921875 28.609375 65.921875 
Q 23.96875 65.921875 18.8125 64.3125 
Q 13.671875 62.703125 7.8125 59.421875 
L 7.8125 69.390625 
Q 13.765625 71.78125 18.9375 73 
Q 24.125 74.21875 28.421875 74.21875 
Q 39.75 74.21875 46.484375 68.546875 
Q 53.21875 62.890625 53.21875 53.421875 
Q 53.21875 48.921875 51.53125 44.890625 
Q 49.859375 40.875 45.40625 35.40625 
Q 44.1875 33.984375 37.640625 27.21875 
Q 31.109375 20.453125 19.1875 8.296875 
z
" id="DejaVuSans-32"/>
      </defs>
      <g transform="translate(207.471451 316.078437)scale(0.1 -0.1)">
       <use xlink:href="#DejaVuSans-32"/>
       <use x="63.623047" xlink:href="#DejaVuSans-30"/>
       <use x="127.246094" xlink:href="#DejaVuSans-30"/>
      </g>
     </g>
    </g>
    <g id="xtick_4">
     <g id="line2d_7">
      <path clip-path="url(#p2a61507521)" d="M 287.938256 301.48 
L 287.938256 26.88 
" style="fill:none;stroke:#b0b0b0;stroke-linecap:square;stroke-width:0.8;"/>
     </g>
     <g id="line2d_8">
      <g>
       <use style="stroke:#000000;stroke-width:0.8;" x="287.938256" xlink:href="#m8efb97cb2c" y="301.48"/>
      </g>
     </g>
     <g id="text_4">
      <!-- 300 -->
      <defs>
       <path d="M 40.578125 39.3125 
Q 47.65625 37.796875 51.625 33 
Q 55.609375 28.21875 55.609375 21.1875 
Q 55.609375 10.40625 48.1875 4.484375 
Q 40.765625 -1.421875 27.09375 -1.421875 
Q 22.515625 -1.421875 17.65625 -0.515625 
Q 12.796875 0.390625 7.625 2.203125 
L 7.625 11.71875 
Q 11.71875 9.328125 16.59375 8.109375 
Q 21.484375 6.890625 26.8125 6.890625 
Q 36.078125 6.890625 40.9375 10.546875 
Q 45.796875 14.203125 45.796875 21.1875 
Q 45.796875 27.640625 41.28125 31.265625 
Q 36.765625 34.90625 28.71875 34.90625 
L 20.21875 34.90625 
L 20.21875 43.015625 
L 29.109375 43.015625 
Q 36.375 43.015625 40.234375 45.921875 
Q 44.09375 48.828125 44.09375 54.296875 
Q 44.09375 59.90625 40.109375 62.90625 
Q 36.140625 65.921875 28.71875 65.921875 
Q 24.65625 65.921875 20.015625 65.03125 
Q 15.375 64.15625 9.8125 62.3125 
L 9.8125 71.09375 
Q 15.4375 72.65625 20.34375 73.4375 
Q 25.25 74.21875 29.59375 74.21875 
Q 40.828125 74.21875 47.359375 69.109375 
Q 53.90625 64.015625 53.90625 55.328125 
Q 53.90625 49.265625 50.4375 45.09375 
Q 46.96875 40.921875 40.578125 39.3125 
z
" id="DejaVuSans-33"/>
      </defs>
      <g transform="translate(278.394506 316.078437)scale(0.1 -0.1)">
       <use xlink:href="#DejaVuSans-33"/>
       <use x="63.623047" xlink:href="#DejaVuSans-30"/>
       <use x="127.246094" xlink:href="#DejaVuSans-30"/>
      </g>
     </g>
    </g>
    <g id="xtick_5">
     <g id="line2d_9">
      <path clip-path="url(#p2a61507521)" d="M 358.861311 301.48 
L 358.861311 26.88 
" style="fill:none;stroke:#b0b0b0;stroke-linecap:square;stroke-width:0.8;"/>
     </g>
     <g id="line2d_10">
      <g>
       <use style="stroke:#000000;stroke-width:0.8;" x="358.861311" xlink:href="#m8efb97cb2c" y="301.48"/>
      </g>
     </g>
     <g id="text_5">
      <!-- 400 -->
      <defs>
       <path d="M 37.796875 64.3125 
L 12.890625 25.390625 
L 37.796875 25.390625 
z
M 35.203125 72.90625 
L 47.609375 72.90625 
L 47.609375 25.390625 
L 58.015625 25.390625 
L 58.015625 17.1875 
L 47.609375 17.1875 
L 47.609375 0 
L 37.796875 0 
L 37.796875 17.1875 
L 4.890625 17.1875 
L 4.890625 26.703125 
z
" id="DejaVuSans-34"/>
      </defs>
      <g transform="translate(349.317561 316.078437)scale(0.1 -0.1)">
       <use xlink:href="#DejaVuSans-34"/>
       <use x="63.623047" xlink:href="#DejaVuSans-30"/>
       <use x="127.246094" xlink:href="#DejaVuSans-30"/>
      </g>
     </g>
    </g>
    <g id="xtick_6">
     <g id="line2d_11">
      <path clip-path="url(#p2a61507521)" d="M 429.784367 301.48 
L 429.784367 26.88 
" style="fill:none;stroke:#b0b0b0;stroke-linecap:square;stroke-width:0.8;"/>
     </g>
     <g id="line2d_12">
      <g>
       <use style="stroke:#000000;stroke-width:0.8;" x="429.784367" xlink:href="#m8efb97cb2c" y="301.48"/>
      </g>
     </g>
     <g id="text_6">
      <!-- 500 -->
      <defs>
       <path d="M 10.796875 72.90625 
L 49.515625 72.90625 
L 49.515625 64.59375 
L 19.828125 64.59375 
L 19.828125 46.734375 
Q 21.96875 47.46875 24.109375 47.828125 
Q 26.265625 48.1875 28.421875 48.1875 
Q 40.625 48.1875 47.75 41.5 
Q 54.890625 34.8125 54.890625 23.390625 
Q 54.890625 11.625 47.5625 5.09375 
Q 40.234375 -1.421875 26.90625 -1.421875 
Q 22.3125 -1.421875 17.546875 -0.640625 
Q 12.796875 0.140625 7.71875 1.703125 
L 7.71875 11.625 
Q 12.109375 9.234375 16.796875 8.0625 
Q 21.484375 6.890625 26.703125 6.890625 
Q 35.15625 6.890625 40.078125 11.328125 
Q 45.015625 15.765625 45.015625 23.390625 
Q 45.015625 31 40.078125 35.4375 
Q 35.15625 39.890625 26.703125 39.890625 
Q 22.75 39.890625 18.8125 39.015625 
Q 14.890625 38.140625 10.796875 36.28125 
z
" id="DejaVuSans-35"/>
      </defs>
      <g transform="translate(420.240617 316.078437)scale(0.1 -0.1)">
       <use xlink:href="#DejaVuSans-35"/>
       <use x="63.623047" xlink:href="#DejaVuSans-30"/>
       <use x="127.246094" xlink:href="#DejaVuSans-30"/>
      </g>
     </g>
    </g>
    <g id="text_7">
     <!-- frequency(Hz) -->
     <defs>
      <path d="M 37.109375 75.984375 
L 37.109375 68.5 
L 28.515625 68.5 
Q 23.6875 68.5 21.796875 66.546875 
Q 19.921875 64.59375 19.921875 59.515625 
L 19.921875 54.6875 
L 34.71875 54.6875 
L 34.71875 47.703125 
L 19.921875 47.703125 
L 19.921875 0 
L 10.890625 0 
L 10.890625 47.703125 
L 2.296875 47.703125 
L 2.296875 54.6875 
L 10.890625 54.6875 
L 10.890625 58.5 
Q 10.890625 67.625 15.140625 71.796875 
Q 19.390625 75.984375 28.609375 75.984375 
z
" id="DejaVuSans-66"/>
      <path d="M 41.109375 46.296875 
Q 39.59375 47.171875 37.8125 47.578125 
Q 36.03125 48 33.890625 48 
Q 26.265625 48 22.1875 43.046875 
Q 18.109375 38.09375 18.109375 28.8125 
L 18.109375 0 
L 9.078125 0 
L 9.078125 54.6875 
L 18.109375 54.6875 
L 18.109375 46.1875 
Q 20.953125 51.171875 25.484375 53.578125 
Q 30.03125 56 36.53125 56 
Q 37.453125 56 38.578125 55.875 
Q 39.703125 55.765625 41.0625 55.515625 
z
" id="DejaVuSans-72"/>
      <path d="M 56.203125 29.59375 
L 56.203125 25.203125 
L 14.890625 25.203125 
Q 15.484375 15.921875 20.484375 11.0625 
Q 25.484375 6.203125 34.421875 6.203125 
Q 39.59375 6.203125 44.453125 7.46875 
Q 49.3125 8.734375 54.109375 11.28125 
L 54.109375 2.78125 
Q 49.265625 0.734375 44.1875 -0.34375 
Q 39.109375 -1.421875 33.890625 -1.421875 
Q 20.796875 -1.421875 13.15625 6.1875 
Q 5.515625 13.8125 5.515625 26.8125 
Q 5.515625 40.234375 12.765625 48.109375 
Q 20.015625 56 32.328125 56 
Q 43.359375 56 49.78125 48.890625 
Q 56.203125 41.796875 56.203125 29.59375 
z
M 47.21875 32.234375 
Q 47.125 39.59375 43.09375 43.984375 
Q 39.0625 48.390625 32.421875 48.390625 
Q 24.90625 48.390625 20.390625 44.140625 
Q 15.875 39.890625 15.1875 32.171875 
z
" id="DejaVuSans-65"/>
      <path d="M 14.796875 27.296875 
Q 14.796875 17.390625 18.875 11.75 
Q 22.953125 6.109375 30.078125 6.109375 
Q 37.203125 6.109375 41.296875 11.75 
Q 45.40625 17.390625 45.40625 27.296875 
Q 45.40625 37.203125 41.296875 42.84375 
Q 37.203125 48.484375 30.078125 48.484375 
Q 22.953125 48.484375 18.875 42.84375 
Q 14.796875 37.203125 14.796875 27.296875 
z
M 45.40625 8.203125 
Q 42.578125 3.328125 38.25 0.953125 
Q 33.9375 -1.421875 27.875 -1.421875 
Q 17.96875 -1.421875 11.734375 6.484375 
Q 5.515625 14.40625 5.515625 27.296875 
Q 5.515625 40.1875 11.734375 48.09375 
Q 17.96875 56 27.875 56 
Q 33.9375 56 38.25 53.625 
Q 42.578125 51.265625 45.40625 46.390625 
L 45.40625 54.6875 
L 54.390625 54.6875 
L 54.390625 -20.796875 
L 45.40625 -20.796875 
z
" id="DejaVuSans-71"/>
      <path d="M 8.5 21.578125 
L 8.5 54.6875 
L 17.484375 54.6875 
L 17.484375 21.921875 
Q 17.484375 14.15625 20.5 10.265625 
Q 23.53125 6.390625 29.59375 6.390625 
Q 36.859375 6.390625 41.078125 11.03125 
Q 45.3125 15.671875 45.3125 23.6875 
L 45.3125 54.6875 
L 54.296875 54.6875 
L 54.296875 0 
L 45.3125 0 
L 45.3125 8.40625 
Q 42.046875 3.421875 37.71875 1 
Q 33.40625 -1.421875 27.6875 -1.421875 
Q 18.265625 -1.421875 13.375 4.4375 
Q 8.5 10.296875 8.5 21.578125 
z
M 31.109375 56 
z
" id="DejaVuSans-75"/>
      <path d="M 54.890625 33.015625 
L 54.890625 0 
L 45.90625 0 
L 45.90625 32.71875 
Q 45.90625 40.484375 42.875 44.328125 
Q 39.84375 48.1875 33.796875 48.1875 
Q 26.515625 48.1875 22.3125 43.546875 
Q 18.109375 38.921875 18.109375 30.90625 
L 18.109375 0 
L 9.078125 0 
L 9.078125 54.6875 
L 18.109375 54.6875 
L 18.109375 46.1875 
Q 21.34375 51.125 25.703125 53.5625 
Q 30.078125 56 35.796875 56 
Q 45.21875 56 50.046875 50.171875 
Q 54.890625 44.34375 54.890625 33.015625 
z
" id="DejaVuSans-6e"/>
      <path d="M 48.78125 52.59375 
L 48.78125 44.1875 
Q 44.96875 46.296875 41.140625 47.34375 
Q 37.3125 48.390625 33.40625 48.390625 
Q 24.65625 48.390625 19.8125 42.84375 
Q 14.984375 37.3125 14.984375 27.296875 
Q 14.984375 17.28125 19.8125 11.734375 
Q 24.65625 6.203125 33.40625 6.203125 
Q 37.3125 6.203125 41.140625 7.25 
Q 44.96875 8.296875 48.78125 10.40625 
L 48.78125 2.09375 
Q 45.015625 0.34375 40.984375 -0.53125 
Q 36.96875 -1.421875 32.421875 -1.421875 
Q 20.0625 -1.421875 12.78125 6.34375 
Q 5.515625 14.109375 5.515625 27.296875 
Q 5.515625 40.671875 12.859375 48.328125 
Q 20.21875 56 33.015625 56 
Q 37.15625 56 41.109375 55.140625 
Q 45.0625 54.296875 48.78125 52.59375 
z
" id="DejaVuSans-63"/>
      <path d="M 32.171875 -5.078125 
Q 28.375 -14.84375 24.75 -17.8125 
Q 21.140625 -20.796875 15.09375 -20.796875 
L 7.90625 -20.796875 
L 7.90625 -13.28125 
L 13.1875 -13.28125 
Q 16.890625 -13.28125 18.9375 -11.515625 
Q 21 -9.765625 23.484375 -3.21875 
L 25.09375 0.875 
L 2.984375 54.6875 
L 12.5 54.6875 
L 29.59375 11.921875 
L 46.6875 54.6875 
L 56.203125 54.6875 
z
" id="DejaVuSans-79"/>
      <path d="M 31 75.875 
Q 24.46875 64.65625 21.28125 53.65625 
Q 18.109375 42.671875 18.109375 31.390625 
Q 18.109375 20.125 21.3125 9.0625 
Q 24.515625 -2 31 -13.1875 
L 23.1875 -13.1875 
Q 15.875 -1.703125 12.234375 9.375 
Q 8.59375 20.453125 8.59375 31.390625 
Q 8.59375 42.28125 12.203125 53.3125 
Q 15.828125 64.359375 23.1875 75.875 
z
" id="DejaVuSans-28"/>
      <path d="M 9.8125 72.90625 
L 19.671875 72.90625 
L 19.671875 43.015625 
L 55.515625 43.015625 
L 55.515625 72.90625 
L 65.375 72.90625 
L 65.375 0 
L 55.515625 0 
L 55.515625 34.71875 
L 19.671875 34.71875 
L 19.671875 0 
L 9.8125 0 
z
" id="DejaVuSans-48"/>
      <path d="M 5.515625 54.6875 
L 48.1875 54.6875 
L 48.1875 46.484375 
L 14.40625 7.171875 
L 48.1875 7.171875 
L 48.1875 0 
L 4.296875 0 
L 4.296875 8.203125 
L 38.09375 47.515625 
L 5.515625 47.515625 
z
" id="DejaVuSans-7a"/>
      <path d="M 8.015625 75.875 
L 15.828125 75.875 
Q 23.140625 64.359375 26.78125 53.3125 
Q 30.421875 42.28125 30.421875 31.390625 
Q 30.421875 20.453125 26.78125 9.375 
Q 23.140625 -1.703125 15.828125 -13.1875 
L 8.015625 -13.1875 
Q 14.5 -2 17.703125 9.0625 
Q 20.90625 20.125 20.90625 31.390625 
Q 20.90625 42.671875 17.703125 53.65625 
Q 14.5 64.65625 8.015625 75.875 
z
" id="DejaVuSans-29"/>
     </defs>
     <g transform="translate(216.986562 329.756562)scale(0.1 -0.1)">
      <use xlink:href="#DejaVuSans-66"/>
      <use x="35.205078" xlink:href="#DejaVuSans-72"/>
      <use x="76.287109" xlink:href="#DejaVuSans-65"/>
      <use x="137.810547" xlink:href="#DejaVuSans-71"/>
      <use x="201.287109" xlink:href="#DejaVuSans-75"/>
      <use x="264.666016" xlink:href="#DejaVuSans-65"/>
      <use x="326.189453" xlink:href="#DejaVuSans-6e"/>
      <use x="389.568359" xlink:href="#DejaVuSans-63"/>
      <use x="444.548828" xlink:href="#DejaVuSans-79"/>
      <use x="503.728516" xlink:href="#DejaVuSans-28"/>
      <use x="542.742188" xlink:href="#DejaVuSans-48"/>
      <use x="617.9375" xlink:href="#DejaVuSans-7a"/>
      <use x="670.427734" xlink:href="#DejaVuSans-29"/>
     </g>
    </g>
   </g>
   <g id="matplotlib.axis_2">
    <g id="ytick_1">
     <g id="line2d_13">
      <path clip-path="url(#p2a61507521)" d="M 57.44 288.998814 
L 447.48 288.998814 
" style="fill:none;stroke:#b0b0b0;stroke-linecap:square;stroke-width:0.8;"/>
     </g>
     <g id="line2d_14">
      <defs>
       <path d="M 0 0 
L -3.5 0 
" id="m5b83646582" style="stroke:#000000;stroke-width:0.8;"/>
      </defs>
      <g>
       <use style="stroke:#000000;stroke-width:0.8;" x="57.44" xlink:href="#m5b83646582" y="288.998814"/>
      </g>
     </g>
     <g id="text_8">
      <!-- 0 -->
      <g transform="translate(44.0775 292.798033)scale(0.1 -0.1)">
       <use xlink:href="#DejaVuSans-30"/>
      </g>
     </g>
    </g>
    <g id="ytick_2">
     <g id="line2d_15">
      <path clip-path="url(#p2a61507521)" d="M 57.44 230.662682 
L 447.48 230.662682 
" style="fill:none;stroke:#b0b0b0;stroke-linecap:square;stroke-width:0.8;"/>
     </g>
     <g id="line2d_16">
      <g>
       <use style="stroke:#000000;stroke-width:0.8;" x="57.44" xlink:href="#m5b83646582" y="230.662682"/>
      </g>
     </g>
     <g id="text_9">
      <!-- 2000 -->
      <g transform="translate(24.99 234.4619)scale(0.1 -0.1)">
       <use xlink:href="#DejaVuSans-32"/>
       <use x="63.623047" xlink:href="#DejaVuSans-30"/>
       <use x="127.246094" xlink:href="#DejaVuSans-30"/>
       <use x="190.869141" xlink:href="#DejaVuSans-30"/>
      </g>
     </g>
    </g>
    <g id="ytick_3">
     <g id="line2d_17">
      <path clip-path="url(#p2a61507521)" d="M 57.44 172.326549 
L 447.48 172.326549 
" style="fill:none;stroke:#b0b0b0;stroke-linecap:square;stroke-width:0.8;"/>
     </g>
     <g id="line2d_18">
      <g>
       <use style="stroke:#000000;stroke-width:0.8;" x="57.44" xlink:href="#m5b83646582" y="172.326549"/>
      </g>
     </g>
     <g id="text_10">
      <!-- 4000 -->
      <g transform="translate(24.99 176.125768)scale(0.1 -0.1)">
       <use xlink:href="#DejaVuSans-34"/>
       <use x="63.623047" xlink:href="#DejaVuSans-30"/>
       <use x="127.246094" xlink:href="#DejaVuSans-30"/>
       <use x="190.869141" xlink:href="#DejaVuSans-30"/>
      </g>
     </g>
    </g>
    <g id="ytick_4">
     <g id="line2d_19">
      <path clip-path="url(#p2a61507521)" d="M 57.44 113.990416 
L 447.48 113.990416 
" style="fill:none;stroke:#b0b0b0;stroke-linecap:square;stroke-width:0.8;"/>
     </g>
     <g id="line2d_20">
      <g>
       <use style="stroke:#000000;stroke-width:0.8;" x="57.44" xlink:href="#m5b83646582" y="113.990416"/>
      </g>
     </g>
     <g id="text_11">
      <!-- 6000 -->
      <defs>
       <path d="M 33.015625 40.375 
Q 26.375 40.375 22.484375 35.828125 
Q 18.609375 31.296875 18.609375 23.390625 
Q 18.609375 15.53125 22.484375 10.953125 
Q 26.375 6.390625 33.015625 6.390625 
Q 39.65625 6.390625 43.53125 10.953125 
Q 47.40625 15.53125 47.40625 23.390625 
Q 47.40625 31.296875 43.53125 35.828125 
Q 39.65625 40.375 33.015625 40.375 
z
M 52.59375 71.296875 
L 52.59375 62.3125 
Q 48.875 64.0625 45.09375 64.984375 
Q 41.3125 65.921875 37.59375 65.921875 
Q 27.828125 65.921875 22.671875 59.328125 
Q 17.53125 52.734375 16.796875 39.40625 
Q 19.671875 43.65625 24.015625 45.921875 
Q 28.375 48.1875 33.59375 48.1875 
Q 44.578125 48.1875 50.953125 41.515625 
Q 57.328125 34.859375 57.328125 23.390625 
Q 57.328125 12.15625 50.6875 5.359375 
Q 44.046875 -1.421875 33.015625 -1.421875 
Q 20.359375 -1.421875 13.671875 8.265625 
Q 6.984375 17.96875 6.984375 36.375 
Q 6.984375 53.65625 15.1875 63.9375 
Q 23.390625 74.21875 37.203125 74.21875 
Q 40.921875 74.21875 44.703125 73.484375 
Q 48.484375 72.75 52.59375 71.296875 
z
" id="DejaVuSans-36"/>
      </defs>
      <g transform="translate(24.99 117.789635)scale(0.1 -0.1)">
       <use xlink:href="#DejaVuSans-36"/>
       <use x="63.623047" xlink:href="#DejaVuSans-30"/>
       <use x="127.246094" xlink:href="#DejaVuSans-30"/>
       <use x="190.869141" xlink:href="#DejaVuSans-30"/>
      </g>
     </g>
    </g>
    <g id="ytick_5">
     <g id="line2d_21">
      <path clip-path="url(#p2a61507521)" d="M 57.44 55.654283 
L 447.48 55.654283 
" style="fill:none;stroke:#b0b0b0;stroke-linecap:square;stroke-width:0.8;"/>
     </g>
     <g id="line2d_22">
      <g>
       <use style="stroke:#000000;stroke-width:0.8;" x="57.44" xlink:href="#m5b83646582" y="55.654283"/>
      </g>
     </g>
     <g id="text_12">
      <!-- 8000 -->
      <defs>
       <path d="M 31.78125 34.625 
Q 24.75 34.625 20.71875 30.859375 
Q 16.703125 27.09375 16.703125 20.515625 
Q 16.703125 13.921875 20.71875 10.15625 
Q 24.75 6.390625 31.78125 6.390625 
Q 38.8125 6.390625 42.859375 10.171875 
Q 46.921875 13.96875 46.921875 20.515625 
Q 46.921875 27.09375 42.890625 30.859375 
Q 38.875 34.625 31.78125 34.625 
z
M 21.921875 38.8125 
Q 15.578125 40.375 12.03125 44.71875 
Q 8.5 49.078125 8.5 55.328125 
Q 8.5 64.0625 14.71875 69.140625 
Q 20.953125 74.21875 31.78125 74.21875 
Q 42.671875 74.21875 48.875 69.140625 
Q 55.078125 64.0625 55.078125 55.328125 
Q 55.078125 49.078125 51.53125 44.71875 
Q 48 40.375 41.703125 38.8125 
Q 48.828125 37.15625 52.796875 32.3125 
Q 56.78125 27.484375 56.78125 20.515625 
Q 56.78125 9.90625 50.3125 4.234375 
Q 43.84375 -1.421875 31.78125 -1.421875 
Q 19.734375 -1.421875 13.25 4.234375 
Q 6.78125 9.90625 6.78125 20.515625 
Q 6.78125 27.484375 10.78125 32.3125 
Q 14.796875 37.15625 21.921875 38.8125 
z
M 18.3125 54.390625 
Q 18.3125 48.734375 21.84375 45.5625 
Q 25.390625 42.390625 31.78125 42.390625 
Q 38.140625 42.390625 41.71875 45.5625 
Q 45.3125 48.734375 45.3125 54.390625 
Q 45.3125 60.0625 41.71875 63.234375 
Q 38.140625 66.40625 31.78125 66.40625 
Q 25.390625 66.40625 21.84375 63.234375 
Q 18.3125 60.0625 18.3125 54.390625 
z
" id="DejaVuSans-38"/>
      </defs>
      <g transform="translate(24.99 59.453502)scale(0.1 -0.1)">
       <use xlink:href="#DejaVuSans-38"/>
       <use x="63.623047" xlink:href="#DejaVuSans-30"/>
       <use x="127.246094" xlink:href="#DejaVuSans-30"/>
       <use x="190.869141" xlink:href="#DejaVuSans-30"/>
      </g>
     </g>
    </g>
    <g id="text_13">
     <!-- Amplitude -->
     <defs>
      <path d="M 34.1875 63.1875 
L 20.796875 26.90625 
L 47.609375 26.90625 
z
M 28.609375 72.90625 
L 39.796875 72.90625 
L 67.578125 0 
L 57.328125 0 
L 50.6875 18.703125 
L 17.828125 18.703125 
L 11.1875 0 
L 0.78125 0 
z
" id="DejaVuSans-41"/>
      <path d="M 52 44.1875 
Q 55.375 50.25 60.0625 53.125 
Q 64.75 56 71.09375 56 
Q 79.640625 56 84.28125 50.015625 
Q 88.921875 44.046875 88.921875 33.015625 
L 88.921875 0 
L 79.890625 0 
L 79.890625 32.71875 
Q 79.890625 40.578125 77.09375 44.375 
Q 74.3125 48.1875 68.609375 48.1875 
Q 61.625 48.1875 57.5625 43.546875 
Q 53.515625 38.921875 53.515625 30.90625 
L 53.515625 0 
L 44.484375 0 
L 44.484375 32.71875 
Q 44.484375 40.625 41.703125 44.40625 
Q 38.921875 48.1875 33.109375 48.1875 
Q 26.21875 48.1875 22.15625 43.53125 
Q 18.109375 38.875 18.109375 30.90625 
L 18.109375 0 
L 9.078125 0 
L 9.078125 54.6875 
L 18.109375 54.6875 
L 18.109375 46.1875 
Q 21.1875 51.21875 25.484375 53.609375 
Q 29.78125 56 35.6875 56 
Q 41.65625 56 45.828125 52.96875 
Q 50 49.953125 52 44.1875 
z
" id="DejaVuSans-6d"/>
      <path d="M 18.109375 8.203125 
L 18.109375 -20.796875 
L 9.078125 -20.796875 
L 9.078125 54.6875 
L 18.109375 54.6875 
L 18.109375 46.390625 
Q 20.953125 51.265625 25.265625 53.625 
Q 29.59375 56 35.59375 56 
Q 45.5625 56 51.78125 48.09375 
Q 58.015625 40.1875 58.015625 27.296875 
Q 58.015625 14.40625 51.78125 6.484375 
Q 45.5625 -1.421875 35.59375 -1.421875 
Q 29.59375 -1.421875 25.265625 0.953125 
Q 20.953125 3.328125 18.109375 8.203125 
z
M 48.6875 27.296875 
Q 48.6875 37.203125 44.609375 42.84375 
Q 40.53125 48.484375 33.40625 48.484375 
Q 26.265625 48.484375 22.1875 42.84375 
Q 18.109375 37.203125 18.109375 27.296875 
Q 18.109375 17.390625 22.1875 11.75 
Q 26.265625 6.109375 33.40625 6.109375 
Q 40.53125 6.109375 44.609375 11.75 
Q 48.6875 17.390625 48.6875 27.296875 
z
" id="DejaVuSans-70"/>
      <path d="M 9.421875 75.984375 
L 18.40625 75.984375 
L 18.40625 0 
L 9.421875 0 
z
" id="DejaVuSans-6c"/>
      <path d="M 9.421875 54.6875 
L 18.40625 54.6875 
L 18.40625 0 
L 9.421875 0 
z
M 9.421875 75.984375 
L 18.40625 75.984375 
L 18.40625 64.59375 
L 9.421875 64.59375 
z
" id="DejaVuSans-69"/>
      <path d="M 18.3125 70.21875 
L 18.3125 54.6875 
L 36.8125 54.6875 
L 36.8125 47.703125 
L 18.3125 47.703125 
L 18.3125 18.015625 
Q 18.3125 11.328125 20.140625 9.421875 
Q 21.96875 7.515625 27.59375 7.515625 
L 36.8125 7.515625 
L 36.8125 0 
L 27.59375 0 
Q 17.1875 0 13.234375 3.875 
Q 9.28125 7.765625 9.28125 18.015625 
L 9.28125 47.703125 
L 2.6875 47.703125 
L 2.6875 54.6875 
L 9.28125 54.6875 
L 9.28125 70.21875 
z
" id="DejaVuSans-74"/>
      <path d="M 45.40625 46.390625 
L 45.40625 75.984375 
L 54.390625 75.984375 
L 54.390625 0 
L 45.40625 0 
L 45.40625 8.203125 
Q 42.578125 3.328125 38.25 0.953125 
Q 33.9375 -1.421875 27.875 -1.421875 
Q 17.96875 -1.421875 11.734375 6.484375 
Q 5.515625 14.40625 5.515625 27.296875 
Q 5.515625 40.1875 11.734375 48.09375 
Q 17.96875 56 27.875 56 
Q 33.9375 56 38.25 53.625 
Q 42.578125 51.265625 45.40625 46.390625 
z
M 14.796875 27.296875 
Q 14.796875 17.390625 18.875 11.75 
Q 22.953125 6.109375 30.078125 6.109375 
Q 37.203125 6.109375 41.296875 11.75 
Q 45.40625 17.390625 45.40625 27.296875 
Q 45.40625 37.203125 41.296875 42.84375 
Q 37.203125 48.484375 30.078125 48.484375 
Q 22.953125 48.484375 18.875 42.84375 
Q 14.796875 37.203125 14.796875 27.296875 
z
" id="DejaVuSans-64"/>
     </defs>
     <g transform="translate(18.910312 189.802656)rotate(-90)scale(0.1 -0.1)">
      <use xlink:href="#DejaVuSans-41"/>
      <use x="68.408203" xlink:href="#DejaVuSans-6d"/>
      <use x="165.820312" xlink:href="#DejaVuSans-70"/>
      <use x="229.296875" xlink:href="#DejaVuSans-6c"/>
      <use x="257.080078" xlink:href="#DejaVuSans-69"/>
      <use x="284.863281" xlink:href="#DejaVuSans-74"/>
      <use x="324.072266" xlink:href="#DejaVuSans-75"/>
      <use x="387.451172" xlink:href="#DejaVuSans-64"/>
      <use x="450.927734" xlink:href="#DejaVuSans-65"/>
     </g>
    </g>
   </g>
   <g id="line2d_23">
    <path clip-path="url(#p2a61507521)" d="M 75.169091 39.361818 
L 75.236006 227.876492 
L 75.302921 245.047245 
L 75.43675 282.369001 
L 75.503665 278.864949 
L 75.771325 288.027631 
L 75.905154 286.623553 
L 76.105899 287.761163 
L 76.172814 288.012132 
L 76.239729 287.234799 
L 76.306643 281.808629 
L 76.507388 287.681036 
L 76.708133 288.400978 
L 76.908877 288.097876 
L 77.109622 288.806883 
L 77.176537 288.780678 
L 77.243451 288.614569 
L 77.310366 287.657408 
L 77.444196 280.954464 
L 77.644941 287.30184 
L 77.711855 287.289378 
L 77.9126 288.943417 
L 77.979515 288.38588 
L 78.04643 288.735035 
L 78.113345 288.609838 
L 78.180259 288.854858 
L 78.381004 287.223068 
L 78.447919 287.477462 
L 78.514834 274.515136 
L 78.581749 277.815381 
L 78.648663 282.745273 
L 78.715578 280.334057 
L 78.916323 285.844918 
L 79.050153 288.218694 
L 79.117067 287.765567 
L 79.250897 288.850437 
L 79.384727 288.320897 
L 79.451642 288.482602 
L 79.518557 286.050622 
L 79.585471 287.016584 
L 79.652386 274.230409 
L 79.786216 285.724559 
L 79.853131 282.796006 
L 79.920046 284.199293 
L 79.98696 284.416857 
L 80.25462 287.813502 
L 80.455364 288.83104 
L 80.723024 284.549101 
L 80.789939 277.083462 
L 80.923768 288.481591 
L 80.990683 284.583097 
L 81.057598 285.374953 
L 81.124513 284.400028 
L 81.459087 287.817704 
L 81.526002 287.972073 
L 81.592917 288.835074 
L 81.793662 285.797761 
L 81.927491 278.495381 
L 81.994406 287.182347 
L 82.061321 285.878055 
L 82.128236 286.580136 
L 82.195151 286.133917 
L 82.32898 284.512957 
L 82.395895 285.027236 
L 82.529725 286.551001 
L 82.59664 286.747036 
L 82.797384 288.110879 
L 82.998129 278.53426 
L 83.065044 281.855149 
L 83.131959 286.716981 
L 83.198874 284.145062 
L 83.332703 288.099042 
L 83.533448 284.843816 
L 83.734192 286.399365 
L 83.801107 286.493274 
L 83.868022 287.396763 
L 84.001852 284.906117 
L 84.068767 287.342073 
L 84.135682 277.648692 
L 84.269511 288.330835 
L 84.336426 283.971993 
L 84.403341 286.432335 
L 84.537171 288.285798 
L 84.671 285.227285 
L 84.737915 286.625734 
L 84.80483 285.737344 
L 84.93866 286.689297 
L 85.206319 285.634319 
L 85.273234 279.513872 
L 85.340149 288.219977 
L 85.407064 287.892799 
L 85.473979 285.343907 
L 85.540893 286.26232 
L 85.741638 287.878685 
L 85.808553 286.661346 
L 85.875468 286.978613 
L 85.942383 286.328718 
L 86.009297 286.376159 
L 86.076212 286.464461 
L 86.143127 286.810991 
L 86.210042 284.16624 
L 86.276957 286.882253 
L 86.410787 281.466932 
L 86.477701 287.739159 
L 86.544616 286.208736 
L 86.611531 286.852674 
L 86.678446 286.796167 
L 86.745361 287.007255 
L 86.812276 286.419072 
L 86.879191 288.169837 
L 86.946105 287.780139 
L 87.01302 287.693118 
L 87.14685 286.542476 
L 87.213765 286.658881 
L 87.28068 287.475302 
L 87.347595 282.95401 
L 87.414509 287.584353 
L 87.481424 283.605774 
L 87.548339 283.674155 
L 87.615254 287.748564 
L 87.682169 285.127838 
L 87.815999 288.423604 
L 87.949828 286.73266 
L 88.083658 288.670638 
L 88.150573 288.470139 
L 88.351317 286.916083 
L 88.418232 288.330593 
L 88.485147 283.24227 
L 88.552062 286.765509 
L 88.618977 284.409814 
L 88.752807 288.157078 
L 88.819721 285.344469 
L 88.886636 286.768458 
L 89.020466 288.403323 
L 89.154296 286.997458 
L 89.288125 288.553177 
L 89.421955 287.981534 
L 89.48887 287.423186 
L 89.555785 288.406007 
L 89.6227 284.061811 
L 89.689615 285.276575 
L 89.756529 285.544932 
L 89.890359 288.667616 
L 89.957274 286.077832 
L 90.024189 287.173146 
L 90.091104 287.391622 
L 90.224933 288.208873 
L 90.291848 287.323919 
L 90.492593 288.658073 
L 90.693337 287.89806 
L 90.827167 285.54642 
L 91.027912 288.358798 
L 91.094826 286.729917 
L 91.161741 287.698022 
L 91.228656 287.630023 
L 91.295571 287.359342 
L 91.362486 288.543857 
L 91.429401 288.028599 
L 91.496316 288.434546 
L 91.56323 288.079142 
L 91.69706 288.752134 
L 91.763975 288.679086 
L 91.96472 285.901752 
L 92.031634 288.562988 
L 92.098549 287.959464 
L 92.165464 288.354748 
L 92.232379 287.73591 
L 92.299294 288.123007 
L 92.433124 287.74523 
L 92.566953 288.823922 
L 92.633868 288.701587 
L 92.700783 288.614837 
L 92.767698 288.310363 
L 92.834613 288.387706 
L 92.901528 288.582886 
L 92.968442 287.342393 
L 93.035357 288.714631 
L 93.102272 287.090582 
L 93.169187 288.862383 
L 93.236102 288.556216 
L 93.369932 287.71512 
L 93.436846 288.597 
L 93.503761 288.435895 
L 93.570676 287.958916 
L 93.637591 288.26803 
L 93.771421 288.770776 
L 93.838336 288.437025 
L 93.90525 288.588342 
L 93.972165 288.688417 
L 94.105995 287.431952 
L 94.17291 288.760287 
L 94.239825 287.781425 
L 94.30674 288.717112 
L 94.373654 288.14072 
L 94.440569 288.708403 
L 94.507484 288.473571 
L 94.574399 288.652067 
L 94.775144 288.114163 
L 94.908973 288.877332 
L 94.975888 288.81776 
L 95.042803 288.544883 
L 95.109718 288.810971 
L 95.243547 287.710378 
L 95.377377 288.91114 
L 95.578122 288.245412 
L 95.645037 288.199122 
L 95.711951 288.8278 
L 95.778866 288.350576 
L 95.845781 288.570085 
L 95.912696 288.40514 
L 95.979611 288.44321 
L 96.180355 288.890105 
L 96.24727 288.683663 
L 96.314185 287.983642 
L 96.3811 288.241852 
L 96.448015 287.935905 
L 96.581845 288.584706 
L 96.648759 288.093528 
L 96.715674 288.864744 
L 96.782589 288.760025 
L 96.916419 288.235664 
L 96.983334 288.440193 
L 97.050249 288.265866 
L 97.317908 288.6601 
L 97.384823 288.612253 
L 97.451738 287.681673 
L 97.518653 288.236771 
L 97.585567 287.591584 
L 97.652482 288.590508 
L 97.719397 288.278897 
L 97.786312 288.369378 
L 97.920142 288.902395 
L 98.053971 288.308701 
L 98.120886 288.725286 
L 98.187801 288.343105 
L 98.254716 288.843673 
L 98.321631 288.539096 
L 98.388546 288.222823 
L 98.455461 288.524023 
L 98.522375 288.48384 
L 98.58929 287.800435 
L 98.656205 288.632133 
L 98.72312 288.310128 
L 98.790035 288.462355 
L 98.85695 288.349277 
L 98.990779 288.037495 
L 99.258439 288.762221 
L 99.392269 288.516821 
L 99.459183 288.159757 
L 99.526098 288.27496 
L 99.593013 288.469406 
L 99.726843 287.796609 
L 99.860673 288.577636 
L 99.927587 288.447928 
L 99.994502 288.0576 
L 100.195247 288.738466 
L 100.262162 288.224307 
L 100.329076 288.410975 
L 100.395991 288.669261 
L 100.462906 288.616193 
L 100.596736 288.492214 
L 100.730566 288.309933 
L 100.79748 288.627868 
L 100.864395 288.337647 
L 100.93131 287.507322 
L 101.06514 288.913845 
L 101.19897 288.215797 
L 101.466629 288.754319 
L 101.533544 288.357059 
L 101.667374 288.826717 
L 101.801203 288.392259 
L 101.868118 287.792516 
L 101.935033 287.995299 
L 102.068863 287.734764 
L 102.135778 288.656457 
L 102.202692 288.612333 
L 102.336522 288.258074 
L 102.403437 288.742093 
L 102.470352 288.558677 
L 102.537267 288.257168 
L 102.604182 288.902168 
L 102.671096 288.689152 
L 102.804926 288.638621 
L 103.005671 288.10019 
L 103.072586 288.144447 
L 103.1395 288.383961 
L 103.206415 288.339398 
L 103.27333 288.275603 
L 103.340245 288.536108 
L 103.40716 288.405121 
L 103.54099 288.352359 
L 103.674819 288.70719 
L 103.741734 288.360004 
L 103.875564 288.913525 
L 103.942479 288.821691 
L 104.143223 288.091657 
L 104.277053 288.409415 
L 104.343968 288.085488 
L 104.410883 288.525398 
L 104.477798 288.357057 
L 104.611627 288.113517 
L 104.678542 288.634815 
L 104.745457 288.092847 
L 104.946202 288.618935 
L 105.013116 288.5801 
L 105.080031 288.820049 
L 105.146946 288.258298 
L 105.213861 288.936261 
L 105.280776 288.171229 
L 105.347691 288.537034 
L 105.414606 288.891876 
L 105.48152 288.822008 
L 105.682265 288.325011 
L 105.816095 288.858179 
L 105.883009 288.491627 
L 105.949924 288.907761 
L 106.016839 288.748162 
L 106.150669 288.580525 
L 106.217584 288.606288 
L 106.284499 288.817165 
L 106.418328 288.287658 
L 106.685988 288.885117 
L 106.752903 288.260108 
L 106.819817 288.555049 
L 106.886732 288.384406 
L 106.953647 288.840426 
L 107.020562 288.425758 
L 107.087477 288.45128 
L 107.221307 288.762049 
L 107.288221 288.728664 
L 107.555881 287.991892 
L 107.756625 288.697749 
L 107.82354 288.925812 
L 107.890455 288.412745 
L 107.95737 288.629394 
L 108.024285 288.823323 
L 108.0912 288.344367 
L 108.158115 288.430498 
L 108.291944 288.81658 
L 108.492689 288.231517 
L 108.559604 288.246127 
L 108.693433 288.923025 
L 108.760348 288.803979 
L 108.827263 288.84894 
L 108.961093 288.614906 
L 109.028008 288.011908 
L 109.094923 288.39026 
L 109.161837 288.270045 
L 109.228752 288.703314 
L 109.295667 288.6177 
L 109.362582 288.803876 
L 109.429497 288.297295 
L 109.496412 288.340641 
L 109.630241 288.386305 
L 109.764071 288.012681 
L 109.897901 288.34758 
L 109.964816 288.266979 
L 110.031731 288.787367 
L 110.098645 288.552158 
L 110.232475 287.816547 
L 110.500135 285.918102 
L 110.567049 284.170373 
L 110.633964 274.462515 
L 110.767794 286.441218 
L 111.169283 288.431304 
L 111.236198 288.283151 
L 111.303113 288.502319 
L 111.503857 288.256781 
L 111.704602 288.947971 
L 111.905346 288.256875 
L 111.972261 288.892664 
L 112.039176 288.838061 
L 112.106091 288.625733 
L 112.173006 288.751554 
L 112.239921 288.904716 
L 112.440665 288.516938 
L 112.50758 288.535345 
L 112.574495 288.897905 
L 112.64141 288.750444 
L 112.708325 288.755951 
L 112.909069 288.328133 
L 112.975984 288.562889 
L 113.042899 288.500105 
L 113.109814 288.213379 
L 113.176729 288.368931 
L 113.377473 288.775104 
L 113.444388 288.630118 
L 113.511303 288.73539 
L 113.578218 288.935923 
L 113.645133 288.896058 
L 113.845877 288.58163 
L 113.912792 288.855744 
L 113.979707 288.70483 
L 114.247366 288.569614 
L 114.314281 288.801533 
L 114.381196 288.616656 
L 114.448111 288.828378 
L 114.515026 288.454896 
L 114.581941 288.643727 
L 114.648856 288.391975 
L 114.71577 288.531104 
L 115.050345 288.771246 
L 115.11726 288.498104 
L 115.251089 288.883031 
L 115.318004 288.872809 
L 115.384919 288.583211 
L 115.451834 288.635006 
L 115.518749 288.778252 
L 115.585664 288.684686 
L 115.719493 288.884835 
L 115.786408 288.632879 
L 115.853323 288.679479 
L 115.920238 288.900818 
L 115.987153 288.720744 
L 116.054067 288.797256 
L 116.187897 288.894312 
L 116.321727 288.65963 
L 116.388642 288.3721 
L 116.455557 288.520598 
L 116.522471 288.788967 
L 116.589386 288.49571 
L 116.656301 288.809343 
L 116.723216 288.634221 
L 116.857046 288.542069 
L 116.923961 288.878227 
L 116.990875 288.710874 
L 117.05779 288.699823 
L 117.124705 288.81362 
L 117.19162 288.443714 
L 117.32545 288.962037 
L 117.392365 288.929128 
L 117.459279 288.779657 
L 117.526194 288.963077 
L 117.726939 288.692609 
L 117.860769 288.870802 
L 117.927683 288.756565 
L 117.994598 288.850465 
L 118.195343 288.559399 
L 118.262258 288.320539 
L 118.329173 288.837121 
L 118.396087 288.77211 
L 118.463002 288.590874 
L 118.529917 288.928198 
L 118.596832 288.621742 
L 118.663747 288.867905 
L 118.730662 288.839142 
L 118.797577 288.573396 
L 118.864491 288.667641 
L 119.065236 288.888404 
L 119.132151 288.793323 
L 119.199066 288.90245 
L 119.265981 288.850152 
L 119.332895 288.642367 
L 119.53364 288.976856 
L 119.801299 288.31295 
L 119.935129 288.427819 
L 120.135874 288.951054 
L 120.269703 288.685909 
L 120.336618 288.815957 
L 120.403533 288.691115 
L 120.604278 288.938141 
L 120.871937 288.651436 
L 121.005767 288.953577 
L 121.072682 288.764556 
L 121.139596 288.931976 
L 121.273426 288.785921 
L 121.340341 288.88456 
L 121.407256 288.811357 
L 121.474171 288.844012 
L 121.541086 288.633948 
L 121.674915 288.917419 
L 121.74183 288.817696 
L 121.87566 288.922131 
L 121.942575 288.591429 
L 122.00949 288.731367 
L 122.076404 288.619917 
L 122.143319 288.693713 
L 122.210234 288.880501 
L 122.277149 288.727941 
L 122.344064 288.837709 
L 122.410979 288.726433 
L 122.477894 288.840611 
L 122.611723 288.44933 
L 122.678638 288.934786 
L 122.745553 288.822865 
L 122.946298 288.568637 
L 123.213957 288.35376 
L 123.280872 288.673641 
L 123.347787 288.48491 
L 123.615446 288.757691 
L 123.682361 288.631825 
L 123.749276 288.926678 
L 123.816191 288.880352 
L 123.883106 288.576098 
L 123.95002 288.696891 
L 124.150765 288.741649 
L 124.21768 288.541888 
L 124.284595 288.691484 
L 124.619169 288.884611 
L 124.686084 288.793988 
L 124.819914 288.936649 
L 124.886828 288.631095 
L 124.953743 288.700929 
L 125.020658 288.889718 
L 125.087573 288.809781 
L 125.154488 288.693956 
L 125.221403 288.951245 
L 125.288318 288.804035 
L 125.489062 288.737731 
L 125.555977 288.978871 
L 125.622892 288.824686 
L 125.689807 288.693227 
L 125.756722 288.750145 
L 125.823636 288.739954 
L 125.890551 288.542467 
L 125.957466 288.867532 
L 126.024381 288.804154 
L 126.091296 288.962892 
L 126.158211 288.847858 
L 126.225125 288.766182 
L 126.29204 288.50709 
L 126.358955 288.66222 
L 126.42587 288.524464 
L 126.693529 288.930058 
L 126.760444 288.592355 
L 126.827359 288.639193 
L 127.028104 288.940137 
L 127.228848 288.602926 
L 127.295763 288.690904 
L 127.362678 288.927912 
L 127.429593 288.803877 
L 127.496508 288.645222 
L 127.563423 288.914852 
L 127.630337 288.832484 
L 127.764167 288.856894 
L 127.831082 288.723224 
L 127.897997 288.766689 
L 128.031827 288.906516 
L 128.232571 288.67327 
L 128.299486 288.537294 
L 128.567145 288.944406 
L 128.76789 288.88402 
L 128.90172 288.880379 
L 129.102464 288.743351 
L 129.303209 288.892752 
L 129.370124 288.692747 
L 129.437039 288.763243 
L 129.637783 288.940191 
L 129.905443 288.711928 
L 129.972357 288.903359 
L 130.039272 288.803838 
L 130.106187 288.83513 
L 130.173102 288.49351 
L 130.240017 288.645628 
L 130.306932 288.7309 
L 130.373847 288.516453 
L 130.440761 288.831254 
L 130.507676 288.665306 
L 130.574591 288.887914 
L 130.641506 288.842948 
L 130.775336 288.893065 
L 130.842251 288.75413 
L 130.909165 288.825115 
L 131.042995 288.905327 
L 131.10991 288.718575 
L 131.24374 288.849968 
L 131.511399 288.738962 
L 131.578314 288.764542 
L 131.645229 288.665545 
L 131.712144 288.833208 
L 131.779058 288.546781 
L 131.845973 288.758461 
L 131.912888 288.707273 
L 131.979803 288.67091 
L 132.247462 288.937943 
L 132.515122 288.719733 
L 132.582037 288.922456 
L 132.648952 288.805634 
L 132.782781 288.653314 
L 132.916611 288.882237 
L 132.983526 288.922974 
L 133.050441 288.733703 
L 133.117356 288.893304 
L 133.18427 288.831112 
L 133.45193 288.793825 
L 133.518845 288.69337 
L 133.652674 288.931305 
L 133.853419 288.766959 
L 134.054164 288.91661 
L 134.388738 288.718572 
L 134.455653 288.742188 
L 134.589482 288.950158 
L 134.723312 288.825196 
L 134.857142 288.957951 
L 134.924057 288.695676 
L 134.990972 288.746682 
L 135.057886 288.904683 
L 135.124801 288.661671 
L 135.191716 288.765862 
L 135.392461 288.90669 
L 135.52629 288.929906 
L 135.593205 288.956198 
L 135.79395 288.728378 
L 135.860865 288.817551 
L 135.92778 288.621714 
L 135.994694 288.950016 
L 136.061609 288.864852 
L 136.128524 288.908194 
L 136.262354 288.827649 
L 136.329269 288.826761 
L 136.396183 288.957354 
L 136.463098 288.770136 
L 136.530013 288.838437 
L 136.596928 288.802701 
L 136.663843 288.9068 
L 136.730758 288.823467 
L 136.797673 288.842785 
L 136.864587 288.717259 
L 136.931502 288.938362 
L 136.998417 288.802323 
L 137.266077 288.869629 
L 137.399906 288.814853 
L 137.466821 288.640268 
L 137.533736 288.69076 
L 137.667566 288.677227 
L 137.734481 288.867625 
L 137.801395 288.766827 
L 138.202885 288.83937 
L 138.269799 288.756111 
L 138.336714 288.82571 
L 138.470544 288.877859 
L 138.604374 288.8448 
L 138.671289 288.988496 
L 138.738203 288.896159 
L 138.805118 288.907546 
L 138.872033 288.707825 
L 138.938948 288.738872 
L 139.273522 288.983336 
L 139.340437 288.962896 
L 139.407352 288.738238 
L 139.474267 288.815686 
L 139.608097 288.728578 
L 139.942671 288.869887 
L 140.009586 288.940355 
L 140.076501 288.67758 
L 140.143415 288.903475 
L 140.21033 288.80348 
L 140.411075 288.897658 
L 140.544905 288.82041 
L 140.611819 288.918643 
L 140.678734 288.84501 
L 140.745649 288.76395 
L 140.812564 288.845466 
L 140.946394 288.894451 
L 141.013309 288.963221 
L 141.147138 288.791766 
L 141.214053 288.835139 
L 141.280968 288.892659 
L 141.347883 288.618569 
L 141.414798 288.735147 
L 141.548627 288.84061 
L 141.682457 288.660201 
L 141.749372 288.84281 
L 141.816287 288.549654 
L 141.950116 288.788878 
L 142.217776 288.932969 
L 142.284691 288.721492 
L 142.351606 288.877892 
L 142.41852 288.974553 
L 142.485435 288.881429 
L 142.953839 288.83752 
L 143.020754 288.954274 
L 143.087669 288.797636 
L 143.154584 288.852593 
L 143.288414 288.953329 
L 143.422243 288.761874 
L 143.489158 288.938493 
L 143.556073 288.81091 
L 143.957562 288.753603 
L 144.024477 288.980828 
L 144.091392 288.90711 
L 144.158307 288.945573 
L 144.225222 288.739875 
L 144.292136 288.932814 
L 144.359051 288.834835 
L 144.425966 288.760984 
L 144.559796 288.913164 
L 144.89437 288.822518 
L 145.095115 288.858095 
L 145.16203 288.82781 
L 145.228944 288.957608 
L 145.295859 288.719745 
L 145.362774 288.803313 
L 145.630434 288.807579 
L 145.697348 288.502061 
L 145.898093 288.988742 
L 146.165752 288.708087 
L 146.433412 288.918435 
L 146.500327 288.919818 
L 146.567242 288.781834 
L 146.634156 288.819691 
L 146.701071 288.888328 
L 146.767986 288.82011 
L 146.834901 288.697655 
L 146.901816 288.961889 
L 146.968731 288.720525 
L 147.035645 288.903753 
L 147.10256 288.835007 
L 147.23639 288.775601 
L 147.303305 288.632033 
L 147.437135 288.917039 
L 147.504049 288.799497 
L 147.570964 288.980076 
L 147.704794 288.685028 
L 147.905539 288.812201 
L 148.039368 288.848705 
L 148.173198 288.880819 
L 148.373943 288.825294 
L 148.440857 288.966003 
L 148.507772 288.913165 
L 148.708517 288.833247 
L 148.775432 288.901217 
L 148.842347 288.824474 
L 149.176921 288.816432 
L 149.377665 288.736799 
L 149.44458 288.906942 
L 149.511495 288.769441 
L 149.57841 288.860971 
L 149.71224 288.66622 
L 149.779155 288.722127 
L 149.979899 288.866131 
L 150.180644 288.903579 
L 150.314473 288.784781 
L 150.381388 288.74588 
L 150.448303 288.931354 
L 150.515218 288.744256 
L 150.582133 288.828622 
L 150.649048 288.794512 
L 150.782877 288.967615 
L 150.916707 288.830086 
L 150.983622 288.91243 
L 151.184367 288.747269 
L 151.719685 288.915465 
L 151.853515 288.707006 
L 151.92043 288.936105 
L 151.987345 288.913361 
L 152.188089 288.815631 
L 152.255004 288.87704 
L 152.321919 288.726193 
L 152.455749 288.925671 
L 152.522664 288.74878 
L 152.589578 288.944329 
L 152.656493 288.803375 
L 152.723408 288.741329 
L 152.790323 288.878968 
L 152.857238 288.824769 
L 153.057982 288.824777 
L 153.124897 288.930065 
L 153.325642 288.760361 
L 153.526386 288.896966 
L 153.727131 288.693101 
L 153.794046 288.834972 
L 153.860961 288.779441 
L 153.99479 288.624041 
L 154.12862 288.872486 
L 154.26245 288.846723 
L 154.39628 288.932063 
L 154.530109 288.818188 
L 154.597024 288.959409 
L 154.663939 288.91543 
L 154.730854 288.92776 
L 154.797769 288.793759 
L 154.864684 288.836778 
L 154.931598 288.977968 
L 155.065428 288.673493 
L 155.199258 288.968964 
L 155.266173 288.938296 
L 155.400002 288.674009 
L 155.466917 288.938474 
L 155.533832 288.772924 
L 155.667662 288.858072 
L 155.935321 288.767261 
L 156.002236 288.938983 
L 156.069151 288.894673 
L 156.136066 288.92738 
L 156.202981 288.784786 
L 156.269896 288.889841 
L 156.403725 288.837811 
L 156.60447 288.677008 
L 156.805214 288.871759 
L 157.474363 288.70217 
L 157.541278 288.907652 
L 157.675107 288.724631 
L 157.808937 288.844806 
L 157.875852 288.733176 
L 157.942767 288.660296 
L 158.009682 288.969413 
L 158.076597 288.689047 
L 158.143511 288.870039 
L 158.210426 288.949218 
L 158.277341 288.748955 
L 158.344256 288.87522 
L 158.745745 288.881491 
L 159.080319 288.954061 
L 159.481809 288.685131 
L 159.950213 288.88078 
L 160.017127 288.682101 
L 160.084042 288.767257 
L 160.351702 288.652481 
L 160.418617 288.864119 
L 160.485531 288.767536 
L 160.820106 288.9075 
L 160.953935 288.843259 
L 161.087765 288.934203 
L 161.15468 288.812866 
L 161.221595 288.879719 
L 161.689999 288.907683 
L 161.756914 288.679634 
L 161.823829 288.943198 
L 161.890743 288.812275 
L 161.957658 288.932821 
L 162.091488 288.788325 
L 163.563615 288.963298 
L 163.63053 288.787684 
L 163.697444 288.822073 
L 163.764359 288.91243 
L 163.831274 288.735595 
L 163.965104 288.879244 
L 164.768082 288.869124 
L 164.834997 288.812852 
L 164.901912 288.974727 
L 164.968827 288.898829 
L 165.169571 288.809493 
L 165.370316 288.907088 
L 165.57106 288.75418 
L 165.70489 288.871038 
L 165.771805 288.852638 
L 165.83872 288.99241 
L 165.97255 288.759076 
L 166.039464 288.881462 
L 166.106379 288.718391 
L 166.173294 288.966456 
L 166.240209 288.766158 
L 166.307124 288.912532 
L 166.374039 288.814223 
L 166.440954 288.871092 
L 167.110102 288.811035 
L 167.243932 288.902126 
L 167.310847 288.787939 
L 167.444676 288.896726 
L 167.511591 288.720062 
L 167.578506 288.857371 
L 167.645421 288.815208 
L 167.712336 288.644771 
L 167.779251 288.84683 
L 167.846165 288.70209 
L 167.91308 288.629661 
L 168.113825 288.968487 
L 168.247655 288.868513 
L 168.448399 288.941476 
L 168.582229 288.839869 
L 168.716059 288.912478 
L 168.782973 288.685052 
L 168.849888 288.947069 
L 168.916803 288.813777 
L 169.050633 288.82289 
L 169.117548 288.934632 
L 169.184463 288.787283 
L 169.251377 288.85418 
L 169.318292 288.763447 
L 169.385207 288.847341 
L 169.452122 288.798723 
L 169.519037 288.973071 
L 169.585952 288.937404 
L 169.652867 288.742698 
L 169.719781 288.819412 
L 169.853611 288.860072 
L 169.987441 288.986593 
L 170.054356 288.894991 
L 170.121271 288.831325 
L 170.188185 288.904082 
L 170.455845 288.869762 
L 170.52276 288.784157 
L 170.656589 288.945029 
L 170.723504 288.775469 
L 170.924249 288.974517 
L 170.991164 288.977436 
L 171.058079 288.77915 
L 171.124993 288.925526 
L 171.392653 288.982093 
L 171.526483 288.74465 
L 171.660312 288.869235 
L 171.727227 288.658736 
L 171.927972 288.853778 
L 172.061801 288.916686 
L 172.329461 288.832348 
L 172.59712 288.896923 
L 172.73095 288.622235 
L 172.931694 288.820289 
L 172.998609 288.781102 
L 173.065524 288.938971 
L 173.132439 288.81275 
L 173.333184 288.932906 
L 173.400098 288.750777 
L 173.467013 288.807322 
L 173.935417 288.774858 
L 174.002332 288.729839 
L 174.136162 288.91602 
L 174.203077 288.800741 
L 174.269992 288.936756 
L 174.336906 288.816629 
L 174.403821 288.903364 
L 174.470736 288.806055 
L 174.537651 288.962327 
L 174.604566 288.726161 
L 174.671481 288.837932 
L 174.80531 288.945327 
L 174.872225 288.780204 
L 174.93914 288.933452 
L 175.006055 288.903454 
L 175.407544 288.77862 
L 175.474459 288.722545 
L 175.541374 288.942611 
L 175.675204 288.78049 
L 175.809033 288.939916 
L 176.812756 288.874562 
L 176.946586 288.894951 
L 177.080416 288.860696 
L 177.28116 288.951958 
L 177.54882 288.926928 
L 177.615734 288.985076 
L 177.682649 288.838404 
L 177.749564 288.95805 
L 177.883394 288.79019 
L 177.950309 288.584989 
L 178.017223 288.897555 
L 178.084138 288.872858 
L 178.351798 288.867977 
L 178.485627 288.765837 
L 178.552542 288.908473 
L 178.619457 288.844563 
L 178.686372 288.799849 
L 178.753287 288.91826 
L 178.820202 288.678308 
L 178.887117 288.854513 
L 178.954031 288.827214 
L 179.087861 288.852947 
L 179.422435 288.937366 
L 179.890839 288.776884 
L 180.158499 288.928926 
L 180.693818 288.844308 
L 180.827647 288.90764 
L 181.229137 288.77958 
L 181.296051 288.882871 
L 181.429881 288.746225 
L 181.563711 288.826467 
L 181.630626 287.721516 
L 181.764455 288.866364 
L 181.83137 288.838136 
L 181.9652 288.929257 
L 182.09903 288.870422 
L 182.299774 288.963015 
L 182.366689 288.760196 
L 182.500519 288.924473 
L 182.634349 288.88916 
L 182.701263 288.717462 
L 182.768178 288.821337 
L 182.835093 288.791351 
L 182.902008 288.938025 
L 182.968923 288.88085 
L 183.035838 288.715287 
L 183.169667 288.989638 
L 183.303497 288.702618 
L 183.370412 288.976401 
L 183.437327 288.930193 
L 183.504242 288.795523 
L 183.571156 288.861006 
L 183.638071 288.965258 
L 183.704986 288.769832 
L 183.838816 288.935394 
L 183.972646 288.869532 
L 184.106475 288.937315 
L 184.17339 288.977572 
L 184.44105 288.744397 
L 184.574879 288.785454 
L 184.641794 288.702166 
L 184.708709 288.846024 
L 184.775624 288.778871 
L 185.244028 288.936952 
L 185.310943 288.824472 
L 185.377858 288.911341 
L 185.779347 288.805421 
L 185.846262 288.979118 
L 185.913176 288.899579 
L 186.180836 288.899344 
L 186.314666 288.852841 
L 186.38158 288.951057 
L 186.51541 288.852161 
L 186.64924 288.97446 
L 186.849984 288.76908 
L 186.916899 288.8402 
L 187.184559 288.817588 
L 187.251474 288.976312 
L 187.318388 288.919416 
L 187.385303 288.935 
L 187.519133 288.825739 
L 187.786792 288.941437 
L 187.853707 288.789246 
L 187.987537 288.948912 
L 188.121367 288.772479 
L 188.322111 288.97115 
L 188.389026 288.780504 
L 188.455941 288.818061 
L 188.589771 288.842604 
L 188.7236 288.875954 
L 188.790515 288.979617 
L 188.924345 288.863064 
L 189.125089 288.886149 
L 189.258919 288.927423 
L 189.392749 288.894442 
L 189.459664 288.802912 
L 189.526579 288.881187 
L 189.593493 288.927059 
L 189.660408 288.782756 
L 189.727323 288.890822 
L 189.861153 288.945136 
L 190.061897 288.875859 
L 190.195727 288.909966 
L 190.530301 288.784405 
L 190.597216 288.965864 
L 190.664131 288.921957 
L 190.998705 288.979938 
L 191.19945 288.914849 
L 191.600939 288.80482 
L 191.667854 288.905699 
L 191.734769 288.861001 
L 191.868599 288.894288 
L 192.403917 288.872334 
L 192.537747 288.913026 
L 192.805407 288.862153 
L 192.939236 288.868014 
L 193.006151 288.760982 
L 193.073066 288.842301 
L 193.139981 288.87626 
L 193.206896 288.72869 
L 193.27381 288.949172 
L 193.340725 288.86213 
L 193.474555 288.943177 
L 193.6753 288.72571 
L 193.742214 288.974613 
L 193.809129 288.94342 
L 194.009874 288.845585 
L 194.210618 288.886362 
L 194.411363 288.830577 
L 194.478278 288.934884 
L 194.545193 288.87195 
L 194.612108 288.867119 
L 194.679022 288.729863 
L 194.745937 288.923286 
L 194.812852 288.878466 
L 195.080512 288.9833 
L 195.281256 288.747798 
L 195.348171 288.974024 
L 195.415086 288.837002 
L 195.548916 288.948287 
L 195.61583 288.869383 
L 195.74966 288.941799 
L 196.218064 288.934949 
L 196.284979 288.764412 
L 196.351894 288.877187 
L 196.954128 288.945596 
L 197.154872 288.846723 
L 197.288702 288.920659 
L 197.489446 288.857149 
L 197.556361 288.90441 
L 197.623276 288.815625 
L 197.824021 288.947223 
L 198.158595 288.877894 
L 198.359339 288.937834 
L 198.426254 288.860383 
L 198.493169 288.940122 
L 198.693914 288.953785 
L 198.894658 288.947029 
L 199.162318 288.982557 
L 199.363062 288.903933 
L 199.496892 288.874319 
L 199.630722 288.836663 
L 199.764551 288.983161 
L 199.965296 288.756496 
L 200.032211 288.994902 
L 200.099126 288.973494 
L 200.29987 288.859802 
L 200.500615 288.97943 
L 200.701359 288.848636 
L 200.969019 288.910068 
L 201.035934 288.844881 
L 201.102849 288.949579 
L 201.169763 288.831287 
L 201.236678 288.916929 
L 202.039657 288.898902 
L 202.240401 288.962545 
L 202.374231 288.801989 
L 202.508061 288.934506 
L 202.90955 288.901267 
L 202.976465 288.787096 
L 203.043379 288.897096 
L 203.110294 288.81798 
L 203.377954 288.969066 
L 203.444869 288.87857 
L 203.578698 288.934743 
L 203.645613 288.859509 
L 203.779443 288.984888 
L 204.180932 288.893566 
L 204.649336 288.931917 
L 204.716251 288.76156 
L 204.783166 288.868393 
L 205.050825 288.938767 
L 205.11774 288.820429 
L 205.25157 288.941739 
L 205.318484 288.82143 
L 205.385399 288.883488 
L 205.586144 288.946185 
L 206.188378 288.86215 
L 206.322207 288.947234 
L 206.389122 288.857249 
L 206.456037 288.911107 
L 206.589867 288.903629 
L 206.790611 288.948004 
L 207.058271 288.907051 
L 207.125186 288.806713 
L 207.1921 288.951786 
L 207.259015 288.837237 
L 207.526675 288.93044 
L 207.928164 288.927566 
L 207.995079 288.988365 
L 208.061994 288.842906 
L 208.128908 288.909531 
L 208.396568 288.851453 
L 208.664227 288.983727 
L 208.731142 288.853565 
L 208.798057 288.981298 
L 208.864972 288.907854 
L 208.998801 288.95612 
L 211.742311 288.925971 
L 211.943055 288.95543 
L 212.344544 288.926442 
L 212.478374 288.906416 
L 212.612204 288.795495 
L 212.679119 288.993762 
L 212.746033 288.949482 
L 213.950501 288.948288 
L 214.151245 288.931483 
L 214.285075 288.918455 
L 214.619649 288.954418 
L 215.088053 288.884597 
L 215.221883 288.959139 
L 215.422628 288.831547 
L 218.032307 288.91721 
L 218.099222 288.820751 
L 218.166137 288.924348 
L 218.233052 288.880353 
L 218.299966 288.818308 
L 218.433796 288.935915 
L 218.500711 288.763384 
L 218.567626 288.948503 
L 218.634541 288.913763 
L 218.969115 288.919535 
L 219.236774 288.977248 
L 219.303689 288.839858 
L 219.370604 288.895667 
L 219.571349 288.95361 
L 219.839008 288.859495 
L 219.972838 288.954878 
L 220.240497 288.88023 
L 220.441242 288.958913 
L 220.508157 288.857797 
L 220.575071 288.98567 
L 220.641986 288.855884 
L 220.708901 288.947502 
L 220.976561 288.885407 
L 221.043475 288.828354 
L 221.177305 288.938589 
L 221.846454 288.975563 
L 221.913369 288.880523 
L 221.980283 288.951901 
L 222.247943 288.954726 
L 222.448687 288.963681 
L 222.716347 288.982037 
L 222.783262 288.893866 
L 222.850177 288.967347 
L 223.050921 288.932221 
L 231.281448 288.850139 
L 231.348363 288.782103 
L 231.549108 288.931492 
L 233.221979 288.906072 
L 233.288894 288.781732 
L 233.422724 288.958223 
L 233.824213 288.881545 
L 252.493457 288.955028 
L 252.627287 288.800365 
L 252.761117 288.936756 
L 252.894947 288.901167 
L 253.028776 288.970174 
L 253.162606 288.906653 
L 253.229521 288.825822 
L 253.296436 288.927 
L 253.363351 288.866451 
L 253.697925 288.949125 
L 257.378242 288.955683 
L 257.712816 288.977197 
L 259.385688 288.953641 
L 259.519517 288.982014 
L 259.720262 288.905187 
L 259.921006 288.938232 
L 260.255581 288.951893 
L 260.65707 288.969548 
L 261.928452 288.953921 
L 262.196111 288.983632 
L 262.932175 288.933768 
L 263.132919 288.948593 
L 263.735153 288.961978 
L 264.203557 288.957634 
L 264.471217 288.956316 
L 264.738876 288.959575 
L 265.675684 288.977836 
L 265.742599 288.870637 
L 265.809514 288.970037 
L 266.144088 288.94355 
L 266.880151 288.921097 
L 267.013981 288.953677 
L 267.482385 288.942547 
L 267.616215 288.932714 
L 267.750044 288.948822 
L 267.950789 288.925165 
L 268.820682 288.96483 
L 269.289086 288.926512 
L 269.422916 288.937547 
L 269.824405 288.927847 
L 276.582805 288.955623 
L 276.78355 288.989153 
L 276.984294 288.960916 
L 277.251954 288.971121 
L 280.196208 288.990268 
L 280.396952 288.909903 
L 280.530782 288.951679 
L 280.798441 288.933449 
L 281.133015 288.957255 
L 283.608865 288.96311 
L 283.742695 288.949688 
L 283.943439 288.943899 
L 284.679503 288.974808 
L 284.880247 288.969063 
L 285.214822 288.99246 
L 285.348651 288.949054 
L 285.616311 288.975402 
L 285.88397 288.903496 
L 286.0178 288.966023 
L 286.218544 288.929188 
L 286.820778 288.943627 
L 287.289182 288.957579 
L 288.025246 288.936647 
L 288.292905 288.987477 
L 288.761309 288.955185 
L 289.028968 288.968563 
L 289.631202 288.950745 
L 290.032691 288.983613 
L 290.83567 288.938395 
L 291.036414 288.934862 
L 291.370988 288.988073 
L 292.173967 288.967843 
L 292.976945 288.966969 
L 293.445349 288.924111 
L 293.846838 288.989151 
L 294.582901 288.962267 
L 295.11822 288.941486 
L 295.25205 288.961075 
L 304.62013 288.930962 
L 304.753959 288.982994 
L 304.954704 288.941341 
L 308.233532 288.972882 
L 308.701936 288.953895 
L 309.772574 288.966684 
L 312.248423 288.951334 
L 312.516083 288.993939 
L 312.917572 288.946167 
L 313.118316 288.986992 
L 313.385976 288.976818 
L 314.055124 288.98647 
L 314.255869 288.972209 
L 314.590443 288.963664 
L 314.991932 288.971425 
L 315.527251 288.973346 
L 316.330229 288.948378 
L 316.530974 288.947474 
L 317.534697 288.953225 
L 317.802356 288.967003 
L 336.806175 288.978418 
L 337.676068 288.992523 
L 337.943728 288.984995 
L 340.887981 288.982538 
L 341.624045 288.981532 
L 345.304362 288.966836 
L 345.97351 288.978782 
L 346.508829 288.977404 
L 347.847126 288.95808 
L 348.248615 288.971074 
L 351.125954 288.99 
L 351.527443 288.966605 
L 352.062762 288.977847 
L 352.330422 288.966381 
L 353.066485 288.969901 
L 353.401059 288.965595 
L 375.282217 288.97447 
L 375.616791 288.97374 
L 376.352855 288.98689 
L 376.888173 288.979295 
L 378.895619 288.986105 
L 379.765512 288.9824 
L 380.56849 288.967895 
L 380.83615 288.995608 
L 381.505298 288.967778 
L 381.906788 288.996154 
L 382.575936 288.981622 
L 385.319445 288.989897 
L 385.854764 288.97919 
L 387.059231 288.989828 
L 387.326891 288.979713 
L 387.795295 288.983817 
L 392.27859 288.991909 
L 392.880824 288.990403 
L 393.951462 288.979393 
L 394.48678 288.874386 
L 394.553695 288.646271 
L 394.687525 288.908767 
L 395.022099 288.992867 
L 395.624333 288.975754 
L 396.092737 288.973872 
L 397.029545 288.997179 
L 397.364119 288.975906 
L 397.832523 288.975566 
L 412.219217 288.985246 
L 413.022195 288.989597 
L 414.293578 288.992954 
L 414.828896 288.98563 
L 418.843788 288.97444 
L 419.780596 288.967319 
L 420.11517 288.994101 
L 420.516659 288.979118 
L 426.739741 288.977505 
L 428.613357 288.982623 
L 429.282505 288.992922 
L 429.750909 288.989204 
L 429.750909 288.989204 
" style="fill:none;stroke:#1f77b4;stroke-linecap:square;stroke-width:1.5;"/>
   </g>
   <g id="patch_3">
    <path d="M 57.44 301.48 
L 57.44 26.88 
" style="fill:none;stroke:#000000;stroke-linecap:square;stroke-linejoin:miter;stroke-width:0.8;"/>
   </g>
   <g id="patch_4">
    <path d="M 447.48 301.48 
L 447.48 26.88 
" style="fill:none;stroke:#000000;stroke-linecap:square;stroke-linejoin:miter;stroke-width:0.8;"/>
   </g>
   <g id="patch_5">
    <path d="M 57.44 301.48 
L 447.48 301.48 
" style="fill:none;stroke:#000000;stroke-linecap:square;stroke-linejoin:miter;stroke-width:0.8;"/>
   </g>
   <g id="patch_6">
    <path d="M 57.44 26.88 
L 447.48 26.88 
" style="fill:none;stroke:#000000;stroke-linecap:square;stroke-linejoin:miter;stroke-width:0.8;"/>
   </g>
   <g id="text_14">
    <!-- FFT of ECG -->
    <defs>
     <path d="M 9.8125 72.90625 
L 51.703125 72.90625 
L 51.703125 64.59375 
L 19.671875 64.59375 
L 19.671875 43.109375 
L 48.578125 43.109375 
L 48.578125 34.8125 
L 19.671875 34.8125 
L 19.671875 0 
L 9.8125 0 
z
" id="DejaVuSans-46"/>
     <path d="M -0.296875 72.90625 
L 61.375 72.90625 
L 61.375 64.59375 
L 35.5 64.59375 
L 35.5 0 
L 25.59375 0 
L 25.59375 64.59375 
L -0.296875 64.59375 
z
" id="DejaVuSans-54"/>
     <path id="DejaVuSans-20"/>
     <path d="M 30.609375 48.390625 
Q 23.390625 48.390625 19.1875 42.75 
Q 14.984375 37.109375 14.984375 27.296875 
Q 14.984375 17.484375 19.15625 11.84375 
Q 23.34375 6.203125 30.609375 6.203125 
Q 37.796875 6.203125 41.984375 11.859375 
Q 46.1875 17.53125 46.1875 27.296875 
Q 46.1875 37.015625 41.984375 42.703125 
Q 37.796875 48.390625 30.609375 48.390625 
z
M 30.609375 56 
Q 42.328125 56 49.015625 48.375 
Q 55.71875 40.765625 55.71875 27.296875 
Q 55.71875 13.875 49.015625 6.21875 
Q 42.328125 -1.421875 30.609375 -1.421875 
Q 18.84375 -1.421875 12.171875 6.21875 
Q 5.515625 13.875 5.515625 27.296875 
Q 5.515625 40.765625 12.171875 48.375 
Q 18.84375 56 30.609375 56 
z
" id="DejaVuSans-6f"/>
     <path d="M 9.8125 72.90625 
L 55.90625 72.90625 
L 55.90625 64.59375 
L 19.671875 64.59375 
L 19.671875 43.015625 
L 54.390625 43.015625 
L 54.390625 34.71875 
L 19.671875 34.71875 
L 19.671875 8.296875 
L 56.78125 8.296875 
L 56.78125 0 
L 9.8125 0 
z
" id="DejaVuSans-45"/>
     <path d="M 64.40625 67.28125 
L 64.40625 56.890625 
Q 59.421875 61.53125 53.78125 63.8125 
Q 48.140625 66.109375 41.796875 66.109375 
Q 29.296875 66.109375 22.65625 58.46875 
Q 16.015625 50.828125 16.015625 36.375 
Q 16.015625 21.96875 22.65625 14.328125 
Q 29.296875 6.6875 41.796875 6.6875 
Q 48.140625 6.6875 53.78125 8.984375 
Q 59.421875 11.28125 64.40625 15.921875 
L 64.40625 5.609375 
Q 59.234375 2.09375 53.4375 0.328125 
Q 47.65625 -1.421875 41.21875 -1.421875 
Q 24.65625 -1.421875 15.125 8.703125 
Q 5.609375 18.84375 5.609375 36.375 
Q 5.609375 53.953125 15.125 64.078125 
Q 24.65625 74.21875 41.21875 74.21875 
Q 47.75 74.21875 53.53125 72.484375 
Q 59.328125 70.75 64.40625 67.28125 
z
" id="DejaVuSans-43"/>
     <path d="M 59.515625 10.40625 
L 59.515625 29.984375 
L 43.40625 29.984375 
L 43.40625 38.09375 
L 69.28125 38.09375 
L 69.28125 6.78125 
Q 63.578125 2.734375 56.6875 0.65625 
Q 49.8125 -1.421875 42 -1.421875 
Q 24.90625 -1.421875 15.25 8.5625 
Q 5.609375 18.5625 5.609375 36.375 
Q 5.609375 54.25 15.25 64.234375 
Q 24.90625 74.21875 42 74.21875 
Q 49.125 74.21875 55.546875 72.453125 
Q 61.96875 70.703125 67.390625 67.28125 
L 67.390625 56.78125 
Q 61.921875 61.421875 55.765625 63.765625 
Q 49.609375 66.109375 42.828125 66.109375 
Q 29.4375 66.109375 22.71875 58.640625 
Q 16.015625 51.171875 16.015625 36.375 
Q 16.015625 21.625 22.71875 14.15625 
Q 29.4375 6.6875 42.828125 6.6875 
Q 48.046875 6.6875 52.140625 7.59375 
Q 56.25 8.5 59.515625 10.40625 
z
" id="DejaVuSans-47"/>
    </defs>
    <g transform="translate(219.667188 20.88)scale(0.12 -0.12)">
     <use xlink:href="#DejaVuSans-46"/>
     <use x="57.519531" xlink:href="#DejaVuSans-46"/>
     <use x="115.023438" xlink:href="#DejaVuSans-54"/>
     <use x="176.107422" xlink:href="#DejaVuSans-20"/>
     <use x="207.894531" xlink:href="#DejaVuSans-6f"/>
     <use x="269.076172" xlink:href="#DejaVuSans-66"/>
     <use x="304.28125" xlink:href="#DejaVuSans-20"/>
     <use x="336.068359" xlink:href="#DejaVuSans-45"/>
     <use x="399.251953" xlink:href="#DejaVuSans-43"/>
     <use x="469.076172" xlink:href="#DejaVuSans-47"/>
    </g>
   </g>
  </g>
 </g>
 <defs>
  <clipPath id="p2a61507521">
   <rect height="274.6" width="390.04" x="57.44" y="26.88"/>
  </clipPath>
 </defs>
</svg>
