<?xml version="1.0" encoding="utf-8" standalone="no"?>
<!DOCTYPE svg PUBLIC "-//W3C//DTD SVG 1.1//EN"
  "http://www.w3.org/Graphics/SVG/1.1/DTD/svg11.dtd">
<!-- Created with matplotlib (http://matplotlib.org/) -->
<svg height="343pt" version="1.1" viewBox="0 0 460 343" width="460pt" xmlns="http://www.w3.org/2000/svg" xmlns:xlink="http://www.w3.org/1999/xlink">
 <defs>
  <style type="text/css">
*{stroke-linecap:butt;stroke-linejoin:round;}
  </style>
 </defs>
 <g id="figure_1">
  <g id="patch_1">
   <path d="M 0 343.44 
L 460.8 343.44 
L 460.8 0 
L 0 0 
z
" style="fill:#ffffff;"/>
  </g>
  <g id="axes_1">
   <g id="patch_2">
    <path d="M 57.44 301.48 
L 447.48 301.48 
L 447.48 26.88 
L 57.44 26.88 
z
" style="fill:#ffffff;"/>
   </g>
   <g id="matplotlib.axis_1">
    <g id="xtick_1">
     <g id="line2d_1">
      <path clip-path="url(#p158fb73a2a)" d="M 75.169091 301.48 
L 75.169091 26.88 
" style="fill:none;stroke:#b0b0b0;stroke-linecap:square;stroke-width:0.8;"/>
     </g>
     <g id="line2d_2">
      <defs>
       <path d="M 0 0 
L 0 3.5 
" id="m538830ba48" style="stroke:#000000;stroke-width:0.8;"/>
      </defs>
      <g>
       <use style="stroke:#000000;stroke-width:0.8;" x="75.169091" xlink:href="#m538830ba48" y="301.48"/>
      </g>
     </g>
     <g id="text_1">
      <!-- 0 -->
      <defs>
       <path d="M 31.78125 66.40625 
Q 24.171875 66.40625 20.328125 58.90625 
Q 16.5 51.421875 16.5 36.375 
Q 16.5 21.390625 20.328125 13.890625 
Q 24.171875 6.390625 31.78125 6.390625 
Q 39.453125 6.390625 43.28125 13.890625 
Q 47.125 21.390625 47.125 36.375 
Q 47.125 51.421875 43.28125 58.90625 
Q 39.453125 66.40625 31.78125 66.40625 
z
M 31.78125 74.21875 
Q 44.046875 74.21875 50.515625 64.515625 
Q 56.984375 54.828125 56.984375 36.375 
Q 56.984375 17.96875 50.515625 8.265625 
Q 44.046875 -1.421875 31.78125 -1.421875 
Q 19.53125 -1.421875 13.0625 8.265625 
Q 6.59375 17.96875 6.59375 36.375 
Q 6.59375 54.828125 13.0625 64.515625 
Q 19.53125 74.21875 31.78125 74.21875 
z
" id="DejaVuSans-30"/>
      </defs>
      <g transform="translate(71.987841 316.078437)scale(0.1 -0.1)">
       <use xlink:href="#DejaVuSans-30"/>
      </g>
     </g>
    </g>
    <g id="xtick_2">
     <g id="line2d_3">
      <path clip-path="url(#p158fb73a2a)" d="M 146.092146 301.48 
L 146.092146 26.88 
" style="fill:none;stroke:#b0b0b0;stroke-linecap:square;stroke-width:0.8;"/>
     </g>
     <g id="line2d_4">
      <g>
       <use style="stroke:#000000;stroke-width:0.8;" x="146.092146" xlink:href="#m538830ba48" y="301.48"/>
      </g>
     </g>
     <g id="text_2">
      <!-- 100 -->
      <defs>
       <path d="M 12.40625 8.296875 
L 28.515625 8.296875 
L 28.515625 63.921875 
L 10.984375 60.40625 
L 10.984375 69.390625 
L 28.421875 72.90625 
L 38.28125 72.90625 
L 38.28125 8.296875 
L 54.390625 8.296875 
L 54.390625 0 
L 12.40625 0 
z
" id="DejaVuSans-31"/>
      </defs>
      <g transform="translate(136.548396 316.078437)scale(0.1 -0.1)">
       <use xlink:href="#DejaVuSans-31"/>
       <use x="63.623047" xlink:href="#DejaVuSans-30"/>
       <use x="127.246094" xlink:href="#DejaVuSans-30"/>
      </g>
     </g>
    </g>
    <g id="xtick_3">
     <g id="line2d_5">
      <path clip-path="url(#p158fb73a2a)" d="M 217.015201 301.48 
L 217.015201 26.88 
" style="fill:none;stroke:#b0b0b0;stroke-linecap:square;stroke-width:0.8;"/>
     </g>
     <g id="line2d_6">
      <g>
       <use style="stroke:#000000;stroke-width:0.8;" x="217.015201" xlink:href="#m538830ba48" y="301.48"/>
      </g>
     </g>
     <g id="text_3">
      <!-- 200 -->
      <defs>
       <path d="M 19.1875 8.296875 
L 53.609375 8.296875 
L 53.609375 0 
L 7.328125 0 
L 7.328125 8.296875 
Q 12.9375 14.109375 22.625 23.890625 
Q 32.328125 33.6875 34.8125 36.53125 
Q 39.546875 41.84375 41.421875 45.53125 
Q 43.3125 49.21875 43.3125 52.78125 
Q 43.3125 58.59375 39.234375 62.25 
Q 35.15625 65.921875 28.609375 65.921875 
Q 23.96875 65.921875 18.8125 64.3125 
Q 13.671875 62.703125 7.8125 59.421875 
L 7.8125 69.390625 
Q 13.765625 71.78125 18.9375 73 
Q 24.125 74.21875 28.421875 74.21875 
Q 39.75 74.21875 46.484375 68.546875 
Q 53.21875 62.890625 53.21875 53.421875 
Q 53.21875 48.921875 51.53125 44.890625 
Q 49.859375 40.875 45.40625 35.40625 
Q 44.1875 33.984375 37.640625 27.21875 
Q 31.109375 20.453125 19.1875 8.296875 
z
" id="DejaVuSans-32"/>
      </defs>
      <g transform="translate(207.471451 316.078437)scale(0.1 -0.1)">
       <use xlink:href="#DejaVuSans-32"/>
       <use x="63.623047" xlink:href="#DejaVuSans-30"/>
       <use x="127.246094" xlink:href="#DejaVuSans-30"/>
      </g>
     </g>
    </g>
    <g id="xtick_4">
     <g id="line2d_7">
      <path clip-path="url(#p158fb73a2a)" d="M 287.938256 301.48 
L 287.938256 26.88 
" style="fill:none;stroke:#b0b0b0;stroke-linecap:square;stroke-width:0.8;"/>
     </g>
     <g id="line2d_8">
      <g>
       <use style="stroke:#000000;stroke-width:0.8;" x="287.938256" xlink:href="#m538830ba48" y="301.48"/>
      </g>
     </g>
     <g id="text_4">
      <!-- 300 -->
      <defs>
       <path d="M 40.578125 39.3125 
Q 47.65625 37.796875 51.625 33 
Q 55.609375 28.21875 55.609375 21.1875 
Q 55.609375 10.40625 48.1875 4.484375 
Q 40.765625 -1.421875 27.09375 -1.421875 
Q 22.515625 -1.421875 17.65625 -0.515625 
Q 12.796875 0.390625 7.625 2.203125 
L 7.625 11.71875 
Q 11.71875 9.328125 16.59375 8.109375 
Q 21.484375 6.890625 26.8125 6.890625 
Q 36.078125 6.890625 40.9375 10.546875 
Q 45.796875 14.203125 45.796875 21.1875 
Q 45.796875 27.640625 41.28125 31.265625 
Q 36.765625 34.90625 28.71875 34.90625 
L 20.21875 34.90625 
L 20.21875 43.015625 
L 29.109375 43.015625 
Q 36.375 43.015625 40.234375 45.921875 
Q 44.09375 48.828125 44.09375 54.296875 
Q 44.09375 59.90625 40.109375 62.90625 
Q 36.140625 65.921875 28.71875 65.921875 
Q 24.65625 65.921875 20.015625 65.03125 
Q 15.375 64.15625 9.8125 62.3125 
L 9.8125 71.09375 
Q 15.4375 72.65625 20.34375 73.4375 
Q 25.25 74.21875 29.59375 74.21875 
Q 40.828125 74.21875 47.359375 69.109375 
Q 53.90625 64.015625 53.90625 55.328125 
Q 53.90625 49.265625 50.4375 45.09375 
Q 46.96875 40.921875 40.578125 39.3125 
z
" id="DejaVuSans-33"/>
      </defs>
      <g transform="translate(278.394506 316.078437)scale(0.1 -0.1)">
       <use xlink:href="#DejaVuSans-33"/>
       <use x="63.623047" xlink:href="#DejaVuSans-30"/>
       <use x="127.246094" xlink:href="#DejaVuSans-30"/>
      </g>
     </g>
    </g>
    <g id="xtick_5">
     <g id="line2d_9">
      <path clip-path="url(#p158fb73a2a)" d="M 358.861311 301.48 
L 358.861311 26.88 
" style="fill:none;stroke:#b0b0b0;stroke-linecap:square;stroke-width:0.8;"/>
     </g>
     <g id="line2d_10">
      <g>
       <use style="stroke:#000000;stroke-width:0.8;" x="358.861311" xlink:href="#m538830ba48" y="301.48"/>
      </g>
     </g>
     <g id="text_5">
      <!-- 400 -->
      <defs>
       <path d="M 37.796875 64.3125 
L 12.890625 25.390625 
L 37.796875 25.390625 
z
M 35.203125 72.90625 
L 47.609375 72.90625 
L 47.609375 25.390625 
L 58.015625 25.390625 
L 58.015625 17.1875 
L 47.609375 17.1875 
L 47.609375 0 
L 37.796875 0 
L 37.796875 17.1875 
L 4.890625 17.1875 
L 4.890625 26.703125 
z
" id="DejaVuSans-34"/>
      </defs>
      <g transform="translate(349.317561 316.078437)scale(0.1 -0.1)">
       <use xlink:href="#DejaVuSans-34"/>
       <use x="63.623047" xlink:href="#DejaVuSans-30"/>
       <use x="127.246094" xlink:href="#DejaVuSans-30"/>
      </g>
     </g>
    </g>
    <g id="xtick_6">
     <g id="line2d_11">
      <path clip-path="url(#p158fb73a2a)" d="M 429.784367 301.48 
L 429.784367 26.88 
" style="fill:none;stroke:#b0b0b0;stroke-linecap:square;stroke-width:0.8;"/>
     </g>
     <g id="line2d_12">
      <g>
       <use style="stroke:#000000;stroke-width:0.8;" x="429.784367" xlink:href="#m538830ba48" y="301.48"/>
      </g>
     </g>
     <g id="text_6">
      <!-- 500 -->
      <defs>
       <path d="M 10.796875 72.90625 
L 49.515625 72.90625 
L 49.515625 64.59375 
L 19.828125 64.59375 
L 19.828125 46.734375 
Q 21.96875 47.46875 24.109375 47.828125 
Q 26.265625 48.1875 28.421875 48.1875 
Q 40.625 48.1875 47.75 41.5 
Q 54.890625 34.8125 54.890625 23.390625 
Q 54.890625 11.625 47.5625 5.09375 
Q 40.234375 -1.421875 26.90625 -1.421875 
Q 22.3125 -1.421875 17.546875 -0.640625 
Q 12.796875 0.140625 7.71875 1.703125 
L 7.71875 11.625 
Q 12.109375 9.234375 16.796875 8.0625 
Q 21.484375 6.890625 26.703125 6.890625 
Q 35.15625 6.890625 40.078125 11.328125 
Q 45.015625 15.765625 45.015625 23.390625 
Q 45.015625 31 40.078125 35.4375 
Q 35.15625 39.890625 26.703125 39.890625 
Q 22.75 39.890625 18.8125 39.015625 
Q 14.890625 38.140625 10.796875 36.28125 
z
" id="DejaVuSans-35"/>
      </defs>
      <g transform="translate(420.240617 316.078437)scale(0.1 -0.1)">
       <use xlink:href="#DejaVuSans-35"/>
       <use x="63.623047" xlink:href="#DejaVuSans-30"/>
       <use x="127.246094" xlink:href="#DejaVuSans-30"/>
      </g>
     </g>
    </g>
    <g id="text_7">
     <!-- frequency(Hz) -->
     <defs>
      <path d="M 37.109375 75.984375 
L 37.109375 68.5 
L 28.515625 68.5 
Q 23.6875 68.5 21.796875 66.546875 
Q 19.921875 64.59375 19.921875 59.515625 
L 19.921875 54.6875 
L 34.71875 54.6875 
L 34.71875 47.703125 
L 19.921875 47.703125 
L 19.921875 0 
L 10.890625 0 
L 10.890625 47.703125 
L 2.296875 47.703125 
L 2.296875 54.6875 
L 10.890625 54.6875 
L 10.890625 58.5 
Q 10.890625 67.625 15.140625 71.796875 
Q 19.390625 75.984375 28.609375 75.984375 
z
" id="DejaVuSans-66"/>
      <path d="M 41.109375 46.296875 
Q 39.59375 47.171875 37.8125 47.578125 
Q 36.03125 48 33.890625 48 
Q 26.265625 48 22.1875 43.046875 
Q 18.109375 38.09375 18.109375 28.8125 
L 18.109375 0 
L 9.078125 0 
L 9.078125 54.6875 
L 18.109375 54.6875 
L 18.109375 46.1875 
Q 20.953125 51.171875 25.484375 53.578125 
Q 30.03125 56 36.53125 56 
Q 37.453125 56 38.578125 55.875 
Q 39.703125 55.765625 41.0625 55.515625 
z
" id="DejaVuSans-72"/>
      <path d="M 56.203125 29.59375 
L 56.203125 25.203125 
L 14.890625 25.203125 
Q 15.484375 15.921875 20.484375 11.0625 
Q 25.484375 6.203125 34.421875 6.203125 
Q 39.59375 6.203125 44.453125 7.46875 
Q 49.3125 8.734375 54.109375 11.28125 
L 54.109375 2.78125 
Q 49.265625 0.734375 44.1875 -0.34375 
Q 39.109375 -1.421875 33.890625 -1.421875 
Q 20.796875 -1.421875 13.15625 6.1875 
Q 5.515625 13.8125 5.515625 26.8125 
Q 5.515625 40.234375 12.765625 48.109375 
Q 20.015625 56 32.328125 56 
Q 43.359375 56 49.78125 48.890625 
Q 56.203125 41.796875 56.203125 29.59375 
z
M 47.21875 32.234375 
Q 47.125 39.59375 43.09375 43.984375 
Q 39.0625 48.390625 32.421875 48.390625 
Q 24.90625 48.390625 20.390625 44.140625 
Q 15.875 39.890625 15.1875 32.171875 
z
" id="DejaVuSans-65"/>
      <path d="M 14.796875 27.296875 
Q 14.796875 17.390625 18.875 11.75 
Q 22.953125 6.109375 30.078125 6.109375 
Q 37.203125 6.109375 41.296875 11.75 
Q 45.40625 17.390625 45.40625 27.296875 
Q 45.40625 37.203125 41.296875 42.84375 
Q 37.203125 48.484375 30.078125 48.484375 
Q 22.953125 48.484375 18.875 42.84375 
Q 14.796875 37.203125 14.796875 27.296875 
z
M 45.40625 8.203125 
Q 42.578125 3.328125 38.25 0.953125 
Q 33.9375 -1.421875 27.875 -1.421875 
Q 17.96875 -1.421875 11.734375 6.484375 
Q 5.515625 14.40625 5.515625 27.296875 
Q 5.515625 40.1875 11.734375 48.09375 
Q 17.96875 56 27.875 56 
Q 33.9375 56 38.25 53.625 
Q 42.578125 51.265625 45.40625 46.390625 
L 45.40625 54.6875 
L 54.390625 54.6875 
L 54.390625 -20.796875 
L 45.40625 -20.796875 
z
" id="DejaVuSans-71"/>
      <path d="M 8.5 21.578125 
L 8.5 54.6875 
L 17.484375 54.6875 
L 17.484375 21.921875 
Q 17.484375 14.15625 20.5 10.265625 
Q 23.53125 6.390625 29.59375 6.390625 
Q 36.859375 6.390625 41.078125 11.03125 
Q 45.3125 15.671875 45.3125 23.6875 
L 45.3125 54.6875 
L 54.296875 54.6875 
L 54.296875 0 
L 45.3125 0 
L 45.3125 8.40625 
Q 42.046875 3.421875 37.71875 1 
Q 33.40625 -1.421875 27.6875 -1.421875 
Q 18.265625 -1.421875 13.375 4.4375 
Q 8.5 10.296875 8.5 21.578125 
z
M 31.109375 56 
z
" id="DejaVuSans-75"/>
      <path d="M 54.890625 33.015625 
L 54.890625 0 
L 45.90625 0 
L 45.90625 32.71875 
Q 45.90625 40.484375 42.875 44.328125 
Q 39.84375 48.1875 33.796875 48.1875 
Q 26.515625 48.1875 22.3125 43.546875 
Q 18.109375 38.921875 18.109375 30.90625 
L 18.109375 0 
L 9.078125 0 
L 9.078125 54.6875 
L 18.109375 54.6875 
L 18.109375 46.1875 
Q 21.34375 51.125 25.703125 53.5625 
Q 30.078125 56 35.796875 56 
Q 45.21875 56 50.046875 50.171875 
Q 54.890625 44.34375 54.890625 33.015625 
z
" id="DejaVuSans-6e"/>
      <path d="M 48.78125 52.59375 
L 48.78125 44.1875 
Q 44.96875 46.296875 41.140625 47.34375 
Q 37.3125 48.390625 33.40625 48.390625 
Q 24.65625 48.390625 19.8125 42.84375 
Q 14.984375 37.3125 14.984375 27.296875 
Q 14.984375 17.28125 19.8125 11.734375 
Q 24.65625 6.203125 33.40625 6.203125 
Q 37.3125 6.203125 41.140625 7.25 
Q 44.96875 8.296875 48.78125 10.40625 
L 48.78125 2.09375 
Q 45.015625 0.34375 40.984375 -0.53125 
Q 36.96875 -1.421875 32.421875 -1.421875 
Q 20.0625 -1.421875 12.78125 6.34375 
Q 5.515625 14.109375 5.515625 27.296875 
Q 5.515625 40.671875 12.859375 48.328125 
Q 20.21875 56 33.015625 56 
Q 37.15625 56 41.109375 55.140625 
Q 45.0625 54.296875 48.78125 52.59375 
z
" id="DejaVuSans-63"/>
      <path d="M 32.171875 -5.078125 
Q 28.375 -14.84375 24.75 -17.8125 
Q 21.140625 -20.796875 15.09375 -20.796875 
L 7.90625 -20.796875 
L 7.90625 -13.28125 
L 13.1875 -13.28125 
Q 16.890625 -13.28125 18.9375 -11.515625 
Q 21 -9.765625 23.484375 -3.21875 
L 25.09375 0.875 
L 2.984375 54.6875 
L 12.5 54.6875 
L 29.59375 11.921875 
L 46.6875 54.6875 
L 56.203125 54.6875 
z
" id="DejaVuSans-79"/>
      <path d="M 31 75.875 
Q 24.46875 64.65625 21.28125 53.65625 
Q 18.109375 42.671875 18.109375 31.390625 
Q 18.109375 20.125 21.3125 9.0625 
Q 24.515625 -2 31 -13.1875 
L 23.1875 -13.1875 
Q 15.875 -1.703125 12.234375 9.375 
Q 8.59375 20.453125 8.59375 31.390625 
Q 8.59375 42.28125 12.203125 53.3125 
Q 15.828125 64.359375 23.1875 75.875 
z
" id="DejaVuSans-28"/>
      <path d="M 9.8125 72.90625 
L 19.671875 72.90625 
L 19.671875 43.015625 
L 55.515625 43.015625 
L 55.515625 72.90625 
L 65.375 72.90625 
L 65.375 0 
L 55.515625 0 
L 55.515625 34.71875 
L 19.671875 34.71875 
L 19.671875 0 
L 9.8125 0 
z
" id="DejaVuSans-48"/>
      <path d="M 5.515625 54.6875 
L 48.1875 54.6875 
L 48.1875 46.484375 
L 14.40625 7.171875 
L 48.1875 7.171875 
L 48.1875 0 
L 4.296875 0 
L 4.296875 8.203125 
L 38.09375 47.515625 
L 5.515625 47.515625 
z
" id="DejaVuSans-7a"/>
      <path d="M 8.015625 75.875 
L 15.828125 75.875 
Q 23.140625 64.359375 26.78125 53.3125 
Q 30.421875 42.28125 30.421875 31.390625 
Q 30.421875 20.453125 26.78125 9.375 
Q 23.140625 -1.703125 15.828125 -13.1875 
L 8.015625 -13.1875 
Q 14.5 -2 17.703125 9.0625 
Q 20.90625 20.125 20.90625 31.390625 
Q 20.90625 42.671875 17.703125 53.65625 
Q 14.5 64.65625 8.015625 75.875 
z
" id="DejaVuSans-29"/>
     </defs>
     <g transform="translate(216.986562 329.756562)scale(0.1 -0.1)">
      <use xlink:href="#DejaVuSans-66"/>
      <use x="35.205078" xlink:href="#DejaVuSans-72"/>
      <use x="76.287109" xlink:href="#DejaVuSans-65"/>
      <use x="137.810547" xlink:href="#DejaVuSans-71"/>
      <use x="201.287109" xlink:href="#DejaVuSans-75"/>
      <use x="264.666016" xlink:href="#DejaVuSans-65"/>
      <use x="326.189453" xlink:href="#DejaVuSans-6e"/>
      <use x="389.568359" xlink:href="#DejaVuSans-63"/>
      <use x="444.548828" xlink:href="#DejaVuSans-79"/>
      <use x="503.728516" xlink:href="#DejaVuSans-28"/>
      <use x="542.742188" xlink:href="#DejaVuSans-48"/>
      <use x="617.9375" xlink:href="#DejaVuSans-7a"/>
      <use x="670.427734" xlink:href="#DejaVuSans-29"/>
     </g>
    </g>
   </g>
   <g id="matplotlib.axis_2">
    <g id="ytick_1">
     <g id="line2d_13">
      <path clip-path="url(#p158fb73a2a)" d="M 57.44 288.998813 
L 447.48 288.998813 
" style="fill:none;stroke:#b0b0b0;stroke-linecap:square;stroke-width:0.8;"/>
     </g>
     <g id="line2d_14">
      <defs>
       <path d="M 0 0 
L -3.5 0 
" id="mc962454b64" style="stroke:#000000;stroke-width:0.8;"/>
      </defs>
      <g>
       <use style="stroke:#000000;stroke-width:0.8;" x="57.44" xlink:href="#mc962454b64" y="288.998813"/>
      </g>
     </g>
     <g id="text_8">
      <!-- 0 -->
      <g transform="translate(44.0775 292.798032)scale(0.1 -0.1)">
       <use xlink:href="#DejaVuSans-30"/>
      </g>
     </g>
    </g>
    <g id="ytick_2">
     <g id="line2d_15">
      <path clip-path="url(#p158fb73a2a)" d="M 57.44 229.799143 
L 447.48 229.799143 
" style="fill:none;stroke:#b0b0b0;stroke-linecap:square;stroke-width:0.8;"/>
     </g>
     <g id="line2d_16">
      <g>
       <use style="stroke:#000000;stroke-width:0.8;" x="57.44" xlink:href="#mc962454b64" y="229.799143"/>
      </g>
     </g>
     <g id="text_9">
      <!-- 2000 -->
      <g transform="translate(24.99 233.598362)scale(0.1 -0.1)">
       <use xlink:href="#DejaVuSans-32"/>
       <use x="63.623047" xlink:href="#DejaVuSans-30"/>
       <use x="127.246094" xlink:href="#DejaVuSans-30"/>
       <use x="190.869141" xlink:href="#DejaVuSans-30"/>
      </g>
     </g>
    </g>
    <g id="ytick_3">
     <g id="line2d_17">
      <path clip-path="url(#p158fb73a2a)" d="M 57.44 170.599473 
L 447.48 170.599473 
" style="fill:none;stroke:#b0b0b0;stroke-linecap:square;stroke-width:0.8;"/>
     </g>
     <g id="line2d_18">
      <g>
       <use style="stroke:#000000;stroke-width:0.8;" x="57.44" xlink:href="#mc962454b64" y="170.599473"/>
      </g>
     </g>
     <g id="text_10">
      <!-- 4000 -->
      <g transform="translate(24.99 174.398692)scale(0.1 -0.1)">
       <use xlink:href="#DejaVuSans-34"/>
       <use x="63.623047" xlink:href="#DejaVuSans-30"/>
       <use x="127.246094" xlink:href="#DejaVuSans-30"/>
       <use x="190.869141" xlink:href="#DejaVuSans-30"/>
      </g>
     </g>
    </g>
    <g id="ytick_4">
     <g id="line2d_19">
      <path clip-path="url(#p158fb73a2a)" d="M 57.44 111.399803 
L 447.48 111.399803 
" style="fill:none;stroke:#b0b0b0;stroke-linecap:square;stroke-width:0.8;"/>
     </g>
     <g id="line2d_20">
      <g>
       <use style="stroke:#000000;stroke-width:0.8;" x="57.44" xlink:href="#mc962454b64" y="111.399803"/>
      </g>
     </g>
     <g id="text_11">
      <!-- 6000 -->
      <defs>
       <path d="M 33.015625 40.375 
Q 26.375 40.375 22.484375 35.828125 
Q 18.609375 31.296875 18.609375 23.390625 
Q 18.609375 15.53125 22.484375 10.953125 
Q 26.375 6.390625 33.015625 6.390625 
Q 39.65625 6.390625 43.53125 10.953125 
Q 47.40625 15.53125 47.40625 23.390625 
Q 47.40625 31.296875 43.53125 35.828125 
Q 39.65625 40.375 33.015625 40.375 
z
M 52.59375 71.296875 
L 52.59375 62.3125 
Q 48.875 64.0625 45.09375 64.984375 
Q 41.3125 65.921875 37.59375 65.921875 
Q 27.828125 65.921875 22.671875 59.328125 
Q 17.53125 52.734375 16.796875 39.40625 
Q 19.671875 43.65625 24.015625 45.921875 
Q 28.375 48.1875 33.59375 48.1875 
Q 44.578125 48.1875 50.953125 41.515625 
Q 57.328125 34.859375 57.328125 23.390625 
Q 57.328125 12.15625 50.6875 5.359375 
Q 44.046875 -1.421875 33.015625 -1.421875 
Q 20.359375 -1.421875 13.671875 8.265625 
Q 6.984375 17.96875 6.984375 36.375 
Q 6.984375 53.65625 15.1875 63.9375 
Q 23.390625 74.21875 37.203125 74.21875 
Q 40.921875 74.21875 44.703125 73.484375 
Q 48.484375 72.75 52.59375 71.296875 
z
" id="DejaVuSans-36"/>
      </defs>
      <g transform="translate(24.99 115.199021)scale(0.1 -0.1)">
       <use xlink:href="#DejaVuSans-36"/>
       <use x="63.623047" xlink:href="#DejaVuSans-30"/>
       <use x="127.246094" xlink:href="#DejaVuSans-30"/>
       <use x="190.869141" xlink:href="#DejaVuSans-30"/>
      </g>
     </g>
    </g>
    <g id="ytick_5">
     <g id="line2d_21">
      <path clip-path="url(#p158fb73a2a)" d="M 57.44 52.200132 
L 447.48 52.200132 
" style="fill:none;stroke:#b0b0b0;stroke-linecap:square;stroke-width:0.8;"/>
     </g>
     <g id="line2d_22">
      <g>
       <use style="stroke:#000000;stroke-width:0.8;" x="57.44" xlink:href="#mc962454b64" y="52.200132"/>
      </g>
     </g>
     <g id="text_12">
      <!-- 8000 -->
      <defs>
       <path d="M 31.78125 34.625 
Q 24.75 34.625 20.71875 30.859375 
Q 16.703125 27.09375 16.703125 20.515625 
Q 16.703125 13.921875 20.71875 10.15625 
Q 24.75 6.390625 31.78125 6.390625 
Q 38.8125 6.390625 42.859375 10.171875 
Q 46.921875 13.96875 46.921875 20.515625 
Q 46.921875 27.09375 42.890625 30.859375 
Q 38.875 34.625 31.78125 34.625 
z
M 21.921875 38.8125 
Q 15.578125 40.375 12.03125 44.71875 
Q 8.5 49.078125 8.5 55.328125 
Q 8.5 64.0625 14.71875 69.140625 
Q 20.953125 74.21875 31.78125 74.21875 
Q 42.671875 74.21875 48.875 69.140625 
Q 55.078125 64.0625 55.078125 55.328125 
Q 55.078125 49.078125 51.53125 44.71875 
Q 48 40.375 41.703125 38.8125 
Q 48.828125 37.15625 52.796875 32.3125 
Q 56.78125 27.484375 56.78125 20.515625 
Q 56.78125 9.90625 50.3125 4.234375 
Q 43.84375 -1.421875 31.78125 -1.421875 
Q 19.734375 -1.421875 13.25 4.234375 
Q 6.78125 9.90625 6.78125 20.515625 
Q 6.78125 27.484375 10.78125 32.3125 
Q 14.796875 37.15625 21.921875 38.8125 
z
M 18.3125 54.390625 
Q 18.3125 48.734375 21.84375 45.5625 
Q 25.390625 42.390625 31.78125 42.390625 
Q 38.140625 42.390625 41.71875 45.5625 
Q 45.3125 48.734375 45.3125 54.390625 
Q 45.3125 60.0625 41.71875 63.234375 
Q 38.140625 66.40625 31.78125 66.40625 
Q 25.390625 66.40625 21.84375 63.234375 
Q 18.3125 60.0625 18.3125 54.390625 
z
" id="DejaVuSans-38"/>
      </defs>
      <g transform="translate(24.99 55.999351)scale(0.1 -0.1)">
       <use xlink:href="#DejaVuSans-38"/>
       <use x="63.623047" xlink:href="#DejaVuSans-30"/>
       <use x="127.246094" xlink:href="#DejaVuSans-30"/>
       <use x="190.869141" xlink:href="#DejaVuSans-30"/>
      </g>
     </g>
    </g>
    <g id="text_13">
     <!-- Amplitude -->
     <defs>
      <path d="M 34.1875 63.1875 
L 20.796875 26.90625 
L 47.609375 26.90625 
z
M 28.609375 72.90625 
L 39.796875 72.90625 
L 67.578125 0 
L 57.328125 0 
L 50.6875 18.703125 
L 17.828125 18.703125 
L 11.1875 0 
L 0.78125 0 
z
" id="DejaVuSans-41"/>
      <path d="M 52 44.1875 
Q 55.375 50.25 60.0625 53.125 
Q 64.75 56 71.09375 56 
Q 79.640625 56 84.28125 50.015625 
Q 88.921875 44.046875 88.921875 33.015625 
L 88.921875 0 
L 79.890625 0 
L 79.890625 32.71875 
Q 79.890625 40.578125 77.09375 44.375 
Q 74.3125 48.1875 68.609375 48.1875 
Q 61.625 48.1875 57.5625 43.546875 
Q 53.515625 38.921875 53.515625 30.90625 
L 53.515625 0 
L 44.484375 0 
L 44.484375 32.71875 
Q 44.484375 40.625 41.703125 44.40625 
Q 38.921875 48.1875 33.109375 48.1875 
Q 26.21875 48.1875 22.15625 43.53125 
Q 18.109375 38.875 18.109375 30.90625 
L 18.109375 0 
L 9.078125 0 
L 9.078125 54.6875 
L 18.109375 54.6875 
L 18.109375 46.1875 
Q 21.1875 51.21875 25.484375 53.609375 
Q 29.78125 56 35.6875 56 
Q 41.65625 56 45.828125 52.96875 
Q 50 49.953125 52 44.1875 
z
" id="DejaVuSans-6d"/>
      <path d="M 18.109375 8.203125 
L 18.109375 -20.796875 
L 9.078125 -20.796875 
L 9.078125 54.6875 
L 18.109375 54.6875 
L 18.109375 46.390625 
Q 20.953125 51.265625 25.265625 53.625 
Q 29.59375 56 35.59375 56 
Q 45.5625 56 51.78125 48.09375 
Q 58.015625 40.1875 58.015625 27.296875 
Q 58.015625 14.40625 51.78125 6.484375 
Q 45.5625 -1.421875 35.59375 -1.421875 
Q 29.59375 -1.421875 25.265625 0.953125 
Q 20.953125 3.328125 18.109375 8.203125 
z
M 48.6875 27.296875 
Q 48.6875 37.203125 44.609375 42.84375 
Q 40.53125 48.484375 33.40625 48.484375 
Q 26.265625 48.484375 22.1875 42.84375 
Q 18.109375 37.203125 18.109375 27.296875 
Q 18.109375 17.390625 22.1875 11.75 
Q 26.265625 6.109375 33.40625 6.109375 
Q 40.53125 6.109375 44.609375 11.75 
Q 48.6875 17.390625 48.6875 27.296875 
z
" id="DejaVuSans-70"/>
      <path d="M 9.421875 75.984375 
L 18.40625 75.984375 
L 18.40625 0 
L 9.421875 0 
z
" id="DejaVuSans-6c"/>
      <path d="M 9.421875 54.6875 
L 18.40625 54.6875 
L 18.40625 0 
L 9.421875 0 
z
M 9.421875 75.984375 
L 18.40625 75.984375 
L 18.40625 64.59375 
L 9.421875 64.59375 
z
" id="DejaVuSans-69"/>
      <path d="M 18.3125 70.21875 
L 18.3125 54.6875 
L 36.8125 54.6875 
L 36.8125 47.703125 
L 18.3125 47.703125 
L 18.3125 18.015625 
Q 18.3125 11.328125 20.140625 9.421875 
Q 21.96875 7.515625 27.59375 7.515625 
L 36.8125 7.515625 
L 36.8125 0 
L 27.59375 0 
Q 17.1875 0 13.234375 3.875 
Q 9.28125 7.765625 9.28125 18.015625 
L 9.28125 47.703125 
L 2.6875 47.703125 
L 2.6875 54.6875 
L 9.28125 54.6875 
L 9.28125 70.21875 
z
" id="DejaVuSans-74"/>
      <path d="M 45.40625 46.390625 
L 45.40625 75.984375 
L 54.390625 75.984375 
L 54.390625 0 
L 45.40625 0 
L 45.40625 8.203125 
Q 42.578125 3.328125 38.25 0.953125 
Q 33.9375 -1.421875 27.875 -1.421875 
Q 17.96875 -1.421875 11.734375 6.484375 
Q 5.515625 14.40625 5.515625 27.296875 
Q 5.515625 40.1875 11.734375 48.09375 
Q 17.96875 56 27.875 56 
Q 33.9375 56 38.25 53.625 
Q 42.578125 51.265625 45.40625 46.390625 
z
M 14.796875 27.296875 
Q 14.796875 17.390625 18.875 11.75 
Q 22.953125 6.109375 30.078125 6.109375 
Q 37.203125 6.109375 41.296875 11.75 
Q 45.40625 17.390625 45.40625 27.296875 
Q 45.40625 37.203125 41.296875 42.84375 
Q 37.203125 48.484375 30.078125 48.484375 
Q 22.953125 48.484375 18.875 42.84375 
Q 14.796875 37.203125 14.796875 27.296875 
z
" id="DejaVuSans-64"/>
     </defs>
     <g transform="translate(18.910312 189.802656)rotate(-90)scale(0.1 -0.1)">
      <use xlink:href="#DejaVuSans-41"/>
      <use x="68.408203" xlink:href="#DejaVuSans-6d"/>
      <use x="165.820312" xlink:href="#DejaVuSans-70"/>
      <use x="229.296875" xlink:href="#DejaVuSans-6c"/>
      <use x="257.080078" xlink:href="#DejaVuSans-69"/>
      <use x="284.863281" xlink:href="#DejaVuSans-74"/>
      <use x="324.072266" xlink:href="#DejaVuSans-75"/>
      <use x="387.451172" xlink:href="#DejaVuSans-64"/>
      <use x="450.927734" xlink:href="#DejaVuSans-65"/>
     </g>
    </g>
   </g>
   <g id="line2d_23">
    <path clip-path="url(#p158fb73a2a)" d="M 75.169091 39.361818 
L 75.236006 229.275499 
L 75.302921 242.108343 
L 75.43675 278.657489 
L 75.503665 275.443645 
L 75.771325 285.006435 
L 75.838239 283.191851 
L 75.905154 283.92684 
L 76.105899 287.012657 
L 76.306643 282.716564 
L 76.373558 283.335745 
L 76.440473 287.175162 
L 76.507388 285.505058 
L 76.574303 287.072738 
L 76.641218 286.234698 
L 76.975792 287.321369 
L 77.176537 287.113357 
L 77.310366 287.869111 
L 77.444196 280.084001 
L 77.511111 285.248055 
L 77.578026 284.289908 
L 77.77877 287.810058 
L 77.845685 287.783502 
L 78.113345 288.676377 
L 78.180259 288.468199 
L 78.247174 288.805851 
L 78.314089 288.711462 
L 78.381004 287.23774 
L 78.447919 287.575237 
L 78.514834 274.33874 
L 78.581749 277.726734 
L 78.648663 282.54911 
L 78.715578 280.373971 
L 78.983238 287.48987 
L 79.250897 288.557661 
L 79.384727 288.2226 
L 79.451642 288.577952 
L 79.585471 286.265556 
L 79.652386 273.232022 
L 79.786216 286.492861 
L 79.853131 281.868416 
L 79.920046 284.891319 
L 79.98696 283.499571 
L 80.187705 288.530305 
L 80.25462 286.9241 
L 80.321535 288.702142 
L 80.38845 287.750366 
L 80.455364 288.266504 
L 80.589194 287.728437 
L 80.789939 277.580688 
L 80.923768 288.567648 
L 81.057598 285.008244 
L 81.124513 284.691124 
L 81.191428 284.865265 
L 81.392172 287.393175 
L 81.592917 288.457117 
L 81.793662 285.660266 
L 81.927491 278.380039 
L 81.994406 287.057337 
L 82.061321 285.896306 
L 82.128236 286.56935 
L 82.32898 284.422041 
L 82.395895 284.996466 
L 82.529725 286.49975 
L 82.59664 286.733996 
L 82.663555 287.727569 
L 82.73047 287.508027 
L 82.797384 287.842852 
L 82.998129 278.537195 
L 83.065044 281.913326 
L 83.131959 286.337157 
L 83.198874 284.310342 
L 83.332703 287.635131 
L 83.466533 284.450449 
L 83.533448 285.148391 
L 83.868022 287.125313 
L 83.934937 286.914696 
L 84.001852 285.319884 
L 84.068767 287.27895 
L 84.135682 277.024289 
L 84.269511 288.769997 
L 84.336426 283.440703 
L 84.403341 286.739999 
L 84.537171 287.961126 
L 84.671 284.773754 
L 84.737915 286.947144 
L 84.80483 285.338726 
L 84.871745 286.505189 
L 84.93866 286.353997 
L 85.005575 286.626229 
L 85.072489 285.680128 
L 85.139404 285.7178 
L 85.206319 285.80826 
L 85.273234 279.553951 
L 85.340149 288.346015 
L 85.407064 287.993485 
L 85.473979 285.406751 
L 85.540893 286.191316 
L 85.741638 287.854696 
L 85.808553 286.632258 
L 85.875468 286.946091 
L 85.942383 286.269697 
L 86.009297 286.339428 
L 86.076212 286.409647 
L 86.143127 286.865246 
L 86.210042 284.049087 
L 86.276957 286.873699 
L 86.410787 281.40221 
L 86.477701 287.787367 
L 86.544616 286.162391 
L 86.611531 286.983722 
L 86.678446 286.910112 
L 86.745361 286.929826 
L 86.812276 286.547336 
L 86.879191 288.254344 
L 86.946105 287.740741 
L 87.01302 287.809392 
L 87.213765 286.416337 
L 87.28068 287.403378 
L 87.347595 282.701233 
L 87.414509 287.240989 
L 87.481424 283.638438 
L 87.548339 283.713748 
L 87.615254 287.408554 
L 87.682169 285.26086 
L 87.815999 288.097429 
L 87.882913 287.532993 
L 87.949828 286.371739 
L 88.083658 288.473566 
L 88.150573 288.163456 
L 88.284403 287.466088 
L 88.351317 287.151175 
L 88.418232 288.194045 
L 88.485147 283.38285 
L 88.552062 286.585588 
L 88.618977 284.14961 
L 88.752807 288.314834 
L 88.819721 285.143741 
L 88.886636 286.811002 
L 89.020466 288.350772 
L 89.154296 286.909236 
L 89.288125 288.525864 
L 89.421955 287.952678 
L 89.48887 287.423036 
L 89.555785 288.449172 
L 89.6227 284.048757 
L 89.689615 285.13472 
L 89.756529 285.395762 
L 89.890359 288.615383 
L 89.957274 285.895212 
L 90.024189 287.138206 
L 90.091104 287.227641 
L 90.224933 288.14972 
L 90.291848 287.166281 
L 90.358763 288.288258 
L 90.425678 288.083678 
L 90.559508 288.57031 
L 90.693337 287.742136 
L 90.827167 285.603729 
L 91.027912 288.483285 
L 91.094826 286.865961 
L 91.161741 287.825463 
L 91.295571 287.454944 
L 91.362486 288.804971 
L 91.429401 288.056528 
L 91.496316 288.635682 
L 91.56323 288.030432 
L 91.630145 288.709577 
L 91.69706 288.526611 
L 91.763975 288.48066 
L 91.96472 285.932817 
L 92.031634 288.487159 
L 92.098549 288.014291 
L 92.165464 288.483095 
L 92.232379 287.69635 
L 92.299294 287.994838 
L 92.366209 288.064159 
L 92.433124 287.624013 
L 92.566953 288.875196 
L 92.767698 288.272122 
L 92.901528 288.575116 
L 92.968442 287.301163 
L 93.035357 288.701472 
L 93.102272 287.109503 
L 93.169187 288.830486 
L 93.236102 288.622494 
L 93.369932 287.774603 
L 93.503761 288.554851 
L 93.570676 287.833896 
L 93.771421 288.837134 
L 93.90525 288.459226 
L 93.972165 288.727836 
L 94.03908 288.42833 
L 94.105995 287.506011 
L 94.17291 288.574929 
L 94.239825 287.592193 
L 94.30674 288.509155 
L 94.373654 288.004725 
L 94.574399 288.795152 
L 94.708229 288.145936 
L 94.775144 287.988386 
L 94.842058 288.758607 
L 94.908973 288.67581 
L 94.975888 288.662169 
L 95.042803 288.416027 
L 95.109718 288.642198 
L 95.243547 287.730357 
L 95.377377 288.829357 
L 95.444292 288.706719 
L 95.511207 288.706077 
L 95.645037 288.253408 
L 95.711951 288.80768 
L 95.778866 288.387115 
L 95.845781 288.663483 
L 95.912696 288.288483 
L 95.979611 288.532265 
L 96.113441 288.445898 
L 96.180355 288.901635 
L 96.24727 288.64181 
L 96.314185 287.933783 
L 96.3811 288.200905 
L 96.448015 287.926473 
L 96.581845 288.568167 
L 96.648759 288.06976 
L 96.715674 288.90734 
L 96.782589 288.811622 
L 96.916419 288.20517 
L 96.983334 288.377574 
L 97.050249 288.159629 
L 97.117163 288.323497 
L 97.184078 288.204351 
L 97.317908 288.619383 
L 97.384823 288.578533 
L 97.451738 287.650933 
L 97.518653 288.348365 
L 97.585567 287.611659 
L 97.652482 288.712969 
L 97.719397 288.217549 
L 97.786312 288.317203 
L 97.920142 288.854293 
L 98.053971 288.46937 
L 98.120886 288.799673 
L 98.187801 288.363062 
L 98.254716 288.822196 
L 98.388546 288.268152 
L 98.522375 288.471033 
L 98.58929 287.70508 
L 98.656205 288.565875 
L 98.72312 288.392891 
L 98.790035 288.306699 
L 98.85695 288.419687 
L 98.990779 287.937089 
L 99.124609 288.473909 
L 99.191524 288.338264 
L 99.258439 288.855196 
L 99.325354 288.653122 
L 99.459183 288.159626 
L 99.526098 288.211238 
L 99.593013 288.504913 
L 99.726843 287.796893 
L 99.860673 288.580611 
L 99.927587 288.449813 
L 99.994502 288.064539 
L 100.195247 288.797221 
L 100.262162 288.207152 
L 100.329076 288.412959 
L 100.395991 288.755392 
L 100.462906 288.682076 
L 100.529821 288.70168 
L 100.596736 288.587938 
L 100.663651 288.192924 
L 100.730566 288.277916 
L 100.79748 288.689793 
L 100.93131 287.367238 
L 101.06514 288.800361 
L 101.19897 288.041192 
L 101.265884 288.182852 
L 101.466629 288.685928 
L 101.533544 288.38267 
L 101.600459 288.678923 
L 101.667374 288.642149 
L 102.068863 287.786429 
L 102.135778 288.750387 
L 102.202692 288.616479 
L 102.269607 288.282599 
L 102.336522 288.411973 
L 102.403437 288.742138 
L 102.470352 288.603805 
L 102.537267 288.377429 
L 102.604182 288.853914 
L 102.671096 288.765477 
L 102.738011 288.830042 
L 102.804926 288.738986 
L 103.005671 288.090683 
L 103.072586 288.135585 
L 103.206415 288.359901 
L 103.27333 288.237654 
L 103.340245 288.524686 
L 103.40716 288.369101 
L 103.54099 288.316065 
L 103.674819 288.668214 
L 103.741734 288.304713 
L 103.875564 288.870843 
L 104.009394 288.548619 
L 104.143223 287.982065 
L 104.277053 288.470573 
L 104.343968 288.189979 
L 104.477798 288.456939 
L 104.611627 288.146372 
L 104.678542 288.664689 
L 104.745457 288.097337 
L 104.879287 288.771005 
L 104.946202 288.734183 
L 105.080031 288.76756 
L 105.146946 288.155147 
L 105.213861 288.791345 
L 105.280776 288.393841 
L 105.414606 288.859179 
L 105.48152 288.836098 
L 105.682265 288.414597 
L 105.816095 288.870711 
L 105.883009 288.502167 
L 106.016839 288.780448 
L 106.217584 288.627994 
L 106.284499 288.840657 
L 106.418328 288.496077 
L 106.552158 288.785229 
L 106.619073 288.672626 
L 106.685988 288.881334 
L 106.752903 288.55193 
L 106.819817 288.76849 
L 106.886732 288.640694 
L 106.953647 288.91136 
L 107.020562 288.68624 
L 107.087477 288.711033 
L 107.221307 288.916905 
L 107.288221 288.85303 
L 107.555881 288.605141 
L 107.756625 288.966586 
L 108.0912 288.907167 
L 108.158115 288.967512 
L 108.358859 288.839589 
L 108.626519 288.91768 
L 110.567049 288.947638 
L 110.767794 288.924296 
L 112.975984 288.865672 
L 113.176729 288.818186 
L 113.444388 288.94364 
L 114.113537 288.856015 
L 114.180452 288.904968 
L 114.247366 288.714921 
L 114.314281 288.836467 
L 114.381196 288.719948 
L 114.448111 288.831395 
L 114.515026 288.614975 
L 114.581941 288.801347 
L 114.648856 288.654936 
L 114.71577 288.747504 
L 115.050345 288.884397 
L 115.11726 288.617532 
L 115.251089 288.885083 
L 115.318004 288.892864 
L 115.384919 288.633977 
L 115.451834 288.719651 
L 115.585664 288.763498 
L 115.652578 288.725242 
L 115.719493 288.844968 
L 115.786408 288.655923 
L 115.853323 288.764545 
L 115.920238 288.843321 
L 115.987153 288.674156 
L 116.054067 288.752209 
L 116.187897 288.92948 
L 116.254812 288.858271 
L 116.388642 288.350674 
L 116.455557 288.463396 
L 116.522471 288.813683 
L 116.589386 288.439283 
L 116.656301 288.75378 
L 116.723216 288.59293 
L 116.857046 288.530493 
L 116.923961 288.848945 
L 116.990875 288.657177 
L 117.05779 288.641844 
L 117.124705 288.787392 
L 117.19162 288.466641 
L 117.392365 288.912997 
L 117.459279 288.736516 
L 117.526194 288.960587 
L 117.593109 288.736646 
L 117.660024 288.79042 
L 117.726939 288.679459 
L 117.860769 288.883511 
L 118.061513 288.746364 
L 118.128428 288.810665 
L 118.262258 288.297214 
L 118.329173 288.791243 
L 118.396087 288.717819 
L 118.463002 288.531837 
L 118.529917 288.920045 
L 118.596832 288.650873 
L 118.663747 288.892225 
L 118.730662 288.778925 
L 118.797577 288.598725 
L 118.864491 288.689124 
L 119.065236 288.829463 
L 119.265981 288.831334 
L 119.332895 288.701119 
L 119.53364 288.914578 
L 119.734385 288.710369 
L 119.801299 288.267627 
L 119.868214 288.473444 
L 119.935129 288.365482 
L 120.135874 288.949502 
L 120.269703 288.698284 
L 120.336618 288.840979 
L 120.403533 288.692254 
L 120.604278 288.910039 
L 120.871937 288.622385 
L 121.005767 288.939533 
L 121.072682 288.773775 
L 121.139596 288.946374 
L 121.206511 288.757966 
L 121.273426 288.805911 
L 121.474171 288.835586 
L 121.541086 288.631347 
L 121.674915 288.964012 
L 121.74183 288.874496 
L 121.808745 288.939291 
L 121.87566 288.919826 
L 121.942575 288.560192 
L 122.00949 288.656252 
L 122.143319 288.618159 
L 122.210234 288.82181 
L 122.277149 288.640432 
L 122.477894 288.849582 
L 122.611723 288.532735 
L 122.678638 288.921038 
L 122.745553 288.806782 
L 123.080127 288.423682 
L 123.147042 288.484786 
L 123.213957 288.318545 
L 123.280872 288.746929 
L 123.347787 288.544101 
L 123.481616 288.708693 
L 123.548531 288.652944 
L 123.615446 288.773644 
L 123.682361 288.561792 
L 123.749276 288.854355 
L 123.816191 288.833389 
L 123.883106 288.611587 
L 123.95002 288.662697 
L 124.016935 288.633023 
L 124.150765 288.743399 
L 124.21768 288.580204 
L 124.418424 288.871452 
L 124.485339 288.705629 
L 124.619169 288.869655 
L 124.686084 288.778564 
L 124.819914 288.927583 
L 124.886828 288.636711 
L 124.953743 288.710646 
L 125.020658 288.888113 
L 125.087573 288.784862 
L 125.154488 288.691761 
L 125.221403 288.970696 
L 125.288318 288.824718 
L 125.489062 288.688398 
L 125.555977 288.957925 
L 125.622892 288.775398 
L 125.689807 288.642049 
L 125.756722 288.705097 
L 125.823636 288.7888 
L 125.890551 288.601385 
L 126.024381 288.869996 
L 126.091296 288.896286 
L 126.29204 288.54774 
L 126.358955 288.734743 
L 126.42587 288.581512 
L 126.492785 288.635816 
L 126.693529 288.902797 
L 126.760444 288.598759 
L 126.827359 288.684701 
L 127.028104 288.97219 
L 127.228848 288.535986 
L 127.295763 288.630398 
L 127.362678 288.871593 
L 127.429593 288.815799 
L 127.496508 288.69319 
L 127.697252 288.947553 
L 127.897997 288.78448 
L 128.031827 288.926855 
L 128.232571 288.658669 
L 128.299486 288.528111 
L 128.567145 288.952707 
L 128.76789 288.897187 
L 128.90172 288.907918 
L 129.102464 288.779469 
L 129.169379 288.860521 
L 129.236294 288.740283 
L 129.303209 288.892333 
L 129.370124 288.664402 
L 129.437039 288.787159 
L 129.704698 288.902673 
L 129.905443 288.665139 
L 129.972357 288.876938 
L 130.039272 288.789448 
L 130.106187 288.800664 
L 130.173102 288.444876 
L 130.240017 288.576709 
L 130.306932 288.662555 
L 130.373847 288.45713 
L 130.574591 288.866726 
L 130.909165 288.790122 
L 131.042995 288.87528 
L 131.10991 288.699672 
L 131.24374 288.86524 
L 131.310654 288.82367 
L 131.377569 288.649363 
L 131.444484 288.851049 
L 131.511399 288.755476 
L 131.578314 288.780733 
L 131.645229 288.680057 
L 131.712144 288.852037 
L 131.779058 288.561573 
L 131.845973 288.778609 
L 131.912888 288.72379 
L 132.046718 288.765194 
L 132.247462 288.896367 
L 132.515122 288.782829 
L 132.582037 288.97222 
L 132.648952 288.865755 
L 132.782781 288.57755 
L 132.849696 288.870411 
L 132.916611 288.802611 
L 132.983526 288.942527 
L 133.18427 288.766148 
L 133.385015 288.646251 
L 133.45193 288.899244 
L 133.518845 288.579194 
L 133.58576 288.846041 
L 133.652674 288.826394 
L 133.786504 288.681843 
L 133.987249 288.880305 
L 134.187993 288.683247 
L 134.254908 288.798592 
L 134.455653 288.820908 
L 134.589482 288.859245 
L 134.723312 288.809639 
L 134.857142 288.879583 
L 134.924057 288.764892 
L 134.990972 288.810804 
L 135.057886 288.859274 
L 135.124801 288.652546 
L 135.191716 288.707649 
L 135.325546 288.863951 
L 135.727035 288.876256 
L 135.92778 288.626328 
L 135.994694 288.951025 
L 136.061609 288.855186 
L 136.128524 288.901176 
L 136.262354 288.810593 
L 136.329269 288.826576 
L 136.396183 288.965596 
L 136.463098 288.742673 
L 136.530013 288.809738 
L 136.596928 288.779447 
L 136.663843 288.930451 
L 136.730758 288.843281 
L 136.864587 288.675295 
L 136.931502 288.955862 
L 136.998417 288.82707 
L 137.065332 288.806561 
L 137.132247 288.978888 
L 137.199162 288.876906 
L 137.332991 288.837612 
L 137.399906 288.864482 
L 137.466821 288.67484 
L 137.533736 288.712389 
L 137.667566 288.622839 
L 137.734481 288.831288 
L 137.801395 288.728717 
L 138.00214 288.833906 
L 138.069055 288.831248 
L 138.13597 288.951848 
L 138.269799 288.783543 
L 138.805118 288.895015 
L 138.872033 288.716041 
L 138.938948 288.747163 
L 139.273522 288.984968 
L 139.340437 288.957967 
L 139.407352 288.723087 
L 139.474267 288.808081 
L 139.675011 288.730254 
L 139.875756 288.835603 
L 140.009586 288.978761 
L 140.076501 288.714401 
L 140.143415 288.871919 
L 140.34416 288.824572 
L 140.411075 288.904545 
L 140.47799 288.826014 
L 140.544905 288.798749 
L 140.611819 288.974761 
L 140.745649 288.70429 
L 140.879479 288.870504 
L 141.280968 288.901752 
L 141.347883 288.661446 
L 141.414798 288.785622 
L 141.548627 288.876298 
L 141.816287 288.505773 
L 141.950116 288.756442 
L 142.217776 288.909632 
L 142.284691 288.687127 
L 142.41852 288.989765 
L 142.68618 288.75903 
L 142.753095 288.905158 
L 142.82001 288.837341 
L 143.020754 288.961924 
L 143.087669 288.7802 
L 143.154584 288.861175 
L 143.288414 288.956942 
L 143.422243 288.778539 
L 143.489158 288.958613 
L 143.556073 288.82611 
L 143.689903 288.832136 
L 143.823732 288.842246 
L 143.957562 288.764897 
L 144.024477 288.967411 
L 144.091392 288.873304 
L 144.158307 288.930836 
L 144.225222 288.703529 
L 144.292136 288.912673 
L 144.359051 288.798317 
L 144.425966 288.72556 
L 144.559796 288.910254 
L 144.827455 288.817109 
L 145.16203 288.816154 
L 145.228944 288.936983 
L 145.295859 288.722435 
L 145.362774 288.809297 
L 145.630434 288.815713 
L 145.697348 288.494736 
L 145.898093 288.988063 
L 146.165752 288.710939 
L 146.433412 288.933181 
L 146.500327 288.940379 
L 146.634156 288.816073 
L 146.701071 288.897868 
L 146.834901 288.664389 
L 146.901816 288.947293 
L 146.968731 288.682454 
L 147.035645 288.872226 
L 147.10256 288.794573 
L 147.23639 288.750985 
L 147.303305 288.594893 
L 147.437135 288.943052 
L 147.504049 288.818213 
L 147.570964 288.945571 
L 147.704794 288.631255 
L 147.905539 288.857544 
L 148.039368 288.810496 
L 148.106283 288.909856 
L 148.173198 288.853966 
L 148.373943 288.826731 
L 148.507772 288.902314 
L 148.574687 288.812001 
L 148.641602 288.865699 
L 149.043091 288.757715 
L 149.110006 288.910982 
L 149.176921 288.79906 
L 149.377665 288.739883 
L 149.44458 288.904875 
L 149.511495 288.762857 
L 149.57841 288.857797 
L 149.71224 288.660405 
L 149.779155 288.711269 
L 149.979899 288.856468 
L 150.180644 288.917317 
L 150.247559 288.74398 
L 150.314473 288.794848 
L 150.381388 288.754192 
L 150.448303 288.90934 
L 150.515218 288.743966 
L 150.582133 288.803385 
L 150.983622 288.955924 
L 151.050537 288.75127 
L 151.117452 288.857359 
L 151.318196 288.667717 
L 151.585856 288.954682 
L 151.853515 288.719619 
L 151.987345 288.899245 
L 152.255004 288.848879 
L 152.321919 288.693599 
L 152.455749 288.948218 
L 152.522664 288.761189 
L 152.589578 288.925556 
L 152.723408 288.732486 
L 152.790323 288.865799 
L 152.857238 288.814789 
L 153.057982 288.818398 
L 153.124897 288.930972 
L 153.325642 288.760287 
L 153.526386 288.886676 
L 153.727131 288.660937 
L 153.860961 288.799437 
L 153.99479 288.639995 
L 154.12862 288.914767 
L 154.26245 288.82248 
L 154.39628 288.925232 
L 154.530109 288.850909 
L 154.597024 288.967282 
L 154.663939 288.898237 
L 154.730854 288.930611 
L 154.797769 288.808845 
L 154.864684 288.88946 
L 154.931598 288.961334 
L 155.065428 288.652713 
L 155.266173 288.945119 
L 155.400002 288.632281 
L 155.466917 288.886312 
L 155.533832 288.720705 
L 155.734577 288.887094 
L 155.935321 288.74297 
L 156.136066 288.93842 
L 156.202981 288.763375 
L 156.269896 288.860759 
L 156.403725 288.857929 
L 156.60447 288.670532 
L 156.805214 288.868991 
L 157.340533 288.857338 
L 157.407448 288.881226 
L 157.474363 288.682297 
L 157.541278 288.894684 
L 157.675107 288.707511 
L 157.808937 288.873389 
L 157.942767 288.672694 
L 158.009682 288.98163 
L 158.076597 288.711899 
L 158.143511 288.830379 
L 158.210426 288.916266 
L 158.277341 288.776545 
L 158.344256 288.912203 
L 158.411171 288.855368 
L 158.478086 288.914234 
L 158.545001 288.697753 
L 158.611915 288.920062 
L 158.67883 288.790958 
L 159.013405 288.939893 
L 159.414894 288.776787 
L 159.548723 288.694951 
L 159.615638 288.669683 
L 159.682553 288.857699 
L 159.749468 288.726445 
L 159.816383 288.882319 
L 159.883298 288.781913 
L 159.950213 288.892415 
L 160.017127 288.688965 
L 160.084042 288.767578 
L 160.351702 288.655477 
L 160.418617 288.866653 
L 160.485531 288.775391 
L 160.820106 288.894094 
L 160.953935 288.821341 
L 161.02085 288.94709 
L 161.087765 288.901301 
L 161.15468 288.791303 
L 161.221595 288.841126 
L 161.689999 288.861602 
L 161.756914 288.657557 
L 161.823829 288.975823 
L 161.890743 288.831117 
L 161.957658 288.974312 
L 162.091488 288.765052 
L 162.225318 288.805104 
L 162.559892 288.739882 
L 162.693722 288.931249 
L 162.894466 288.760439 
L 163.22904 288.890997 
L 163.295955 288.78114 
L 163.429785 288.974487 
L 163.4967 288.824703 
L 163.563615 288.956579 
L 163.63053 288.773295 
L 163.697444 288.831134 
L 163.764359 288.897057 
L 163.831274 288.737431 
L 163.965104 288.880771 
L 165.102656 288.908632 
L 165.169571 288.810525 
L 165.236486 288.871605 
L 165.504146 288.856214 
L 165.57106 288.718392 
L 165.637975 288.884496 
L 165.70489 288.845554 
L 165.771805 288.83828 
L 165.83872 288.949386 
L 165.905635 288.739964 
L 165.97255 288.798888 
L 166.039464 288.914819 
L 166.106379 288.743735 
L 166.173294 288.989205 
L 166.240209 288.723831 
L 166.307124 288.876538 
L 166.374039 288.793307 
L 166.440954 288.901469 
L 166.507868 288.823092 
L 166.708613 288.886933 
L 166.775528 288.682921 
L 166.842443 288.860579 
L 166.909358 288.649214 
L 166.976272 288.780189 
L 167.243932 288.915017 
L 167.310847 288.791503 
L 167.444676 288.894065 
L 167.511591 288.732734 
L 167.578506 288.84953 
L 167.712336 288.647839 
L 167.779251 288.864482 
L 167.846165 288.72013 
L 167.91308 288.634425 
L 168.113825 288.961786 
L 168.18074 288.815313 
L 168.247655 288.8473 
L 168.448399 288.937618 
L 168.649144 288.836945 
L 168.716059 288.879225 
L 168.782973 288.648441 
L 168.849888 288.918551 
L 168.916803 288.816563 
L 169.050633 288.850871 
L 169.117548 288.944275 
L 169.184463 288.752793 
L 169.251377 288.860337 
L 169.318292 288.739785 
L 169.385207 288.820042 
L 169.452122 288.774014 
L 169.519037 288.947617 
L 169.585952 288.913793 
L 169.652867 288.715845 
L 169.719781 288.797348 
L 169.786696 288.77218 
L 169.987441 288.976737 
L 170.121271 288.822301 
L 170.188185 288.900268 
L 170.455845 288.863185 
L 170.52276 288.787726 
L 170.656589 288.930939 
L 170.723504 288.788809 
L 170.790419 288.943071 
L 170.857334 288.804585 
L 170.924249 288.998109 
L 170.991164 288.955862 
L 171.058079 288.755537 
L 171.124993 288.892414 
L 171.325738 288.934531 
L 171.392653 288.962865 
L 171.526483 288.755826 
L 171.593397 288.819378 
L 171.660312 288.904364 
L 171.727227 288.700037 
L 171.794142 288.795409 
L 172.061801 288.937526 
L 172.195631 288.743426 
L 172.262546 288.847434 
L 172.329461 288.791079 
L 172.396376 288.795101 
L 172.463291 288.928131 
L 172.530205 288.844787 
L 172.59712 288.905451 
L 172.73095 288.626257 
L 172.797865 288.841479 
L 172.86478 288.732249 
L 173.065524 288.949109 
L 173.132439 288.754763 
L 173.333184 288.980337 
L 173.467013 288.772195 
L 173.600843 288.881696 
L 173.868502 288.973536 
L 174.002332 288.69821 
L 174.136162 288.911659 
L 174.203077 288.780336 
L 174.269992 288.947864 
L 174.336906 288.819157 
L 174.537651 288.963538 
L 174.604566 288.725232 
L 174.671481 288.848456 
L 174.738396 288.977223 
L 174.80531 288.924718 
L 174.872225 288.754019 
L 174.93914 288.93885 
L 175.006055 288.882311 
L 175.139885 288.7962 
L 175.2068 288.980214 
L 175.273714 288.897463 
L 175.474459 288.736139 
L 175.541374 288.964732 
L 175.608289 288.766971 
L 175.675204 288.811962 
L 175.942863 288.924076 
L 176.076693 288.9389 
L 176.277437 288.815294 
L 176.344352 288.971803 
L 176.411267 288.904546 
L 176.612012 288.785365 
L 176.678926 288.875371 
L 176.745841 288.704543 
L 176.812756 288.821663 
L 176.879671 288.913674 
L 176.946586 288.841268 
L 177.816479 288.895715 
L 177.950309 288.599747 
L 178.017223 288.914216 
L 178.084138 288.886793 
L 178.418713 288.823613 
L 178.485627 288.760529 
L 178.552542 288.904414 
L 178.619457 288.837404 
L 178.686372 288.796829 
L 178.753287 288.91926 
L 178.820202 288.675116 
L 178.887117 288.860309 
L 178.954031 288.835264 
L 179.087861 288.835896 
L 179.355521 288.927075 
L 180.024669 288.801911 
L 180.225414 288.893665 
L 180.359243 288.864956 
L 180.426158 288.990341 
L 180.493073 288.914617 
L 180.693818 288.817905 
L 180.827647 288.927913 
L 181.229137 288.764517 
L 181.296051 288.881358 
L 181.429881 288.745033 
L 181.496796 288.862599 
L 181.563711 288.819186 
L 181.630626 287.709669 
L 181.764455 288.861411 
L 181.83137 288.845642 
L 181.9652 288.914783 
L 182.09903 288.856804 
L 182.299774 288.955073 
L 182.366689 288.756803 
L 182.500519 288.907834 
L 182.835093 288.818109 
L 182.968923 288.904001 
L 183.035838 288.709456 
L 183.169667 288.951974 
L 183.303497 288.660907 
L 183.370412 288.943553 
L 183.437327 288.90628 
L 183.571156 288.852949 
L 183.638071 288.953702 
L 183.704986 288.773507 
L 183.838816 288.963545 
L 183.972646 288.839882 
L 184.17339 288.947654 
L 184.507964 288.777231 
L 185.043283 288.898049 
L 185.244028 288.930998 
L 185.310943 288.81316 
L 185.377858 288.898411 
L 186.582325 288.911819 
L 186.64924 288.988875 
L 186.716155 288.9133 
L 186.78307 288.947284 
L 186.849984 288.736824 
L 186.916899 288.87091 
L 187.184559 288.782203 
L 187.251474 288.976802 
L 187.318388 288.889792 
L 187.452218 288.81961 
L 187.853707 288.796232 
L 187.987537 288.940779 
L 188.121367 288.754299 
L 188.322111 288.981596 
L 188.455941 288.805068 
L 188.589771 288.837617 
L 188.7236 288.864023 
L 188.790515 288.982199 
L 188.924345 288.864311 
L 189.125089 288.890596 
L 189.192004 288.844188 
L 189.325834 288.981257 
L 189.459664 288.801777 
L 189.526579 288.895686 
L 189.593493 288.930143 
L 189.660408 288.780511 
L 189.727323 288.870749 
L 189.928068 288.904536 
L 190.530301 288.754142 
L 190.597216 288.987401 
L 190.664131 288.927917 
L 191.06562 288.923216 
L 191.266365 288.9006 
L 192.136258 288.863638 
L 192.203173 288.770434 
L 192.270088 288.920512 
L 192.337003 288.808944 
L 192.470832 288.952427 
L 192.537747 288.88975 
L 192.939236 288.854703 
L 193.006151 288.746079 
L 193.139981 288.891161 
L 193.206896 288.759848 
L 193.27381 288.924455 
L 193.340725 288.843706 
L 193.474555 288.901328 
L 193.6753 288.690088 
L 193.742214 288.955351 
L 193.809129 288.900451 
L 194.009874 288.815106 
L 194.143704 288.908236 
L 194.277533 288.855002 
L 194.478278 288.908303 
L 194.679022 288.708165 
L 194.879767 288.950144 
L 195.214341 288.863167 
L 195.281256 288.760071 
L 195.348171 288.968581 
L 195.415086 288.842569 
L 195.548916 288.954597 
L 195.61583 288.862801 
L 195.74966 288.941754 
L 196.084234 288.995195 
L 196.284979 288.769312 
L 196.418809 288.902422 
L 196.619553 288.879244 
L 196.686468 288.98155 
L 196.753383 288.884275 
L 197.021042 288.880707 
L 197.087957 288.976592 
L 197.154872 288.811041 
L 197.221787 288.933063 
L 198.158595 288.855563 
L 198.22551 288.979676 
L 198.292425 288.889226 
L 198.493169 288.963738 
L 199.028488 288.969668 
L 199.496892 288.858306 
L 199.630722 288.850492 
L 199.764551 288.98725 
L 199.965296 288.775774 
L 200.099126 288.988207 
L 200.166041 288.837635 
L 200.232955 288.932148 
L 200.4337 288.871188 
L 200.500615 288.958179 
L 200.56753 288.894511 
L 200.768274 288.900533 
L 201.169763 288.833339 
L 201.236678 288.948645 
L 201.303593 288.877062 
L 201.370508 288.806027 
L 201.437423 288.902672 
L 201.504338 288.833636 
L 201.571253 288.827039 
L 201.638167 288.964395 
L 201.705082 288.817479 
L 201.838912 288.963395 
L 202.039657 288.890135 
L 202.240401 288.970998 
L 202.374231 288.808176 
L 202.508061 288.939283 
L 202.90955 288.897225 
L 202.976465 288.781615 
L 203.043379 288.883059 
L 203.177209 288.901655 
L 203.377954 288.984982 
L 203.444869 288.894508 
L 203.511783 288.951936 
L 203.712528 288.963637 
L 204.381676 288.94797 
L 204.582421 288.945472 
L 204.649336 288.93598 
L 204.716251 288.773168 
L 204.783166 288.87062 
L 205.050825 288.940438 
L 205.11774 288.81844 
L 205.184655 288.994699 
L 205.25157 288.91342 
L 205.318484 288.805741 
L 205.385399 288.869065 
L 205.586144 288.970198 
L 205.920718 288.905124 
L 206.054548 288.862038 
L 206.188378 288.850791 
L 206.322207 288.956289 
L 206.456037 288.900844 
L 206.589867 288.906616 
L 206.790611 288.949736 
L 207.125186 288.810739 
L 207.1921 288.980167 
L 207.259015 288.869974 
L 207.526675 288.944108 
L 207.660504 288.915676 
L 207.727419 288.953132 
L 207.794334 288.855826 
L 207.861249 288.938127 
L 208.128908 288.893302 
L 208.329653 288.909225 
L 208.396568 288.806701 
L 208.463483 288.894726 
L 208.597312 288.921388 
L 209.065716 288.926462 
L 209.199546 288.86005 
L 209.333376 288.96937 
L 209.467205 288.841959 
L 209.601035 288.930565 
L 209.66795 288.815116 
L 209.734865 288.969876 
L 209.80178 288.835026 
L 209.868695 288.914139 
L 209.935609 288.836164 
L 210.069439 288.969375 
L 210.136354 288.857566 
L 210.203269 288.919138 
L 210.404013 288.94582 
L 211.407736 288.908994 
L 211.474651 288.751605 
L 211.608481 288.908709 
L 212.00997 288.958226 
L 212.076885 288.825944 
L 212.1438 288.9069 
L 212.411459 288.939889 
L 212.612204 288.76805 
L 212.746033 288.962384 
L 213.214437 288.871329 
L 213.348267 288.929956 
L 213.682841 288.910807 
L 214.017416 288.972203 
L 214.21816 288.85497 
L 214.35199 288.948529 
L 214.418905 288.852471 
L 214.48582 288.929149 
L 214.954224 288.947156 
L 215.021138 288.827668 
L 215.088053 288.897179 
L 215.221883 288.933415 
L 215.422628 288.82383 
L 215.757202 288.875375 
L 215.824117 288.955143 
L 215.891032 288.88739 
L 216.56018 288.954389 
L 216.69401 288.897669 
L 217.229329 288.934607 
L 217.296244 288.833898 
L 217.430073 288.938757 
L 217.764648 288.96304 
L 217.898477 288.890573 
L 218.166137 288.906064 
L 218.366881 288.903938 
L 218.433796 288.96499 
L 218.500711 288.792373 
L 218.567626 288.951034 
L 218.634541 288.922706 
L 220.508157 288.866994 
L 220.575071 288.993726 
L 220.641986 288.860442 
L 220.708901 288.948635 
L 220.909646 288.882274 
L 221.043475 288.821382 
L 221.11039 288.982437 
L 221.177305 288.932021 
L 223.58624 288.924557 
L 223.786985 288.813158 
L 223.987729 288.948764 
L 224.054644 288.837305 
L 224.188474 288.913874 
L 224.456133 288.901827 
L 224.523048 288.862519 
L 224.723792 288.982056 
L 225.058367 288.898948 
L 225.326026 288.978927 
L 225.392941 288.887846 
L 225.459856 288.953546 
L 225.727515 288.956949 
L 225.861345 288.864343 
L 225.995175 288.927192 
L 226.129004 288.911135 
L 226.530494 288.91029 
L 226.597408 288.988646 
L 226.731238 288.868614 
L 229.006343 288.902635 
L 229.207088 288.870956 
L 229.274003 288.955666 
L 229.340917 288.890588 
L 229.809321 288.877114 
L 230.010066 288.871181 
L 230.143896 288.954121 
L 230.34464 288.887015 
L 230.879959 288.914022 
L 231.013789 288.947641 
L 231.281448 288.861887 
L 231.348363 288.793516 
L 231.549108 288.921549 
L 231.749852 288.985407 
L 231.816767 288.829828 
L 231.883682 288.918274 
L 232.285171 288.926986 
L 232.753575 288.971389 
L 232.95432 288.823614 
L 233.221979 288.892254 
L 233.288894 288.768935 
L 233.422724 288.945334 
L 233.891128 288.880411 
L 234.225702 288.957044 
L 234.426446 288.930071 
L 234.627191 288.918445 
L 234.827936 288.930695 
L 235.229425 288.970333 
L 235.29634 288.82774 
L 235.363254 288.888217 
L 235.563999 288.963471 
L 236.166233 288.882482 
L 236.366977 288.951526 
L 236.500807 288.969172 
L 236.634637 288.938008 
L 237.50453 288.872214 
L 237.772189 288.974871 
L 237.972934 288.924104 
L 238.173678 288.878029 
L 238.374423 288.977692 
L 238.642082 288.915004 
L 238.775912 288.903508 
L 239.177401 288.965584 
L 239.311231 288.948533 
L 239.511976 288.959998 
L 239.645805 288.959473 
L 240.114209 288.936425 
L 240.181124 288.871202 
L 240.248039 288.976729 
L 240.314954 288.875486 
L 240.515698 288.979788 
L 240.649528 288.880644 
L 240.850273 288.971395 
L 241.184847 288.891381 
L 241.452506 288.947144 
L 241.92091 288.976065 
L 241.987825 288.895423 
L 242.05474 288.98478 
L 242.590059 288.926827 
L 242.723889 288.978159 
L 242.991548 288.967269 
L 244.129101 288.939729 
L 244.597505 288.922722 
L 244.731334 288.847921 
L 244.798249 288.960265 
L 244.865164 288.920146 
L 245.333568 288.956751 
L 245.601227 288.945947 
L 245.735057 288.97526 
L 245.868887 288.95412 
L 246.404206 288.984954 
L 246.47112 288.854777 
L 246.538035 288.945351 
L 246.73878 288.937886 
L 246.939524 288.9485 
L 247.073354 288.885177 
L 247.274099 288.943731 
L 247.407928 288.939378 
L 247.608673 288.970996 
L 247.809418 288.951981 
L 247.943247 288.983972 
L 248.077077 288.865587 
L 248.277822 288.946191 
L 249.482289 288.942521 
L 249.683034 288.95516 
L 252.091968 288.93053 
L 252.292713 288.985089 
L 252.359628 288.895429 
L 252.426543 288.952805 
L 252.493457 288.948188 
L 252.627287 288.801275 
L 252.761117 288.937432 
L 252.894947 288.898582 
L 253.028776 288.973069 
L 253.162606 288.909652 
L 253.229521 288.824217 
L 253.296436 288.919824 
L 253.363351 288.85742 
L 253.63101 288.974952 
L 253.898669 288.88547 
L 254.032499 288.903461 
L 254.433988 288.917968 
L 254.500903 288.870533 
L 254.634733 288.939735 
L 254.902392 288.983394 
L 255.170052 288.886808 
L 255.303881 288.936828 
L 255.571541 288.958576 
L 255.8392 288.906421 
L 255.97303 288.933891 
L 256.173774 288.959637 
L 256.374519 288.908758 
L 257.244412 288.978921 
L 257.445157 288.949664 
L 257.645901 288.959966 
L 259.385688 288.951578 
L 259.519517 288.980159 
L 259.720262 288.907116 
L 259.987921 288.967041 
L 260.65707 288.947846 
L 260.790899 288.927319 
L 260.991644 288.929142 
L 261.192389 288.951765 
L 261.593878 288.951081 
L 261.727707 288.930808 
L 263.935898 288.951955 
L 264.002813 288.858116 
L 264.069727 288.972927 
L 264.136642 288.911942 
L 264.471217 288.94356 
L 264.738876 288.948567 
L 264.939621 288.940988 
L 265.675684 288.96886 
L 265.742599 288.859915 
L 265.809514 288.982093 
L 265.876428 288.940264 
L 266.277918 288.952606 
L 266.411747 288.982703 
L 266.746322 288.934334 
L 272.300255 288.974383 
L 272.835573 288.979449 
L 273.103233 288.970216 
L 275.110679 288.949218 
L 275.311423 288.938537 
L 276.582805 288.971328 
L 276.64972 288.994932 
L 276.716635 288.893983 
L 276.78355 288.97999 
L 277.051209 288.937741 
L 277.787273 288.966056 
L 277.921102 288.935582 
L 278.121847 288.964872 
L 280.196208 288.984962 
L 280.396952 288.908201 
L 280.530782 288.949502 
L 280.798441 288.939714 
L 281.133015 288.969558 
L 281.46759 288.928497 
L 281.802164 288.964756 
L 282.404398 288.942753 
L 282.805887 288.951885 
L 283.608865 288.982969 
L 285.348651 288.933602 
L 285.482481 288.940543 
L 286.486204 288.960631 
L 286.553119 288.894274 
L 286.620034 288.964394 
L 287.623756 288.979861 
L 287.824501 288.945738 
L 288.09216 288.983693 
L 288.22599 288.953586 
L 288.426735 288.972918 
L 288.761309 288.941638 
L 289.028968 288.948656 
L 290.099606 288.950723 
L 290.300351 288.956451 
L 290.501095 288.95302 
L 290.634925 288.980546 
L 290.83567 288.945735 
L 291.103329 288.971749 
L 291.237159 288.98332 
L 291.437903 288.976058 
L 291.571733 288.961598 
L 291.772477 288.979013 
L 292.040137 288.941777 
L 292.307796 288.99178 
L 292.976945 288.949606 
L 293.378434 288.924799 
L 293.646093 288.930533 
L 293.913753 288.966864 
L 294.382157 288.962568 
L 295.720454 288.956882 
L 295.921199 288.979588 
L 296.121943 288.969773 
L 296.523432 288.944299 
L 297.59407 288.951686 
L 297.861729 288.970052 
L 298.062474 288.972472 
L 298.330133 288.956575 
L 298.530878 288.951164 
L 298.932367 288.99652 
L 299.200026 288.967352 
L 299.735345 288.973091 
L 300.136834 288.929277 
L 300.471409 288.967798 
L 300.605238 288.904468 
L 300.805983 288.990283 
L 301.140557 288.979328 
L 303.616407 288.955101 
L 303.884066 288.930724 
L 304.151726 288.944369 
L 306.493746 288.979095 
L 306.69449 288.986984 
L 308.835766 288.947879 
L 309.03651 288.967496 
L 309.17034 288.963547 
L 309.571829 288.985975 
L 309.839488 288.959646 
L 312.917572 288.948733 
L 313.118316 288.989126 
L 313.385976 288.963994 
L 313.921295 288.993907 
L 314.122039 288.931614 
L 315.393421 288.976654 
L 316.1964 288.957716 
L 316.865548 288.964274 
L 317.400867 288.919573 
L 317.601612 288.973028 
L 321.951077 288.962517 
L 322.218737 288.961223 
L 323.021715 288.974227 
L 325.16299 288.940872 
L 325.363735 288.987731 
L 325.631394 288.982685 
L 328.040329 288.990135 
L 328.241074 288.963558 
L 328.508733 288.99749 
L 328.843307 288.93926 
L 329.044052 288.978686 
L 329.244796 288.978961 
L 329.646286 288.981724 
L 329.913945 288.951535 
L 330.516179 288.989997 
L 330.783838 288.963037 
L 331.051498 288.98168 
L 331.319157 288.928311 
L 331.586816 288.992343 
L 333.795007 288.973571 
L 335.066389 288.937229 
L 335.267133 288.963364 
L 335.601708 288.937795 
L 335.802452 288.959906 
L 336.672345 288.975836 
L 337.676068 288.987899 
L 337.943728 288.990854 
L 338.679791 288.952201 
L 338.880536 288.983404 
L 339.34894 288.978784 
L 339.884258 288.967901 
L 340.553407 288.97585 
L 340.821066 288.992471 
L 342.159364 288.97186 
L 342.560853 288.958915 
L 342.828512 288.964015 
L 346.642659 288.957428 
L 348.047871 288.958403 
L 348.382445 288.974986 
L 353.601804 288.962493 
L 353.869463 288.982729 
L 357.415951 288.982015 
L 357.884355 288.976511 
L 358.821162 288.984633 
L 359.222652 288.959917 
L 362.635309 288.984787 
L 363.371373 288.947829 
L 363.973606 288.979843 
L 364.977329 288.987794 
L 369.594454 288.988418 
L 369.862114 288.967431 
L 370.196688 288.980123 
L 380.033172 288.9728 
L 380.434661 288.983157 
L 382.308277 288.982326 
L 384.851041 288.971192 
L 385.787849 288.967276 
L 386.122423 288.980036 
L 394.085291 288.968227 
L 394.286036 288.96839 
L 394.48678 288.85859 
L 394.553695 288.654285 
L 394.687525 288.923045 
L 395.022099 288.98394 
L 395.758163 288.974525 
L 396.360396 288.953033 
L 397.230289 288.97708 
L 399.17082 288.97525 
L 399.906884 288.978304 
L 400.977521 288.981272 
L 401.7805 288.970307 
L 402.181989 288.987576 
L 402.449648 288.961697 
L 403.051882 288.994414 
L 403.386456 288.982053 
L 404.055605 288.982686 
L 408.271241 288.987169 
L 412.486876 288.993609 
L 412.687621 288.987323 
L 413.892088 288.978062 
L 415.230385 288.984741 
L 415.631875 288.983936 
L 416.234108 288.978884 
L 416.501768 288.997364 
L 417.77315 288.987362 
L 419.780596 288.959727 
L 420.048255 288.965373 
L 420.516659 288.993819 
L 428.814101 288.972821 
L 429.21559 288.98336 
L 429.750909 288.988258 
L 429.750909 288.988258 
" style="fill:none;stroke:#1f77b4;stroke-linecap:square;stroke-width:1.5;"/>
   </g>
   <g id="patch_3">
    <path d="M 57.44 301.48 
L 57.44 26.88 
" style="fill:none;stroke:#000000;stroke-linecap:square;stroke-linejoin:miter;stroke-width:0.8;"/>
   </g>
   <g id="patch_4">
    <path d="M 447.48 301.48 
L 447.48 26.88 
" style="fill:none;stroke:#000000;stroke-linecap:square;stroke-linejoin:miter;stroke-width:0.8;"/>
   </g>
   <g id="patch_5">
    <path d="M 57.44 301.48 
L 447.48 301.48 
" style="fill:none;stroke:#000000;stroke-linecap:square;stroke-linejoin:miter;stroke-width:0.8;"/>
   </g>
   <g id="patch_6">
    <path d="M 57.44 26.88 
L 447.48 26.88 
" style="fill:none;stroke:#000000;stroke-linecap:square;stroke-linejoin:miter;stroke-width:0.8;"/>
   </g>
   <g id="text_14">
    <!-- FFT of ECG after 50Hz notch filter -->
    <defs>
     <path d="M 9.8125 72.90625 
L 51.703125 72.90625 
L 51.703125 64.59375 
L 19.671875 64.59375 
L 19.671875 43.109375 
L 48.578125 43.109375 
L 48.578125 34.8125 
L 19.671875 34.8125 
L 19.671875 0 
L 9.8125 0 
z
" id="DejaVuSans-46"/>
     <path d="M -0.296875 72.90625 
L 61.375 72.90625 
L 61.375 64.59375 
L 35.5 64.59375 
L 35.5 0 
L 25.59375 0 
L 25.59375 64.59375 
L -0.296875 64.59375 
z
" id="DejaVuSans-54"/>
     <path id="DejaVuSans-20"/>
     <path d="M 30.609375 48.390625 
Q 23.390625 48.390625 19.1875 42.75 
Q 14.984375 37.109375 14.984375 27.296875 
Q 14.984375 17.484375 19.15625 11.84375 
Q 23.34375 6.203125 30.609375 6.203125 
Q 37.796875 6.203125 41.984375 11.859375 
Q 46.1875 17.53125 46.1875 27.296875 
Q 46.1875 37.015625 41.984375 42.703125 
Q 37.796875 48.390625 30.609375 48.390625 
z
M 30.609375 56 
Q 42.328125 56 49.015625 48.375 
Q 55.71875 40.765625 55.71875 27.296875 
Q 55.71875 13.875 49.015625 6.21875 
Q 42.328125 -1.421875 30.609375 -1.421875 
Q 18.84375 -1.421875 12.171875 6.21875 
Q 5.515625 13.875 5.515625 27.296875 
Q 5.515625 40.765625 12.171875 48.375 
Q 18.84375 56 30.609375 56 
z
" id="DejaVuSans-6f"/>
     <path d="M 9.8125 72.90625 
L 55.90625 72.90625 
L 55.90625 64.59375 
L 19.671875 64.59375 
L 19.671875 43.015625 
L 54.390625 43.015625 
L 54.390625 34.71875 
L 19.671875 34.71875 
L 19.671875 8.296875 
L 56.78125 8.296875 
L 56.78125 0 
L 9.8125 0 
z
" id="DejaVuSans-45"/>
     <path d="M 64.40625 67.28125 
L 64.40625 56.890625 
Q 59.421875 61.53125 53.78125 63.8125 
Q 48.140625 66.109375 41.796875 66.109375 
Q 29.296875 66.109375 22.65625 58.46875 
Q 16.015625 50.828125 16.015625 36.375 
Q 16.015625 21.96875 22.65625 14.328125 
Q 29.296875 6.6875 41.796875 6.6875 
Q 48.140625 6.6875 53.78125 8.984375 
Q 59.421875 11.28125 64.40625 15.921875 
L 64.40625 5.609375 
Q 59.234375 2.09375 53.4375 0.328125 
Q 47.65625 -1.421875 41.21875 -1.421875 
Q 24.65625 -1.421875 15.125 8.703125 
Q 5.609375 18.84375 5.609375 36.375 
Q 5.609375 53.953125 15.125 64.078125 
Q 24.65625 74.21875 41.21875 74.21875 
Q 47.75 74.21875 53.53125 72.484375 
Q 59.328125 70.75 64.40625 67.28125 
z
" id="DejaVuSans-43"/>
     <path d="M 59.515625 10.40625 
L 59.515625 29.984375 
L 43.40625 29.984375 
L 43.40625 38.09375 
L 69.28125 38.09375 
L 69.28125 6.78125 
Q 63.578125 2.734375 56.6875 0.65625 
Q 49.8125 -1.421875 42 -1.421875 
Q 24.90625 -1.421875 15.25 8.5625 
Q 5.609375 18.5625 5.609375 36.375 
Q 5.609375 54.25 15.25 64.234375 
Q 24.90625 74.21875 42 74.21875 
Q 49.125 74.21875 55.546875 72.453125 
Q 61.96875 70.703125 67.390625 67.28125 
L 67.390625 56.78125 
Q 61.921875 61.421875 55.765625 63.765625 
Q 49.609375 66.109375 42.828125 66.109375 
Q 29.4375 66.109375 22.71875 58.640625 
Q 16.015625 51.171875 16.015625 36.375 
Q 16.015625 21.625 22.71875 14.15625 
Q 29.4375 6.6875 42.828125 6.6875 
Q 48.046875 6.6875 52.140625 7.59375 
Q 56.25 8.5 59.515625 10.40625 
z
" id="DejaVuSans-47"/>
     <path d="M 34.28125 27.484375 
Q 23.390625 27.484375 19.1875 25 
Q 14.984375 22.515625 14.984375 16.5 
Q 14.984375 11.71875 18.140625 8.90625 
Q 21.296875 6.109375 26.703125 6.109375 
Q 34.1875 6.109375 38.703125 11.40625 
Q 43.21875 16.703125 43.21875 25.484375 
L 43.21875 27.484375 
z
M 52.203125 31.203125 
L 52.203125 0 
L 43.21875 0 
L 43.21875 8.296875 
Q 40.140625 3.328125 35.546875 0.953125 
Q 30.953125 -1.421875 24.3125 -1.421875 
Q 15.921875 -1.421875 10.953125 3.296875 
Q 6 8.015625 6 15.921875 
Q 6 25.140625 12.171875 29.828125 
Q 18.359375 34.515625 30.609375 34.515625 
L 43.21875 34.515625 
L 43.21875 35.40625 
Q 43.21875 41.609375 39.140625 45 
Q 35.0625 48.390625 27.6875 48.390625 
Q 23 48.390625 18.546875 47.265625 
Q 14.109375 46.140625 10.015625 43.890625 
L 10.015625 52.203125 
Q 14.9375 54.109375 19.578125 55.046875 
Q 24.21875 56 28.609375 56 
Q 40.484375 56 46.34375 49.84375 
Q 52.203125 43.703125 52.203125 31.203125 
z
" id="DejaVuSans-61"/>
     <path d="M 54.890625 33.015625 
L 54.890625 0 
L 45.90625 0 
L 45.90625 32.71875 
Q 45.90625 40.484375 42.875 44.328125 
Q 39.84375 48.1875 33.796875 48.1875 
Q 26.515625 48.1875 22.3125 43.546875 
Q 18.109375 38.921875 18.109375 30.90625 
L 18.109375 0 
L 9.078125 0 
L 9.078125 75.984375 
L 18.109375 75.984375 
L 18.109375 46.1875 
Q 21.34375 51.125 25.703125 53.5625 
Q 30.078125 56 35.796875 56 
Q 45.21875 56 50.046875 50.171875 
Q 54.890625 44.34375 54.890625 33.015625 
z
" id="DejaVuSans-68"/>
    </defs>
    <g transform="translate(151.560625 20.88)scale(0.12 -0.12)">
     <use xlink:href="#DejaVuSans-46"/>
     <use x="57.519531" xlink:href="#DejaVuSans-46"/>
     <use x="115.023438" xlink:href="#DejaVuSans-54"/>
     <use x="176.107422" xlink:href="#DejaVuSans-20"/>
     <use x="207.894531" xlink:href="#DejaVuSans-6f"/>
     <use x="269.076172" xlink:href="#DejaVuSans-66"/>
     <use x="304.28125" xlink:href="#DejaVuSans-20"/>
     <use x="336.068359" xlink:href="#DejaVuSans-45"/>
     <use x="399.251953" xlink:href="#DejaVuSans-43"/>
     <use x="469.076172" xlink:href="#DejaVuSans-47"/>
     <use x="546.566406" xlink:href="#DejaVuSans-20"/>
     <use x="578.353516" xlink:href="#DejaVuSans-61"/>
     <use x="639.632812" xlink:href="#DejaVuSans-66"/>
     <use x="674.822266" xlink:href="#DejaVuSans-74"/>
     <use x="714.03125" xlink:href="#DejaVuSans-65"/>
     <use x="775.554688" xlink:href="#DejaVuSans-72"/>
     <use x="816.667969" xlink:href="#DejaVuSans-20"/>
     <use x="848.455078" xlink:href="#DejaVuSans-35"/>
     <use x="912.078125" xlink:href="#DejaVuSans-30"/>
     <use x="975.701172" xlink:href="#DejaVuSans-48"/>
     <use x="1050.896484" xlink:href="#DejaVuSans-7a"/>
     <use x="1103.386719" xlink:href="#DejaVuSans-20"/>
     <use x="1135.173828" xlink:href="#DejaVuSans-6e"/>
     <use x="1198.552734" xlink:href="#DejaVuSans-6f"/>
     <use x="1259.734375" xlink:href="#DejaVuSans-74"/>
     <use x="1298.943359" xlink:href="#DejaVuSans-63"/>
     <use x="1353.923828" xlink:href="#DejaVuSans-68"/>
     <use x="1417.302734" xlink:href="#DejaVuSans-20"/>
     <use x="1449.089844" xlink:href="#DejaVuSans-66"/>
     <use x="1484.294922" xlink:href="#DejaVuSans-69"/>
     <use x="1512.078125" xlink:href="#DejaVuSans-6c"/>
     <use x="1539.861328" xlink:href="#DejaVuSans-74"/>
     <use x="1579.070312" xlink:href="#DejaVuSans-65"/>
     <use x="1640.59375" xlink:href="#DejaVuSans-72"/>
    </g>
   </g>
  </g>
 </g>
 <defs>
  <clipPath id="p158fb73a2a">
   <rect height="274.6" width="390.04" x="57.44" y="26.88"/>
  </clipPath>
 </defs>
</svg>
