<?xml version="1.0" encoding="UTF-8" standalone="no"?>
<!-- Created with matplotlib (http://matplotlib.org/) -->

<svg
   xmlns:dc="http://purl.org/dc/elements/1.1/"
   xmlns:cc="http://creativecommons.org/ns#"
   xmlns:rdf="http://www.w3.org/1999/02/22-rdf-syntax-ns#"
   xmlns:svg="http://www.w3.org/2000/svg"
   xmlns="http://www.w3.org/2000/svg"
   xmlns:xlink="http://www.w3.org/1999/xlink"
   xmlns:sodipodi="http://sodipodi.sourceforge.net/DTD/sodipodi-0.dtd"
   xmlns:inkscape="http://www.inkscape.org/namespaces/inkscape"
   height="343pt"
   version="1.1"
   viewBox="0 0 460 343"
   width="460pt"
   id="svg1872"
   sodipodi:docname="Q531.svg"
   inkscape:version="0.92.2 (5c3e80d, 2017-08-06)">
  <metadata
     id="metadata1876">
    <rdf:RDF>
      <cc:Work
         rdf:about="">
        <dc:format>image/svg+xml</dc:format>
        <dc:type
           rdf:resource="http://purl.org/dc/dcmitype/StillImage" />
        <dc:title></dc:title>
      </cc:Work>
    </rdf:RDF>
  </metadata>
  <sodipodi:namedview
     pagecolor="#ffffff"
     bordercolor="#666666"
     borderopacity="1"
     objecttolerance="10"
     gridtolerance="10"
     guidetolerance="10"
     inkscape:pageopacity="0"
     inkscape:pageshadow="2"
     inkscape:window-width="1366"
     inkscape:window-height="705"
     id="namedview1874"
     showgrid="false"
     inkscape:zoom="1.03207"
     inkscape:cx="327.01412"
     inkscape:cy="228.66667"
     inkscape:window-x="-8"
     inkscape:window-y="-8"
     inkscape:window-maximized="1"
     inkscape:current-layer="svg1872" />
  <defs
     id="defs1414">
    <style
       type="text/css"
       id="style1412">
*{stroke-linecap:butt;stroke-linejoin:round;}
  </style>
  </defs>
  <g
     id="figure_1">
    <g
       id="patch_1">
      <path
         d="M 0 343.44  L 460.8 343.44  L 460.8 0  L 0 0  z "
         style="fill:#ffffff;"
         id="path1416" />
    </g>
    <g
       id="axes_1">
      <g
         id="patch_2">
        <path
           d="M 62.57 301.48  L 447.48 301.48  L 447.48 26.88  L 62.57 26.88  z "
           style="fill:#ffffff;"
           id="path1419" />
      </g>
      <g
         id="matplotlib.axis_1">
        <g
           id="xtick_1">
          <g
             id="line2d_1">
            <path
               clip-path="url(#p090cb1e8b3)"
               d="M 80.065909 301.48  L 80.065909 26.88  "
               style="fill:none;stroke:#b0b0b0;stroke-linecap:square;stroke-width:0.8;"
               id="path1422" />
          </g>
          <g
             id="line2d_2">
            <defs
               id="defs1426">
              <path
                 d="M 0 0  L 0 3.5  "
                 id="mb0a0235a10"
                 style="stroke:#000000;stroke-width:0.8;" />
            </defs>
            <g
               id="g1430">
              <use
                 style="stroke:#000000;stroke-width:0.8;"
                 x="80.065909"
                 xlink:href="#mb0a0235a10"
                 y="301.48"
                 id="use1428" />
            </g>
          </g>
          <g
             id="text_1">
            <!-- 0 -->
            <defs
               id="defs1434">
              <path
                 d="M 31.78125 66.40625  Q 24.171875 66.40625 20.328125 58.90625  Q 16.5 51.421875 16.5 36.375  Q 16.5 21.390625 20.328125 13.890625  Q 24.171875 6.390625 31.78125 6.390625  Q 39.453125 6.390625 43.28125 13.890625  Q 47.125 21.390625 47.125 36.375  Q 47.125 51.421875 43.28125 58.90625  Q 39.453125 66.40625 31.78125 66.40625  z M 31.78125 74.21875  Q 44.046875 74.21875 50.515625 64.515625  Q 56.984375 54.828125 56.984375 36.375  Q 56.984375 17.96875 50.515625 8.265625  Q 44.046875 -1.421875 31.78125 -1.421875  Q 19.53125 -1.421875 13.0625 8.265625  Q 6.59375 17.96875 6.59375 36.375  Q 6.59375 54.828125 13.0625 64.515625  Q 19.53125 74.21875 31.78125 74.21875  z "
                 id="DejaVuSans-30" />
            </defs>
            <g
               transform="translate(76.884659 316.078437)scale(0.1 -0.1)"
               id="g1438">
              <use
                 xlink:href="#DejaVuSans-30"
                 id="use1436" />
            </g>
          </g>
        </g>
        <g
           id="xtick_2">
          <g
             id="line2d_3">
            <path
               clip-path="url(#p090cb1e8b3)"
               d="M 146.213013 301.48  L 146.213013 26.88  "
               style="fill:none;stroke:#b0b0b0;stroke-linecap:square;stroke-width:0.8;"
               id="path1442" />
          </g>
          <g
             id="line2d_4">
            <g
               id="g1447">
              <use
                 style="stroke:#000000;stroke-width:0.8;"
                 x="146.213013"
                 xlink:href="#mb0a0235a10"
                 y="301.48"
                 id="use1445" />
            </g>
          </g>
          <g
             id="text_2">
            <!-- 100 -->
            <defs
               id="defs1451">
              <path
                 d="M 12.40625 8.296875  L 28.515625 8.296875  L 28.515625 63.921875  L 10.984375 60.40625  L 10.984375 69.390625  L 28.421875 72.90625  L 38.28125 72.90625  L 38.28125 8.296875  L 54.390625 8.296875  L 54.390625 0  L 12.40625 0  z "
                 id="DejaVuSans-31" />
            </defs>
            <g
               transform="translate(136.669263 316.078437)scale(0.1 -0.1)"
               id="g1459">
              <use
                 xlink:href="#DejaVuSans-31"
                 id="use1453" />
              <use
                 x="63.623047"
                 xlink:href="#DejaVuSans-30"
                 id="use1455" />
              <use
                 x="127.246094"
                 xlink:href="#DejaVuSans-30"
                 id="use1457" />
            </g>
          </g>
        </g>
        <g
           id="xtick_3">
          <g
             id="line2d_5">
            <path
               clip-path="url(#p090cb1e8b3)"
               d="M 212.360118 301.48  L 212.360118 26.88  "
               style="fill:none;stroke:#b0b0b0;stroke-linecap:square;stroke-width:0.8;"
               id="path1463" />
          </g>
          <g
             id="line2d_6">
            <g
               id="g1468">
              <use
                 style="stroke:#000000;stroke-width:0.8;"
                 x="212.360118"
                 xlink:href="#mb0a0235a10"
                 y="301.48"
                 id="use1466" />
            </g>
          </g>
          <g
             id="text_3">
            <!-- 200 -->
            <defs
               id="defs1472">
              <path
                 d="M 19.1875 8.296875  L 53.609375 8.296875  L 53.609375 0  L 7.328125 0  L 7.328125 8.296875  Q 12.9375 14.109375 22.625 23.890625  Q 32.328125 33.6875 34.8125 36.53125  Q 39.546875 41.84375 41.421875 45.53125  Q 43.3125 49.21875 43.3125 52.78125  Q 43.3125 58.59375 39.234375 62.25  Q 35.15625 65.921875 28.609375 65.921875  Q 23.96875 65.921875 18.8125 64.3125  Q 13.671875 62.703125 7.8125 59.421875  L 7.8125 69.390625  Q 13.765625 71.78125 18.9375 73  Q 24.125 74.21875 28.421875 74.21875  Q 39.75 74.21875 46.484375 68.546875  Q 53.21875 62.890625 53.21875 53.421875  Q 53.21875 48.921875 51.53125 44.890625  Q 49.859375 40.875 45.40625 35.40625  Q 44.1875 33.984375 37.640625 27.21875  Q 31.109375 20.453125 19.1875 8.296875  z "
                 id="DejaVuSans-32" />
            </defs>
            <g
               transform="translate(202.816368 316.078437)scale(0.1 -0.1)"
               id="g1480">
              <use
                 xlink:href="#DejaVuSans-32"
                 id="use1474" />
              <use
                 x="63.623047"
                 xlink:href="#DejaVuSans-30"
                 id="use1476" />
              <use
                 x="127.246094"
                 xlink:href="#DejaVuSans-30"
                 id="use1478" />
            </g>
          </g>
        </g>
        <g
           id="xtick_4">
          <g
             id="line2d_7">
            <path
               clip-path="url(#p090cb1e8b3)"
               d="M 278.507222 301.48  L 278.507222 26.88  "
               style="fill:none;stroke:#b0b0b0;stroke-linecap:square;stroke-width:0.8;"
               id="path1484" />
          </g>
          <g
             id="line2d_8">
            <g
               id="g1489">
              <use
                 style="stroke:#000000;stroke-width:0.8;"
                 x="278.507222"
                 xlink:href="#mb0a0235a10"
                 y="301.48"
                 id="use1487" />
            </g>
          </g>
          <g
             id="text_4">
            <!-- 300 -->
            <defs
               id="defs1493">
              <path
                 d="M 40.578125 39.3125  Q 47.65625 37.796875 51.625 33  Q 55.609375 28.21875 55.609375 21.1875  Q 55.609375 10.40625 48.1875 4.484375  Q 40.765625 -1.421875 27.09375 -1.421875  Q 22.515625 -1.421875 17.65625 -0.515625  Q 12.796875 0.390625 7.625 2.203125  L 7.625 11.71875  Q 11.71875 9.328125 16.59375 8.109375  Q 21.484375 6.890625 26.8125 6.890625  Q 36.078125 6.890625 40.9375 10.546875  Q 45.796875 14.203125 45.796875 21.1875  Q 45.796875 27.640625 41.28125 31.265625  Q 36.765625 34.90625 28.71875 34.90625  L 20.21875 34.90625  L 20.21875 43.015625  L 29.109375 43.015625  Q 36.375 43.015625 40.234375 45.921875  Q 44.09375 48.828125 44.09375 54.296875  Q 44.09375 59.90625 40.109375 62.90625  Q 36.140625 65.921875 28.71875 65.921875  Q 24.65625 65.921875 20.015625 65.03125  Q 15.375 64.15625 9.8125 62.3125  L 9.8125 71.09375  Q 15.4375 72.65625 20.34375 73.4375  Q 25.25 74.21875 29.59375 74.21875  Q 40.828125 74.21875 47.359375 69.109375  Q 53.90625 64.015625 53.90625 55.328125  Q 53.90625 49.265625 50.4375 45.09375  Q 46.96875 40.921875 40.578125 39.3125  z "
                 id="DejaVuSans-33" />
            </defs>
            <g
               transform="translate(268.963472 316.078437)scale(0.1 -0.1)"
               id="g1501">
              <use
                 xlink:href="#DejaVuSans-33"
                 id="use1495" />
              <use
                 x="63.623047"
                 xlink:href="#DejaVuSans-30"
                 id="use1497" />
              <use
                 x="127.246094"
                 xlink:href="#DejaVuSans-30"
                 id="use1499" />
            </g>
          </g>
        </g>
        <g
           id="xtick_5">
          <g
             id="line2d_9">
            <path
               clip-path="url(#p090cb1e8b3)"
               d="M 344.654326 301.48  L 344.654326 26.88  "
               style="fill:none;stroke:#b0b0b0;stroke-linecap:square;stroke-width:0.8;"
               id="path1505" />
          </g>
          <g
             id="line2d_10">
            <g
               id="g1510">
              <use
                 style="stroke:#000000;stroke-width:0.8;"
                 x="344.654326"
                 xlink:href="#mb0a0235a10"
                 y="301.48"
                 id="use1508" />
            </g>
          </g>
          <g
             id="text_5">
            <!-- 400 -->
            <defs
               id="defs1514">
              <path
                 d="M 37.796875 64.3125  L 12.890625 25.390625  L 37.796875 25.390625  z M 35.203125 72.90625  L 47.609375 72.90625  L 47.609375 25.390625  L 58.015625 25.390625  L 58.015625 17.1875  L 47.609375 17.1875  L 47.609375 0  L 37.796875 0  L 37.796875 17.1875  L 4.890625 17.1875  L 4.890625 26.703125  z "
                 id="DejaVuSans-34" />
            </defs>
            <g
               transform="translate(335.110576 316.078437)scale(0.1 -0.1)"
               id="g1522">
              <use
                 xlink:href="#DejaVuSans-34"
                 id="use1516" />
              <use
                 x="63.623047"
                 xlink:href="#DejaVuSans-30"
                 id="use1518" />
              <use
                 x="127.246094"
                 xlink:href="#DejaVuSans-30"
                 id="use1520" />
            </g>
          </g>
        </g>
        <g
           id="xtick_6">
          <g
             id="line2d_11">
            <path
               clip-path="url(#p090cb1e8b3)"
               d="M 410.801431 301.48  L 410.801431 26.88  "
               style="fill:none;stroke:#b0b0b0;stroke-linecap:square;stroke-width:0.8;"
               id="path1526" />
          </g>
          <g
             id="line2d_12">
            <g
               id="g1531">
              <use
                 style="stroke:#000000;stroke-width:0.8;"
                 x="410.801431"
                 xlink:href="#mb0a0235a10"
                 y="301.48"
                 id="use1529" />
            </g>
          </g>
          <g
             id="text_6">
            <!-- 500 -->
            <defs
               id="defs1535">
              <path
                 d="M 10.796875 72.90625  L 49.515625 72.90625  L 49.515625 64.59375  L 19.828125 64.59375  L 19.828125 46.734375  Q 21.96875 47.46875 24.109375 47.828125  Q 26.265625 48.1875 28.421875 48.1875  Q 40.625 48.1875 47.75 41.5  Q 54.890625 34.8125 54.890625 23.390625  Q 54.890625 11.625 47.5625 5.09375  Q 40.234375 -1.421875 26.90625 -1.421875  Q 22.3125 -1.421875 17.546875 -0.640625  Q 12.796875 0.140625 7.71875 1.703125  L 7.71875 11.625  Q 12.109375 9.234375 16.796875 8.0625  Q 21.484375 6.890625 26.703125 6.890625  Q 35.15625 6.890625 40.078125 11.328125  Q 45.015625 15.765625 45.015625 23.390625  Q 45.015625 31 40.078125 35.4375  Q 35.15625 39.890625 26.703125 39.890625  Q 22.75 39.890625 18.8125 39.015625  Q 14.890625 38.140625 10.796875 36.28125  z "
                 id="DejaVuSans-35" />
            </defs>
            <g
               transform="translate(401.257681 316.078437)scale(0.1 -0.1)"
               id="g1543">
              <use
                 xlink:href="#DejaVuSans-35"
                 id="use1537" />
              <use
                 x="63.623047"
                 xlink:href="#DejaVuSans-30"
                 id="use1539" />
              <use
                 x="127.246094"
                 xlink:href="#DejaVuSans-30"
                 id="use1541" />
            </g>
          </g>
        </g>
        <g
           id="text_7">
          <!-- time(ms) -->
          <defs
             id="defs1554">
            <path
               d="M 18.3125 70.21875  L 18.3125 54.6875  L 36.8125 54.6875  L 36.8125 47.703125  L 18.3125 47.703125  L 18.3125 18.015625  Q 18.3125 11.328125 20.140625 9.421875  Q 21.96875 7.515625 27.59375 7.515625  L 36.8125 7.515625  L 36.8125 0  L 27.59375 0  Q 17.1875 0 13.234375 3.875  Q 9.28125 7.765625 9.28125 18.015625  L 9.28125 47.703125  L 2.6875 47.703125  L 2.6875 54.6875  L 9.28125 54.6875  L 9.28125 70.21875  z "
               id="DejaVuSans-74" />
            <path
               d="M 9.421875 54.6875  L 18.40625 54.6875  L 18.40625 0  L 9.421875 0  z M 9.421875 75.984375  L 18.40625 75.984375  L 18.40625 64.59375  L 9.421875 64.59375  z "
               id="DejaVuSans-69" />
            <path
               d="M 52 44.1875  Q 55.375 50.25 60.0625 53.125  Q 64.75 56 71.09375 56  Q 79.640625 56 84.28125 50.015625  Q 88.921875 44.046875 88.921875 33.015625  L 88.921875 0  L 79.890625 0  L 79.890625 32.71875  Q 79.890625 40.578125 77.09375 44.375  Q 74.3125 48.1875 68.609375 48.1875  Q 61.625 48.1875 57.5625 43.546875  Q 53.515625 38.921875 53.515625 30.90625  L 53.515625 0  L 44.484375 0  L 44.484375 32.71875  Q 44.484375 40.625 41.703125 44.40625  Q 38.921875 48.1875 33.109375 48.1875  Q 26.21875 48.1875 22.15625 43.53125  Q 18.109375 38.875 18.109375 30.90625  L 18.109375 0  L 9.078125 0  L 9.078125 54.6875  L 18.109375 54.6875  L 18.109375 46.1875  Q 21.1875 51.21875 25.484375 53.609375  Q 29.78125 56 35.6875 56  Q 41.65625 56 45.828125 52.96875  Q 50 49.953125 52 44.1875  z "
               id="DejaVuSans-6d" />
            <path
               d="M 56.203125 29.59375  L 56.203125 25.203125  L 14.890625 25.203125  Q 15.484375 15.921875 20.484375 11.0625  Q 25.484375 6.203125 34.421875 6.203125  Q 39.59375 6.203125 44.453125 7.46875  Q 49.3125 8.734375 54.109375 11.28125  L 54.109375 2.78125  Q 49.265625 0.734375 44.1875 -0.34375  Q 39.109375 -1.421875 33.890625 -1.421875  Q 20.796875 -1.421875 13.15625 6.1875  Q 5.515625 13.8125 5.515625 26.8125  Q 5.515625 40.234375 12.765625 48.109375  Q 20.015625 56 32.328125 56  Q 43.359375 56 49.78125 48.890625  Q 56.203125 41.796875 56.203125 29.59375  z M 47.21875 32.234375  Q 47.125 39.59375 43.09375 43.984375  Q 39.0625 48.390625 32.421875 48.390625  Q 24.90625 48.390625 20.390625 44.140625  Q 15.875 39.890625 15.1875 32.171875  z "
               id="DejaVuSans-65" />
            <path
               d="M 31 75.875  Q 24.46875 64.65625 21.28125 53.65625  Q 18.109375 42.671875 18.109375 31.390625  Q 18.109375 20.125 21.3125 9.0625  Q 24.515625 -2 31 -13.1875  L 23.1875 -13.1875  Q 15.875 -1.703125 12.234375 9.375  Q 8.59375 20.453125 8.59375 31.390625  Q 8.59375 42.28125 12.203125 53.3125  Q 15.828125 64.359375 23.1875 75.875  z "
               id="DejaVuSans-28" />
            <path
               d="M 44.28125 53.078125  L 44.28125 44.578125  Q 40.484375 46.53125 36.375 47.5  Q 32.28125 48.484375 27.875 48.484375  Q 21.1875 48.484375 17.84375 46.4375  Q 14.5 44.390625 14.5 40.28125  Q 14.5 37.15625 16.890625 35.375  Q 19.28125 33.59375 26.515625 31.984375  L 29.59375 31.296875  Q 39.15625 29.25 43.1875 25.515625  Q 47.21875 21.78125 47.21875 15.09375  Q 47.21875 7.46875 41.1875 3.015625  Q 35.15625 -1.421875 24.609375 -1.421875  Q 20.21875 -1.421875 15.453125 -0.5625  Q 10.6875 0.296875 5.421875 2  L 5.421875 11.28125  Q 10.40625 8.6875 15.234375 7.390625  Q 20.0625 6.109375 24.8125 6.109375  Q 31.15625 6.109375 34.5625 8.28125  Q 37.984375 10.453125 37.984375 14.40625  Q 37.984375 18.0625 35.515625 20.015625  Q 33.0625 21.96875 24.703125 23.78125  L 21.578125 24.515625  Q 13.234375 26.265625 9.515625 29.90625  Q 5.8125 33.546875 5.8125 39.890625  Q 5.8125 47.609375 11.28125 51.796875  Q 16.75 56 26.8125 56  Q 31.78125 56 36.171875 55.265625  Q 40.578125 54.546875 44.28125 53.078125  z "
               id="DejaVuSans-73" />
            <path
               d="M 8.015625 75.875  L 15.828125 75.875  Q 23.140625 64.359375 26.78125 53.3125  Q 30.421875 42.28125 30.421875 31.390625  Q 30.421875 20.453125 26.78125 9.375  Q 23.140625 -1.703125 15.828125 -13.1875  L 8.015625 -13.1875  Q 14.5 -2 17.703125 9.0625  Q 20.90625 20.125 20.90625 31.390625  Q 20.90625 42.671875 17.703125 53.65625  Q 14.5 64.65625 8.015625 75.875  z "
               id="DejaVuSans-29" />
          </defs>
          <g
             transform="translate(232.352344 329.756562)scale(0.1 -0.1)"
             id="g1572">
            <use
               xlink:href="#DejaVuSans-74"
               id="use1556" />
            <use
               x="39.208984"
               xlink:href="#DejaVuSans-69"
               id="use1558" />
            <use
               x="66.992188"
               xlink:href="#DejaVuSans-6d"
               id="use1560" />
            <use
               x="164.404297"
               xlink:href="#DejaVuSans-65"
               id="use1562" />
            <use
               x="225.927734"
               xlink:href="#DejaVuSans-28"
               id="use1564" />
            <use
               x="264.941406"
               xlink:href="#DejaVuSans-6d"
               id="use1566" />
            <use
               x="362.353516"
               xlink:href="#DejaVuSans-73"
               id="use1568" />
            <use
               x="414.453125"
               xlink:href="#DejaVuSans-29"
               id="use1570" />
          </g>
        </g>
      </g>
      <g
         id="matplotlib.axis_2">
        <g
           id="ytick_1">
          <g
             id="line2d_13">
            <path
               clip-path="url(#p090cb1e8b3)"
               d="M 62.57 298.688655  L 447.48 298.688655  "
               style="fill:none;stroke:#b0b0b0;stroke-linecap:square;stroke-width:0.8;"
               id="path1576" />
          </g>
          <g
             id="line2d_14">
            <defs
               id="defs1580">
              <path
                 d="M 0 0  L -3.5 0  "
                 id="m2d27c08a20"
                 style="stroke:#000000;stroke-width:0.8;" />
            </defs>
            <g
               id="g1584">
              <use
                 style="stroke:#000000;stroke-width:0.8;"
                 x="62.57"
                 xlink:href="#m2d27c08a20"
                 y="298.688655"
                 id="use1582" />
            </g>
          </g>
          <g
             id="text_8">
            <!-- −0.75 -->
            <defs
               id="defs1590">
              <path
                 d="M 10.59375 35.5  L 73.1875 35.5  L 73.1875 27.203125  L 10.59375 27.203125  z "
                 id="DejaVuSans-2212" />
              <path
                 d="M 10.6875 12.40625  L 21 12.40625  L 21 0  L 10.6875 0  z "
                 id="DejaVuSans-2e" />
              <path
                 d="M 8.203125 72.90625  L 55.078125 72.90625  L 55.078125 68.703125  L 28.609375 0  L 18.3125 0  L 43.21875 64.59375  L 8.203125 64.59375  z "
                 id="DejaVuSans-37" />
            </defs>
            <g
               transform="translate(24.924688 302.487874)scale(0.1 -0.1)"
               id="g1602">
              <use
                 xlink:href="#DejaVuSans-2212"
                 id="use1592" />
              <use
                 x="83.789062"
                 xlink:href="#DejaVuSans-30"
                 id="use1594" />
              <use
                 x="147.412109"
                 xlink:href="#DejaVuSans-2e"
                 id="use1596" />
              <use
                 x="179.199219"
                 xlink:href="#DejaVuSans-37"
                 id="use1598" />
              <use
                 x="242.822266"
                 xlink:href="#DejaVuSans-35"
                 id="use1600" />
            </g>
          </g>
        </g>
        <g
           id="ytick_2">
          <g
             id="line2d_15">
            <path
               clip-path="url(#p090cb1e8b3)"
               d="M 62.57 267.154572  L 447.48 267.154572  "
               style="fill:none;stroke:#b0b0b0;stroke-linecap:square;stroke-width:0.8;"
               id="path1606" />
          </g>
          <g
             id="line2d_16">
            <g
               id="g1611">
              <use
                 style="stroke:#000000;stroke-width:0.8;"
                 x="62.57"
                 xlink:href="#m2d27c08a20"
                 y="267.154572"
                 id="use1609" />
            </g>
          </g>
          <g
             id="text_9">
            <!-- −0.50 -->
            <g
               transform="translate(24.924688 270.953791)scale(0.1 -0.1)"
               id="g1624">
              <use
                 xlink:href="#DejaVuSans-2212"
                 id="use1614" />
              <use
                 x="83.789062"
                 xlink:href="#DejaVuSans-30"
                 id="use1616" />
              <use
                 x="147.412109"
                 xlink:href="#DejaVuSans-2e"
                 id="use1618" />
              <use
                 x="179.199219"
                 xlink:href="#DejaVuSans-35"
                 id="use1620" />
              <use
                 x="242.822266"
                 xlink:href="#DejaVuSans-30"
                 id="use1622" />
            </g>
          </g>
        </g>
        <g
           id="ytick_3">
          <g
             id="line2d_17">
            <path
               clip-path="url(#p090cb1e8b3)"
               d="M 62.57 235.620489  L 447.48 235.620489  "
               style="fill:none;stroke:#b0b0b0;stroke-linecap:square;stroke-width:0.8;"
               id="path1628" />
          </g>
          <g
             id="line2d_18">
            <g
               id="g1633">
              <use
                 style="stroke:#000000;stroke-width:0.8;"
                 x="62.57"
                 xlink:href="#m2d27c08a20"
                 y="235.620489"
                 id="use1631" />
            </g>
          </g>
          <g
             id="text_10">
            <!-- −0.25 -->
            <g
               transform="translate(24.924688 239.419707)scale(0.1 -0.1)"
               id="g1646">
              <use
                 xlink:href="#DejaVuSans-2212"
                 id="use1636" />
              <use
                 x="83.789062"
                 xlink:href="#DejaVuSans-30"
                 id="use1638" />
              <use
                 x="147.412109"
                 xlink:href="#DejaVuSans-2e"
                 id="use1640" />
              <use
                 x="179.199219"
                 xlink:href="#DejaVuSans-32"
                 id="use1642" />
              <use
                 x="242.822266"
                 xlink:href="#DejaVuSans-35"
                 id="use1644" />
            </g>
          </g>
        </g>
        <g
           id="ytick_4">
          <g
             id="line2d_19">
            <path
               clip-path="url(#p090cb1e8b3)"
               d="M 62.57 204.086405  L 447.48 204.086405  "
               style="fill:none;stroke:#b0b0b0;stroke-linecap:square;stroke-width:0.8;"
               id="path1650" />
          </g>
          <g
             id="line2d_20">
            <g
               id="g1655">
              <use
                 style="stroke:#000000;stroke-width:0.8;"
                 x="62.57"
                 xlink:href="#m2d27c08a20"
                 y="204.086405"
                 id="use1653" />
            </g>
          </g>
          <g
             id="text_11">
            <!-- 0.00 -->
            <g
               transform="translate(33.304375 207.885624)scale(0.1 -0.1)"
               id="g1666">
              <use
                 xlink:href="#DejaVuSans-30"
                 id="use1658" />
              <use
                 x="63.623047"
                 xlink:href="#DejaVuSans-2e"
                 id="use1660" />
              <use
                 x="95.410156"
                 xlink:href="#DejaVuSans-30"
                 id="use1662" />
              <use
                 x="159.033203"
                 xlink:href="#DejaVuSans-30"
                 id="use1664" />
            </g>
          </g>
        </g>
        <g
           id="ytick_5">
          <g
             id="line2d_21">
            <path
               clip-path="url(#p090cb1e8b3)"
               d="M 62.57 172.552322  L 447.48 172.552322  "
               style="fill:none;stroke:#b0b0b0;stroke-linecap:square;stroke-width:0.8;"
               id="path1670" />
          </g>
          <g
             id="line2d_22">
            <g
               id="g1675">
              <use
                 style="stroke:#000000;stroke-width:0.8;"
                 x="62.57"
                 xlink:href="#m2d27c08a20"
                 y="172.552322"
                 id="use1673" />
            </g>
          </g>
          <g
             id="text_12">
            <!-- 0.25 -->
            <g
               transform="translate(33.304375 176.35154)scale(0.1 -0.1)"
               id="g1686">
              <use
                 xlink:href="#DejaVuSans-30"
                 id="use1678" />
              <use
                 x="63.623047"
                 xlink:href="#DejaVuSans-2e"
                 id="use1680" />
              <use
                 x="95.410156"
                 xlink:href="#DejaVuSans-32"
                 id="use1682" />
              <use
                 x="159.033203"
                 xlink:href="#DejaVuSans-35"
                 id="use1684" />
            </g>
          </g>
        </g>
        <g
           id="ytick_6">
          <g
             id="line2d_23">
            <path
               clip-path="url(#p090cb1e8b3)"
               d="M 62.57 141.018238  L 447.48 141.018238  "
               style="fill:none;stroke:#b0b0b0;stroke-linecap:square;stroke-width:0.8;"
               id="path1690" />
          </g>
          <g
             id="line2d_24">
            <g
               id="g1695">
              <use
                 style="stroke:#000000;stroke-width:0.8;"
                 x="62.57"
                 xlink:href="#m2d27c08a20"
                 y="141.018238"
                 id="use1693" />
            </g>
          </g>
          <g
             id="text_13">
            <!-- 0.50 -->
            <g
               transform="translate(33.304375 144.817457)scale(0.1 -0.1)"
               id="g1706">
              <use
                 xlink:href="#DejaVuSans-30"
                 id="use1698" />
              <use
                 x="63.623047"
                 xlink:href="#DejaVuSans-2e"
                 id="use1700" />
              <use
                 x="95.410156"
                 xlink:href="#DejaVuSans-35"
                 id="use1702" />
              <use
                 x="159.033203"
                 xlink:href="#DejaVuSans-30"
                 id="use1704" />
            </g>
          </g>
        </g>
        <g
           id="ytick_7">
          <g
             id="line2d_25">
            <path
               clip-path="url(#p090cb1e8b3)"
               d="M 62.57 109.484155  L 447.48 109.484155  "
               style="fill:none;stroke:#b0b0b0;stroke-linecap:square;stroke-width:0.8;"
               id="path1710" />
          </g>
          <g
             id="line2d_26">
            <g
               id="g1715">
              <use
                 style="stroke:#000000;stroke-width:0.8;"
                 x="62.57"
                 xlink:href="#m2d27c08a20"
                 y="109.484155"
                 id="use1713" />
            </g>
          </g>
          <g
             id="text_14">
            <!-- 0.75 -->
            <g
               transform="translate(33.304375 113.283374)scale(0.1 -0.1)"
               id="g1726">
              <use
                 xlink:href="#DejaVuSans-30"
                 id="use1718" />
              <use
                 x="63.623047"
                 xlink:href="#DejaVuSans-2e"
                 id="use1720" />
              <use
                 x="95.410156"
                 xlink:href="#DejaVuSans-37"
                 id="use1722" />
              <use
                 x="159.033203"
                 xlink:href="#DejaVuSans-35"
                 id="use1724" />
            </g>
          </g>
        </g>
        <g
           id="ytick_8">
          <g
             id="line2d_27">
            <path
               clip-path="url(#p090cb1e8b3)"
               d="M 62.57 77.950071  L 447.48 77.950071  "
               style="fill:none;stroke:#b0b0b0;stroke-linecap:square;stroke-width:0.8;"
               id="path1730" />
          </g>
          <g
             id="line2d_28">
            <g
               id="g1735">
              <use
                 style="stroke:#000000;stroke-width:0.8;"
                 x="62.57"
                 xlink:href="#m2d27c08a20"
                 y="77.950071"
                 id="use1733" />
            </g>
          </g>
          <g
             id="text_15">
            <!-- 1.00 -->
            <g
               transform="translate(33.304375 81.74929)scale(0.1 -0.1)"
               id="g1746">
              <use
                 xlink:href="#DejaVuSans-31"
                 id="use1738" />
              <use
                 x="63.623047"
                 xlink:href="#DejaVuSans-2e"
                 id="use1740" />
              <use
                 x="95.410156"
                 xlink:href="#DejaVuSans-30"
                 id="use1742" />
              <use
                 x="159.033203"
                 xlink:href="#DejaVuSans-30"
                 id="use1744" />
            </g>
          </g>
        </g>
        <g
           id="ytick_9">
          <g
             id="line2d_29">
            <path
               clip-path="url(#p090cb1e8b3)"
               d="M 62.57 46.415988  L 447.48 46.415988  "
               style="fill:none;stroke:#b0b0b0;stroke-linecap:square;stroke-width:0.8;"
               id="path1750" />
          </g>
          <g
             id="line2d_30">
            <g
               id="g1755">
              <use
                 style="stroke:#000000;stroke-width:0.8;"
                 x="62.57"
                 xlink:href="#m2d27c08a20"
                 y="46.415988"
                 id="use1753" />
            </g>
          </g>
          <g
             id="text_16">
            <!-- 1.25 -->
            <g
               transform="translate(33.304375 50.215207)scale(0.1 -0.1)"
               id="g1766">
              <use
                 xlink:href="#DejaVuSans-31"
                 id="use1758" />
              <use
                 x="63.623047"
                 xlink:href="#DejaVuSans-2e"
                 id="use1760" />
              <use
                 x="95.410156"
                 xlink:href="#DejaVuSans-32"
                 id="use1762" />
              <use
                 x="159.033203"
                 xlink:href="#DejaVuSans-35"
                 id="use1764" />
            </g>
          </g>
        </g>
        <g
           id="text_17">
          <!-- amplitude -->
          <defs
             id="defs1775">
            <path
               d="M 34.28125 27.484375  Q 23.390625 27.484375 19.1875 25  Q 14.984375 22.515625 14.984375 16.5  Q 14.984375 11.71875 18.140625 8.90625  Q 21.296875 6.109375 26.703125 6.109375  Q 34.1875 6.109375 38.703125 11.40625  Q 43.21875 16.703125 43.21875 25.484375  L 43.21875 27.484375  z M 52.203125 31.203125  L 52.203125 0  L 43.21875 0  L 43.21875 8.296875  Q 40.140625 3.328125 35.546875 0.953125  Q 30.953125 -1.421875 24.3125 -1.421875  Q 15.921875 -1.421875 10.953125 3.296875  Q 6 8.015625 6 15.921875  Q 6 25.140625 12.171875 29.828125  Q 18.359375 34.515625 30.609375 34.515625  L 43.21875 34.515625  L 43.21875 35.40625  Q 43.21875 41.609375 39.140625 45  Q 35.0625 48.390625 27.6875 48.390625  Q 23 48.390625 18.546875 47.265625  Q 14.109375 46.140625 10.015625 43.890625  L 10.015625 52.203125  Q 14.9375 54.109375 19.578125 55.046875  Q 24.21875 56 28.609375 56  Q 40.484375 56 46.34375 49.84375  Q 52.203125 43.703125 52.203125 31.203125  z "
               id="DejaVuSans-61" />
            <path
               d="M 18.109375 8.203125  L 18.109375 -20.796875  L 9.078125 -20.796875  L 9.078125 54.6875  L 18.109375 54.6875  L 18.109375 46.390625  Q 20.953125 51.265625 25.265625 53.625  Q 29.59375 56 35.59375 56  Q 45.5625 56 51.78125 48.09375  Q 58.015625 40.1875 58.015625 27.296875  Q 58.015625 14.40625 51.78125 6.484375  Q 45.5625 -1.421875 35.59375 -1.421875  Q 29.59375 -1.421875 25.265625 0.953125  Q 20.953125 3.328125 18.109375 8.203125  z M 48.6875 27.296875  Q 48.6875 37.203125 44.609375 42.84375  Q 40.53125 48.484375 33.40625 48.484375  Q 26.265625 48.484375 22.1875 42.84375  Q 18.109375 37.203125 18.109375 27.296875  Q 18.109375 17.390625 22.1875 11.75  Q 26.265625 6.109375 33.40625 6.109375  Q 40.53125 6.109375 44.609375 11.75  Q 48.6875 17.390625 48.6875 27.296875  z "
               id="DejaVuSans-70" />
            <path
               d="M 9.421875 75.984375  L 18.40625 75.984375  L 18.40625 0  L 9.421875 0  z "
               id="DejaVuSans-6c" />
            <path
               d="M 8.5 21.578125  L 8.5 54.6875  L 17.484375 54.6875  L 17.484375 21.921875  Q 17.484375 14.15625 20.5 10.265625  Q 23.53125 6.390625 29.59375 6.390625  Q 36.859375 6.390625 41.078125 11.03125  Q 45.3125 15.671875 45.3125 23.6875  L 45.3125 54.6875  L 54.296875 54.6875  L 54.296875 0  L 45.3125 0  L 45.3125 8.40625  Q 42.046875 3.421875 37.71875 1  Q 33.40625 -1.421875 27.6875 -1.421875  Q 18.265625 -1.421875 13.375 4.4375  Q 8.5 10.296875 8.5 21.578125  z M 31.109375 56  z "
               id="DejaVuSans-75" />
            <path
               d="M 45.40625 46.390625  L 45.40625 75.984375  L 54.390625 75.984375  L 54.390625 0  L 45.40625 0  L 45.40625 8.203125  Q 42.578125 3.328125 38.25 0.953125  Q 33.9375 -1.421875 27.875 -1.421875  Q 17.96875 -1.421875 11.734375 6.484375  Q 5.515625 14.40625 5.515625 27.296875  Q 5.515625 40.1875 11.734375 48.09375  Q 17.96875 56 27.875 56  Q 33.9375 56 38.25 53.625  Q 42.578125 51.265625 45.40625 46.390625  z M 14.796875 27.296875  Q 14.796875 17.390625 18.875 11.75  Q 22.953125 6.109375 30.078125 6.109375  Q 37.203125 6.109375 41.296875 11.75  Q 45.40625 17.390625 45.40625 27.296875  Q 45.40625 37.203125 41.296875 42.84375  Q 37.203125 48.484375 30.078125 48.484375  Q 22.953125 48.484375 18.875 42.84375  Q 14.796875 37.203125 14.796875 27.296875  z "
               id="DejaVuSans-64" />
          </defs>
          <g
             transform="translate(18.845 189.446406)rotate(-90)scale(0.1 -0.1)"
             id="g1795">
            <use
               xlink:href="#DejaVuSans-61"
               id="use1777" />
            <use
               x="61.279297"
               xlink:href="#DejaVuSans-6d"
               id="use1779" />
            <use
               x="158.691406"
               xlink:href="#DejaVuSans-70"
               id="use1781" />
            <use
               x="222.167969"
               xlink:href="#DejaVuSans-6c"
               id="use1783" />
            <use
               x="249.951172"
               xlink:href="#DejaVuSans-69"
               id="use1785" />
            <use
               x="277.734375"
               xlink:href="#DejaVuSans-74"
               id="use1787" />
            <use
               x="316.943359"
               xlink:href="#DejaVuSans-75"
               id="use1789" />
            <use
               x="380.322266"
               xlink:href="#DejaVuSans-64"
               id="use1791" />
            <use
               x="443.798828"
               xlink:href="#DejaVuSans-65"
               id="use1793" />
          </g>
        </g>
      </g>
      <g
         id="line2d_31">
        <path
           clip-path="url(#p090cb1e8b3)"
           d="M 80.065909 224.039867  L 81.388851 225.05184  L 82.050322 224.13156  L 82.711793 222.242383  L 83.373264 222.394934  L 84.034735 221.542728  L 84.696206 221.689654  L 85.357677 221.30714  L 86.019148 221.396774  L 86.68062 221.955919  L 87.342091 223.490536  L 89.326504 223.402648  L 89.987975 222.346089  L 90.649446 224.324342  L 91.972388 227.307828  L 92.633859 226.290306  L 93.29533 224.773397  L 93.956801 225.777901  L 94.618272 227.283099  L 95.279743 227.266135  L 96.602685 226.18571  L 97.264156 222.59255  L 98.587098 219.398563  L 99.248569 219.813953  L 99.91004 219.735214  L 100.571511 219.174516  L 101.894454 217.137969  L 102.555925 217.180974  L 103.878867 216.361418  L 104.540338 214.986053  L 105.201809 214.634381  L 105.86328 213.271471  L 106.524751 213.908664  L 107.186222 211.992114  L 108.509164 211.061037  L 109.170635 211.532216  L 109.832106 211.449817  L 110.493577 210.81845  L 111.816519 208.448929  L 112.47799 207.749791  L 113.139461 207.563032  L 113.800932 207.90026  L 115.123874 206.659541  L 116.446816 206.624776  L 117.108288 207.194592  L 117.769759 206.805134  L 118.43123 208.475091  L 120.415643 206.057188  L 121.077114 207.771726  L 121.738585 208.958212  L 122.400056 207.585209  L 123.061527 207.679815  L 123.722998 206.711505  L 124.384469 208.206609  L 125.04594 208.125925  L 125.707411 210.004421  L 126.368882 210.314498  L 127.030353 211.085191  L 127.691824 210.81566  L 129.014766 208.220446  L 129.676237 207.950461  L 130.337708 211.253569  L 132.322121 217.057078  L 132.983593 217.668834  L 133.645064 216.367371  L 134.306535 216.17633  L 134.968006 217.079317  L 135.629477 217.539131  L 136.290948 218.528587  L 136.952419 218.493712  L 137.61389 219.918432  L 138.936832 223.44245  L 139.598303 223.453458  L 140.259774 223.280862  L 140.921245 223.427465  L 141.582716 224.91959  L 142.244187 227.286538  L 142.905658 229.064551  L 143.567129 229.807196  L 144.2286 229.584282  L 144.890071 228.46545  L 145.551542 229.038271  L 146.213013 229.8435  L 146.874484 229.909285  L 147.535955 230.765317  L 148.197427 232.396081  L 148.858898 232.238537  L 149.520369 231.742172  L 150.18184 231.835026  L 150.843311 233.932276  L 151.504782 234.903238  L 152.166253 236.162927  L 152.827724 236.114337  L 153.489195 236.211641  L 154.150666 236.926679  L 154.812137 237.254966  L 155.473608 236.732744  L 156.135079 237.457962  L 156.79655 235.501948  L 157.458021 232.510598  L 158.119492 230.64329  L 158.780963 230.039321  L 159.442434 229.811187  L 160.103905 230.552906  L 161.426847 233.077957  L 162.088318 233.302061  L 162.749789 233.391872  L 164.072732 235.108299  L 165.395674 240.397462  L 166.718616 243.414261  L 167.380087 243.229996  L 168.041558 243.393519  L 168.703029 239.918638  L 169.3645 237.453981  L 170.025971 236.166438  L 172.010384 225.918719  L 172.671855 224.483197  L 173.333326 224.250639  L 173.994797 225.818443  L 174.656268 225.671066  L 176.640681 229.093386  L 177.302152 233.405322  L 177.963623 233.082724  L 178.625095 232.401898  L 179.286566 231.129807  L 179.948037 228.07697  L 180.609508 220.607711  L 183.916863 169.946327  L 184.578334 162.392217  L 185.901276 142.584271  L 187.224218 117.436584  L 188.54716 89.609412  L 189.208631 77.954758  L 190.531573 60.554372  L 191.193044 50.16979  L 191.854515 44.46953  L 192.515986 40.650066  L 193.177457 39.498427  L 193.838929 39.361818  L 194.5004 40.198791  L 195.161871 49.132563  L 195.823342 62.282763  L 196.484813 82.405366  L 199.130697 176.716065  L 199.792168 192.357977  L 200.453639 204.979896  L 203.099523 240.361974  L 203.760994 251.300084  L 205.083936 267.284326  L 205.745407 274.235886  L 206.406878 279.830046  L 207.068349 283.91838  L 207.72982 286.957911  L 208.391291 288.998182  L 209.714234 288.248717  L 210.375705 288.510042  L 211.698647 285.302748  L 212.360118 284.948718  L 213.021589 281.370542  L 213.68306 278.741197  L 214.344531 277.105664  L 215.006002 275.906645  L 215.667473 276.008704  L 216.328944 275.680347  L 216.990415 275.153498  L 217.651886 274.133291  L 218.313357 274.348792  L 218.974828 275.040976  L 219.636299 274.999858  L 220.29777 272.584985  L 220.959241 270.78633  L 221.620712 268.648549  L 222.282183 265.29928  L 223.605125 256.836559  L 224.266596 253.243043  L 225.589539 245.023143  L 226.25101 241.280478  L 226.912481 239.276894  L 227.573952 238.025836  L 228.235423 237.979576  L 228.896894 237.002865  L 229.558365 237.445408  L 230.219836 239.604632  L 230.881307 240.231858  L 231.542778 240.124955  L 232.204249 240.620353  L 232.86572 241.589167  L 233.527191 240.435304  L 234.188662 241.185295  L 234.850133 239.854482  L 235.511604 240.082708  L 236.173075 240.507133  L 236.834546 239.786204  L 237.496017 237.592075  L 238.157488 234.088751  L 239.48043 231.733736  L 240.803373 231.252325  L 241.464844 230.914713  L 242.126315 230.400281  L 242.787786 231.103547  L 244.110728 233.58739  L 244.772199 234.102556  L 245.43367 232.824084  L 246.095141 232.72315  L 246.756612 232.77078  L 247.418083 232.484474  L 248.079554 230.911503  L 248.741025 228.639829  L 249.402496 226.776202  L 250.063967 224.415532  L 251.386909 221.081999  L 252.04838 222.25391  L 252.709851 222.16092  L 253.371322 222.308  L 254.032793 220.134267  L 254.694264 219.61196  L 256.017207 221.714951  L 256.678678 221.164226  L 257.340149 219.971489  L 258.00162 219.111767  L 258.663091 219.075068  L 259.324562 219.874578  L 259.986033 217.513978  L 260.647504 217.595604  L 261.308975 216.14631  L 261.970446 217.269699  L 262.631917 217.995611  L 263.293388 217.360413  L 263.954859 216.903335  L 264.61633 215.107643  L 265.277801 215.480833  L 265.939272 215.458612  L 266.600743 213.466231  L 267.262214 210.947433  L 267.923685 210.357833  L 268.585156 208.105246  L 269.246627 205.156182  L 269.908098 204.513773  L 270.56957 203.659398  L 271.231041 203.633329  L 271.892512 202.976285  L 272.553983 202.766681  L 273.215454 201.063953  L 273.876925 201.981139  L 276.522809 196.179604  L 277.18428 195.72243  L 277.845751 193.432674  L 278.507222 192.770036  L 279.168693 191.633817  L 279.830164 190.942923  L 280.491635 189.599313  L 281.153106 189.043766  L 282.476048 185.567058  L 283.137519 184.142574  L 284.460461 179.58472  L 285.121932 176.599868  L 285.783404 175.110418  L 286.444875 171.175867  L 289.090759 162.273956  L 289.75223 161.167001  L 290.413701 159.315459  L 291.075172 158.167118  L 291.736643 159.153883  L 292.398114 159.659669  L 293.721056 157.338538  L 294.382527 153.846564  L 297.689882 142.243757  L 299.674295 133.367248  L 300.335766 133.0782  L 300.997237 133.490628  L 301.658709 133.64497  L 302.32018 134.070977  L 302.981651 133.758391  L 303.643122 133.188149  L 304.304593 133.326343  L 304.966064 132.597055  L 305.627535 131.431252  L 306.289006 132.784681  L 306.950477 131.541908  L 307.611948 130.66752  L 308.273419 131.117517  L 308.93489 131.855606  L 309.596361 131.859057  L 310.257832 132.648959  L 310.919303 132.734248  L 311.580774 132.153922  L 312.242245 133.479914  L 312.903716 134.245058  L 314.226658 132.818617  L 315.5496 136.883643  L 316.211071 137.661464  L 316.872543 139.140382  L 317.534014 139.807595  L 318.195485 140.152819  L 318.856956 139.641776  L 320.179898 144.984157  L 320.841369 149.226853  L 321.50284 149.905383  L 322.164311 149.996105  L 322.825782 150.4606  L 323.487253 149.750498  L 324.148724 149.859242  L 324.810195 151.281649  L 326.133137 157.583586  L 326.794608 159.486206  L 328.11755 165.053213  L 328.779021 167.321729  L 329.440492 169.160474  L 330.101963 170.628961  L 330.763434 171.273515  L 331.424905 172.13721  L 332.086377 173.238999  L 332.747848 176.096574  L 334.07079 179.908066  L 334.732261 181.268146  L 335.393732 183.182104  L 336.055203 183.049789  L 336.716674 184.325726  L 337.378145 186.93626  L 338.039616 188.302102  L 338.701087 189.395786  L 339.362558 191.211499  L 340.024029 191.23396  L 340.6855 192.528413  L 342.008442 195.665168  L 342.669913 196.165602  L 343.331384 195.741458  L 343.992855 193.973869  L 344.654326 194.973796  L 345.315797 196.271603  L 345.977268 197.894224  L 346.638739 195.799835  L 347.961682 198.963052  L 348.623153 200.033045  L 349.284624 199.62293  L 349.946095 199.647293  L 350.607566 201.017207  L 351.269037 201.630237  L 351.930508 202.938446  L 353.25345 207.050337  L 353.914921 207.369477  L 354.576392 208.461927  L 355.237863 207.894917  L 355.899334 206.275434  L 356.560805 206.234411  L 357.222276 204.849336  L 357.883747 206.241998  L 358.545218 205.932921  L 359.206689 207.48075  L 359.86816 208.353711  L 360.529631 209.018427  L 361.191102 209.912821  L 361.852573 212.964675  L 362.514045 215.041293  L 363.175516 215.529909  L 363.836987 215.341138  L 364.498458 215.407378  L 365.159929 216.686069  L 365.8214 216.127732  L 366.482871 216.771152  L 367.144342 217.651319  L 367.805813 218.334831  L 368.467284 218.408042  L 369.128755 216.960762  L 370.451697 211.391586  L 371.113168 210.953061  L 372.43611 214.953432  L 373.097581 215.343174  L 373.759052 214.938183  L 374.420523 213.161169  L 375.743465 212.715383  L 376.404936 213.370063  L 377.066407 214.351597  L 377.727879 215.114822  L 378.38935 216.647022  L 379.050821 217.443447  L 379.712292 219.052168  L 380.373763 219.508857  L 381.035234 218.881992  L 381.696705 217.247991  L 382.358176 215.186427  L 383.019647 215.78723  L 383.681118 217.072476  L 384.342589 219.060085  L 385.00406 219.223374  L 385.665531 219.554376  L 386.327002 218.493329  L 386.988473 217.998266  L 387.649944 218.506061  L 388.311415 218.438127  L 388.972886 218.245682  L 389.634357 218.395549  L 390.295828 218.872036  L 390.957299 219.176242  L 392.280241 220.400587  L 392.941712 221.929161  L 393.603184 220.95814  L 394.264655 221.085334  L 394.926126 219.841544  L 395.587597 219.781236  L 396.249068 221.419021  L 396.910539 222.72805  L 397.57201 223.17128  L 398.233481 223.204008  L 399.556423 221.278924  L 400.217894 222.207734  L 400.879365 222.470023  L 401.540836 222.529062  L 402.202307 220.858018  L 402.863778 221.502469  L 403.525249 221.468652  L 404.18672 219.803912  L 404.848191 217.589704  L 405.509662 216.418951  L 406.832604 218.514719  L 407.494075 218.870036  L 408.155546 218.974576  L 408.817018 219.33176  L 409.478489 219.407805  L 410.13996 219.145072  L 410.801431 220.482493  L 411.462902 220.808813  L 412.124373 221.550537  L 412.785844 220.10588  L 413.447315 218.931335  L 414.108786 217.480197  L 414.770257 217.256894  L 415.431728 217.774578  L 416.093199 217.061388  L 416.75467 217.207707  L 417.416141 216.283954  L 418.077612 215.898394  L 420.062025 208.734608  L 420.723496 207.725084  L 421.384967 208.019488  L 422.046438 209.588785  L 422.707909 210.860696  L 423.36938 212.766302  L 424.030852 212.690869  L 424.692323 213.567806  L 425.353794 213.79959  L 426.015265 212.306394  L 426.676736 209.03803  L 427.338207 208.010376  L 427.999678 208.728214  L 428.661149 209.206866  L 429.32262 208.999183  L 429.984091 207.173392  L 429.984091 207.173392  "
           style="fill:none;stroke:#1f77b4;stroke-linecap:square;stroke-width:1.5;"
           id="path1799" />
      </g>
      <g
         id="patch_3">
        <path
           d="M 62.57 301.48  L 62.57 26.88  "
           style="fill:none;stroke:#000000;stroke-linecap:square;stroke-linejoin:miter;stroke-width:0.8;"
           id="path1802" />
      </g>
      <g
         id="patch_4">
        <path
           d="M 447.48 301.48  L 447.48 26.88  "
           style="fill:none;stroke:#000000;stroke-linecap:square;stroke-linejoin:miter;stroke-width:0.8;"
           id="path1805" />
      </g>
      <g
         id="patch_5">
        <path
           d="M 62.57 301.48  L 447.48 301.48  "
           style="fill:none;stroke:#000000;stroke-linecap:square;stroke-linejoin:miter;stroke-width:0.8;"
           id="path1808" />
      </g>
      <g
         id="patch_6">
        <path
           d="M 62.57 26.88  L 447.48 26.88  "
           style="fill:none;stroke:#000000;stroke-linecap:square;stroke-linejoin:miter;stroke-width:0.8;"
           id="path1811" />
      </g>
      <g
         id="text_18">
        <!-- template of cz_data1 -->
        <defs
           id="defs1820">
          <path
             id="DejaVuSans-20" />
          <path
             d="M 30.609375 48.390625  Q 23.390625 48.390625 19.1875 42.75  Q 14.984375 37.109375 14.984375 27.296875  Q 14.984375 17.484375 19.15625 11.84375  Q 23.34375 6.203125 30.609375 6.203125  Q 37.796875 6.203125 41.984375 11.859375  Q 46.1875 17.53125 46.1875 27.296875  Q 46.1875 37.015625 41.984375 42.703125  Q 37.796875 48.390625 30.609375 48.390625  z M 30.609375 56  Q 42.328125 56 49.015625 48.375  Q 55.71875 40.765625 55.71875 27.296875  Q 55.71875 13.875 49.015625 6.21875  Q 42.328125 -1.421875 30.609375 -1.421875  Q 18.84375 -1.421875 12.171875 6.21875  Q 5.515625 13.875 5.515625 27.296875  Q 5.515625 40.765625 12.171875 48.375  Q 18.84375 56 30.609375 56  z "
             id="DejaVuSans-6f" />
          <path
             d="M 37.109375 75.984375  L 37.109375 68.5  L 28.515625 68.5  Q 23.6875 68.5 21.796875 66.546875  Q 19.921875 64.59375 19.921875 59.515625  L 19.921875 54.6875  L 34.71875 54.6875  L 34.71875 47.703125  L 19.921875 47.703125  L 19.921875 0  L 10.890625 0  L 10.890625 47.703125  L 2.296875 47.703125  L 2.296875 54.6875  L 10.890625 54.6875  L 10.890625 58.5  Q 10.890625 67.625 15.140625 71.796875  Q 19.390625 75.984375 28.609375 75.984375  z "
             id="DejaVuSans-66" />
          <path
             d="M 48.78125 52.59375  L 48.78125 44.1875  Q 44.96875 46.296875 41.140625 47.34375  Q 37.3125 48.390625 33.40625 48.390625  Q 24.65625 48.390625 19.8125 42.84375  Q 14.984375 37.3125 14.984375 27.296875  Q 14.984375 17.28125 19.8125 11.734375  Q 24.65625 6.203125 33.40625 6.203125  Q 37.3125 6.203125 41.140625 7.25  Q 44.96875 8.296875 48.78125 10.40625  L 48.78125 2.09375  Q 45.015625 0.34375 40.984375 -0.53125  Q 36.96875 -1.421875 32.421875 -1.421875  Q 20.0625 -1.421875 12.78125 6.34375  Q 5.515625 14.109375 5.515625 27.296875  Q 5.515625 40.671875 12.859375 48.328125  Q 20.21875 56 33.015625 56  Q 37.15625 56 41.109375 55.140625  Q 45.0625 54.296875 48.78125 52.59375  z "
             id="DejaVuSans-63" />
          <path
             d="M 5.515625 54.6875  L 48.1875 54.6875  L 48.1875 46.484375  L 14.40625 7.171875  L 48.1875 7.171875  L 48.1875 0  L 4.296875 0  L 4.296875 8.203125  L 38.09375 47.515625  L 5.515625 47.515625  z "
             id="DejaVuSans-7a" />
          <path
             d="M 50.984375 -16.609375  L 50.984375 -23.578125  L -0.984375 -23.578125  L -0.984375 -16.609375  z "
             id="DejaVuSans-5f" />
        </defs>
        <g
           transform="translate(191.561875 20.88)scale(0.12 -0.12)"
           id="g1862">
          <use
             xlink:href="#DejaVuSans-74"
             id="use1822" />
          <use
             x="39.208984"
             xlink:href="#DejaVuSans-65"
             id="use1824" />
          <use
             x="100.732422"
             xlink:href="#DejaVuSans-6d"
             id="use1826" />
          <use
             x="198.144531"
             xlink:href="#DejaVuSans-70"
             id="use1828" />
          <use
             x="261.621094"
             xlink:href="#DejaVuSans-6c"
             id="use1830" />
          <use
             x="289.404297"
             xlink:href="#DejaVuSans-61"
             id="use1832" />
          <use
             x="350.683594"
             xlink:href="#DejaVuSans-74"
             id="use1834" />
          <use
             x="389.892578"
             xlink:href="#DejaVuSans-65"
             id="use1836" />
          <use
             x="451.416016"
             xlink:href="#DejaVuSans-20"
             id="use1838" />
          <use
             x="483.203125"
             xlink:href="#DejaVuSans-6f"
             id="use1840" />
          <use
             x="544.384766"
             xlink:href="#DejaVuSans-66"
             id="use1842" />
          <use
             x="579.589844"
             xlink:href="#DejaVuSans-20"
             id="use1844" />
          <use
             x="611.376953"
             xlink:href="#DejaVuSans-63"
             id="use1846" />
          <use
             x="666.357422"
             xlink:href="#DejaVuSans-7a"
             id="use1848" />
          <use
             x="718.847656"
             xlink:href="#DejaVuSans-5f"
             id="use1850" />
          <use
             x="768.847656"
             xlink:href="#DejaVuSans-64"
             id="use1852" />
          <use
             x="832.324219"
             xlink:href="#DejaVuSans-61"
             id="use1854" />
          <use
             x="893.603516"
             xlink:href="#DejaVuSans-74"
             id="use1856" />
          <use
             x="932.8125"
             xlink:href="#DejaVuSans-61"
             id="use1858" />
          <use
             x="994.091797"
             xlink:href="#DejaVuSans-31"
             id="use1860" />
        </g>
      </g>
    </g>
  </g>
  <defs
     id="defs1870">
    <clipPath
       id="p090cb1e8b3">
      <rect
         height="274.6"
         width="384.91"
         x="62.57"
         y="26.88"
         id="rect1867" />
    </clipPath>
  </defs>
  <text
     xml:space="preserve"
     style="font-style:normal;font-weight:normal;font-size:24px;line-height:1.25;font-family:sans-serif;letter-spacing:0px;word-spacing:0px;fill:#000000;fill-opacity:1;stroke:none;stroke-width:0.75;stroke-linecap:butt;stroke-linejoin:round"
     x="113.3644"
     y="196.20763"
     id="text1880"><tspan
       sodipodi:role="line"
       id="tspan1878"
       style="stroke-width:0.75;stroke-linecap:butt;stroke-linejoin:round"
       x="113.3644"
       y="196.20763">P</tspan></text>
  <text
     xml:space="preserve"
     style="font-style:normal;font-weight:normal;font-size:24px;line-height:1.25;font-family:sans-serif;letter-spacing:0px;word-spacing:0px;fill:#000000;fill-opacity:1;stroke:none;stroke-width:0.75;stroke-linecap:butt;stroke-linejoin:round"
     x="155.51271"
     y="263.06357"
     id="text1884"><tspan
       sodipodi:role="line"
       id="tspan1882"
       style="stroke-width:0.75;stroke-linecap:butt;stroke-linejoin:round"
       x="155.51271"
       y="263.06357">Q</tspan></text>
  <text
     xml:space="preserve"
     style="font-style:normal;font-weight:normal;font-size:24px;line-height:1.25;font-family:sans-serif;letter-spacing:0px;word-spacing:0px;fill:#000000;fill-opacity:1;stroke:none;stroke-width:0.75;stroke-linecap:butt;stroke-linejoin:round"
     x="170.04662"
     y="46.508472"
     id="text1888"><tspan
       sodipodi:role="line"
       id="tspan1886"
       style="stroke-width:0.75;stroke-linecap:butt;stroke-linejoin:round"
       x="170.04662"
       y="46.508472">R</tspan></text>
  <text
     xml:space="preserve"
     style="font-style:normal;font-weight:normal;font-size:24px;line-height:1.25;font-family:sans-serif;letter-spacing:0px;word-spacing:0px;fill:#000000;fill-opacity:1;stroke:none;stroke-width:0.75;stroke-linecap:butt;stroke-linejoin:round"
     x="187.4873"
     y="296.49155"
     id="text1892"><tspan
       sodipodi:role="line"
       id="tspan1890"
       style="stroke-width:0.75;stroke-linecap:butt;stroke-linejoin:round"
       x="187.4873"
       y="296.49155">S</tspan></text>
  <text
     xml:space="preserve"
     style="font-style:normal;font-weight:normal;font-size:24px;line-height:1.25;font-family:sans-serif;letter-spacing:0px;word-spacing:0px;fill:#000000;fill-opacity:1;stroke:none;stroke-width:0.75;stroke-linecap:butt;stroke-linejoin:round"
     x="302.30511"
     y="123.53814"
     id="text1896"><tspan
       sodipodi:role="line"
       id="tspan1894"
       style="stroke-width:0.75;stroke-linecap:butt;stroke-linejoin:round"
       x="302.30511"
       y="123.53814">T</tspan></text>
  <path
     style="fill:none;stroke:#000000;stroke-width:0.75px;stroke-linecap:butt;stroke-linejoin:miter;stroke-opacity:1"
     d="m 186.0339,33.427966 7.14355,6.070461"
     id="path1938"
     inkscape:connector-curvature="0" />
  <path
     style="fill:none;stroke:#000000;stroke-width:0.75px;stroke-linecap:butt;stroke-linejoin:miter;stroke-opacity:1"
     d="m 210.3757,288.51004 -7.62782,5.07471"
     id="path1949"
     inkscape:connector-curvature="0" />
</svg>
