<?xml version="1.0" encoding="utf-8" standalone="no"?>
<!DOCTYPE svg PUBLIC "-//W3C//DTD SVG 1.1//EN"
  "http://www.w3.org/Graphics/SVG/1.1/DTD/svg11.dtd">
<!-- Created with matplotlib (http://matplotlib.org/) -->
<svg height="343pt" version="1.1" viewBox="0 0 460 343" width="460pt" xmlns="http://www.w3.org/2000/svg" xmlns:xlink="http://www.w3.org/1999/xlink">
 <defs>
  <style type="text/css">
*{stroke-linecap:butt;stroke-linejoin:round;}
  </style>
 </defs>
 <g id="figure_1">
  <g id="patch_1">
   <path d="M 0 343.44 
L 460.8 343.44 
L 460.8 0 
L 0 0 
z
" style="fill:#ffffff;"/>
  </g>
  <g id="axes_1">
   <g id="patch_2">
    <path d="M 56.18 301.48 
L 447.48 301.48 
L 447.48 26.88 
L 56.18 26.88 
z
" style="fill:#ffffff;"/>
   </g>
   <g id="matplotlib.axis_1">
    <g id="xtick_1">
     <g id="line2d_1">
      <path clip-path="url(#p658ced8102)" d="M 73.966364 301.48 
L 73.966364 26.88 
" style="fill:none;stroke:#b0b0b0;stroke-linecap:square;stroke-width:0.8;"/>
     </g>
     <g id="line2d_2">
      <defs>
       <path d="M 0 0 
L 0 3.5 
" id="m402c98e197" style="stroke:#000000;stroke-width:0.8;"/>
      </defs>
      <g>
       <use style="stroke:#000000;stroke-width:0.8;" x="73.966364" xlink:href="#m402c98e197" y="301.48"/>
      </g>
     </g>
     <g id="text_1">
      <!-- 0 -->
      <defs>
       <path d="M 31.78125 66.40625 
Q 24.171875 66.40625 20.328125 58.90625 
Q 16.5 51.421875 16.5 36.375 
Q 16.5 21.390625 20.328125 13.890625 
Q 24.171875 6.390625 31.78125 6.390625 
Q 39.453125 6.390625 43.28125 13.890625 
Q 47.125 21.390625 47.125 36.375 
Q 47.125 51.421875 43.28125 58.90625 
Q 39.453125 66.40625 31.78125 66.40625 
z
M 31.78125 74.21875 
Q 44.046875 74.21875 50.515625 64.515625 
Q 56.984375 54.828125 56.984375 36.375 
Q 56.984375 17.96875 50.515625 8.265625 
Q 44.046875 -1.421875 31.78125 -1.421875 
Q 19.53125 -1.421875 13.0625 8.265625 
Q 6.59375 17.96875 6.59375 36.375 
Q 6.59375 54.828125 13.0625 64.515625 
Q 19.53125 74.21875 31.78125 74.21875 
z
" id="DejaVuSans-30"/>
      </defs>
      <g transform="translate(70.785114 316.078437)scale(0.1 -0.1)">
       <use xlink:href="#DejaVuSans-30"/>
      </g>
     </g>
    </g>
    <g id="xtick_2">
     <g id="line2d_3">
      <path clip-path="url(#p658ced8102)" d="M 138.76186 301.48 
L 138.76186 26.88 
" style="fill:none;stroke:#b0b0b0;stroke-linecap:square;stroke-width:0.8;"/>
     </g>
     <g id="line2d_4">
      <g>
       <use style="stroke:#000000;stroke-width:0.8;" x="138.76186" xlink:href="#m402c98e197" y="301.48"/>
      </g>
     </g>
     <g id="text_2">
      <!-- 100 -->
      <defs>
       <path d="M 12.40625 8.296875 
L 28.515625 8.296875 
L 28.515625 63.921875 
L 10.984375 60.40625 
L 10.984375 69.390625 
L 28.421875 72.90625 
L 38.28125 72.90625 
L 38.28125 8.296875 
L 54.390625 8.296875 
L 54.390625 0 
L 12.40625 0 
z
" id="DejaVuSans-31"/>
      </defs>
      <g transform="translate(129.21811 316.078437)scale(0.1 -0.1)">
       <use xlink:href="#DejaVuSans-31"/>
       <use x="63.623047" xlink:href="#DejaVuSans-30"/>
       <use x="127.246094" xlink:href="#DejaVuSans-30"/>
      </g>
     </g>
    </g>
    <g id="xtick_3">
     <g id="line2d_5">
      <path clip-path="url(#p658ced8102)" d="M 203.557356 301.48 
L 203.557356 26.88 
" style="fill:none;stroke:#b0b0b0;stroke-linecap:square;stroke-width:0.8;"/>
     </g>
     <g id="line2d_6">
      <g>
       <use style="stroke:#000000;stroke-width:0.8;" x="203.557356" xlink:href="#m402c98e197" y="301.48"/>
      </g>
     </g>
     <g id="text_3">
      <!-- 200 -->
      <defs>
       <path d="M 19.1875 8.296875 
L 53.609375 8.296875 
L 53.609375 0 
L 7.328125 0 
L 7.328125 8.296875 
Q 12.9375 14.109375 22.625 23.890625 
Q 32.328125 33.6875 34.8125 36.53125 
Q 39.546875 41.84375 41.421875 45.53125 
Q 43.3125 49.21875 43.3125 52.78125 
Q 43.3125 58.59375 39.234375 62.25 
Q 35.15625 65.921875 28.609375 65.921875 
Q 23.96875 65.921875 18.8125 64.3125 
Q 13.671875 62.703125 7.8125 59.421875 
L 7.8125 69.390625 
Q 13.765625 71.78125 18.9375 73 
Q 24.125 74.21875 28.421875 74.21875 
Q 39.75 74.21875 46.484375 68.546875 
Q 53.21875 62.890625 53.21875 53.421875 
Q 53.21875 48.921875 51.53125 44.890625 
Q 49.859375 40.875 45.40625 35.40625 
Q 44.1875 33.984375 37.640625 27.21875 
Q 31.109375 20.453125 19.1875 8.296875 
z
" id="DejaVuSans-32"/>
      </defs>
      <g transform="translate(194.013606 316.078437)scale(0.1 -0.1)">
       <use xlink:href="#DejaVuSans-32"/>
       <use x="63.623047" xlink:href="#DejaVuSans-30"/>
       <use x="127.246094" xlink:href="#DejaVuSans-30"/>
      </g>
     </g>
    </g>
    <g id="xtick_4">
     <g id="line2d_7">
      <path clip-path="url(#p658ced8102)" d="M 268.352851 301.48 
L 268.352851 26.88 
" style="fill:none;stroke:#b0b0b0;stroke-linecap:square;stroke-width:0.8;"/>
     </g>
     <g id="line2d_8">
      <g>
       <use style="stroke:#000000;stroke-width:0.8;" x="268.352851" xlink:href="#m402c98e197" y="301.48"/>
      </g>
     </g>
     <g id="text_4">
      <!-- 300 -->
      <defs>
       <path d="M 40.578125 39.3125 
Q 47.65625 37.796875 51.625 33 
Q 55.609375 28.21875 55.609375 21.1875 
Q 55.609375 10.40625 48.1875 4.484375 
Q 40.765625 -1.421875 27.09375 -1.421875 
Q 22.515625 -1.421875 17.65625 -0.515625 
Q 12.796875 0.390625 7.625 2.203125 
L 7.625 11.71875 
Q 11.71875 9.328125 16.59375 8.109375 
Q 21.484375 6.890625 26.8125 6.890625 
Q 36.078125 6.890625 40.9375 10.546875 
Q 45.796875 14.203125 45.796875 21.1875 
Q 45.796875 27.640625 41.28125 31.265625 
Q 36.765625 34.90625 28.71875 34.90625 
L 20.21875 34.90625 
L 20.21875 43.015625 
L 29.109375 43.015625 
Q 36.375 43.015625 40.234375 45.921875 
Q 44.09375 48.828125 44.09375 54.296875 
Q 44.09375 59.90625 40.109375 62.90625 
Q 36.140625 65.921875 28.71875 65.921875 
Q 24.65625 65.921875 20.015625 65.03125 
Q 15.375 64.15625 9.8125 62.3125 
L 9.8125 71.09375 
Q 15.4375 72.65625 20.34375 73.4375 
Q 25.25 74.21875 29.59375 74.21875 
Q 40.828125 74.21875 47.359375 69.109375 
Q 53.90625 64.015625 53.90625 55.328125 
Q 53.90625 49.265625 50.4375 45.09375 
Q 46.96875 40.921875 40.578125 39.3125 
z
" id="DejaVuSans-33"/>
      </defs>
      <g transform="translate(258.809101 316.078437)scale(0.1 -0.1)">
       <use xlink:href="#DejaVuSans-33"/>
       <use x="63.623047" xlink:href="#DejaVuSans-30"/>
       <use x="127.246094" xlink:href="#DejaVuSans-30"/>
      </g>
     </g>
    </g>
    <g id="xtick_5">
     <g id="line2d_9">
      <path clip-path="url(#p658ced8102)" d="M 333.148347 301.48 
L 333.148347 26.88 
" style="fill:none;stroke:#b0b0b0;stroke-linecap:square;stroke-width:0.8;"/>
     </g>
     <g id="line2d_10">
      <g>
       <use style="stroke:#000000;stroke-width:0.8;" x="333.148347" xlink:href="#m402c98e197" y="301.48"/>
      </g>
     </g>
     <g id="text_5">
      <!-- 400 -->
      <defs>
       <path d="M 37.796875 64.3125 
L 12.890625 25.390625 
L 37.796875 25.390625 
z
M 35.203125 72.90625 
L 47.609375 72.90625 
L 47.609375 25.390625 
L 58.015625 25.390625 
L 58.015625 17.1875 
L 47.609375 17.1875 
L 47.609375 0 
L 37.796875 0 
L 37.796875 17.1875 
L 4.890625 17.1875 
L 4.890625 26.703125 
z
" id="DejaVuSans-34"/>
      </defs>
      <g transform="translate(323.604597 316.078437)scale(0.1 -0.1)">
       <use xlink:href="#DejaVuSans-34"/>
       <use x="63.623047" xlink:href="#DejaVuSans-30"/>
       <use x="127.246094" xlink:href="#DejaVuSans-30"/>
      </g>
     </g>
    </g>
    <g id="xtick_6">
     <g id="line2d_11">
      <path clip-path="url(#p658ced8102)" d="M 397.943843 301.48 
L 397.943843 26.88 
" style="fill:none;stroke:#b0b0b0;stroke-linecap:square;stroke-width:0.8;"/>
     </g>
     <g id="line2d_12">
      <g>
       <use style="stroke:#000000;stroke-width:0.8;" x="397.943843" xlink:href="#m402c98e197" y="301.48"/>
      </g>
     </g>
     <g id="text_6">
      <!-- 500 -->
      <defs>
       <path d="M 10.796875 72.90625 
L 49.515625 72.90625 
L 49.515625 64.59375 
L 19.828125 64.59375 
L 19.828125 46.734375 
Q 21.96875 47.46875 24.109375 47.828125 
Q 26.265625 48.1875 28.421875 48.1875 
Q 40.625 48.1875 47.75 41.5 
Q 54.890625 34.8125 54.890625 23.390625 
Q 54.890625 11.625 47.5625 5.09375 
Q 40.234375 -1.421875 26.90625 -1.421875 
Q 22.3125 -1.421875 17.546875 -0.640625 
Q 12.796875 0.140625 7.71875 1.703125 
L 7.71875 11.625 
Q 12.109375 9.234375 16.796875 8.0625 
Q 21.484375 6.890625 26.703125 6.890625 
Q 35.15625 6.890625 40.078125 11.328125 
Q 45.015625 15.765625 45.015625 23.390625 
Q 45.015625 31 40.078125 35.4375 
Q 35.15625 39.890625 26.703125 39.890625 
Q 22.75 39.890625 18.8125 39.015625 
Q 14.890625 38.140625 10.796875 36.28125 
z
" id="DejaVuSans-35"/>
      </defs>
      <g transform="translate(388.400093 316.078437)scale(0.1 -0.1)">
       <use xlink:href="#DejaVuSans-35"/>
       <use x="63.623047" xlink:href="#DejaVuSans-30"/>
       <use x="127.246094" xlink:href="#DejaVuSans-30"/>
      </g>
     </g>
    </g>
    <g id="text_7">
     <!-- time(ms) -->
     <defs>
      <path d="M 18.3125 70.21875 
L 18.3125 54.6875 
L 36.8125 54.6875 
L 36.8125 47.703125 
L 18.3125 47.703125 
L 18.3125 18.015625 
Q 18.3125 11.328125 20.140625 9.421875 
Q 21.96875 7.515625 27.59375 7.515625 
L 36.8125 7.515625 
L 36.8125 0 
L 27.59375 0 
Q 17.1875 0 13.234375 3.875 
Q 9.28125 7.765625 9.28125 18.015625 
L 9.28125 47.703125 
L 2.6875 47.703125 
L 2.6875 54.6875 
L 9.28125 54.6875 
L 9.28125 70.21875 
z
" id="DejaVuSans-74"/>
      <path d="M 9.421875 54.6875 
L 18.40625 54.6875 
L 18.40625 0 
L 9.421875 0 
z
M 9.421875 75.984375 
L 18.40625 75.984375 
L 18.40625 64.59375 
L 9.421875 64.59375 
z
" id="DejaVuSans-69"/>
      <path d="M 52 44.1875 
Q 55.375 50.25 60.0625 53.125 
Q 64.75 56 71.09375 56 
Q 79.640625 56 84.28125 50.015625 
Q 88.921875 44.046875 88.921875 33.015625 
L 88.921875 0 
L 79.890625 0 
L 79.890625 32.71875 
Q 79.890625 40.578125 77.09375 44.375 
Q 74.3125 48.1875 68.609375 48.1875 
Q 61.625 48.1875 57.5625 43.546875 
Q 53.515625 38.921875 53.515625 30.90625 
L 53.515625 0 
L 44.484375 0 
L 44.484375 32.71875 
Q 44.484375 40.625 41.703125 44.40625 
Q 38.921875 48.1875 33.109375 48.1875 
Q 26.21875 48.1875 22.15625 43.53125 
Q 18.109375 38.875 18.109375 30.90625 
L 18.109375 0 
L 9.078125 0 
L 9.078125 54.6875 
L 18.109375 54.6875 
L 18.109375 46.1875 
Q 21.1875 51.21875 25.484375 53.609375 
Q 29.78125 56 35.6875 56 
Q 41.65625 56 45.828125 52.96875 
Q 50 49.953125 52 44.1875 
z
" id="DejaVuSans-6d"/>
      <path d="M 56.203125 29.59375 
L 56.203125 25.203125 
L 14.890625 25.203125 
Q 15.484375 15.921875 20.484375 11.0625 
Q 25.484375 6.203125 34.421875 6.203125 
Q 39.59375 6.203125 44.453125 7.46875 
Q 49.3125 8.734375 54.109375 11.28125 
L 54.109375 2.78125 
Q 49.265625 0.734375 44.1875 -0.34375 
Q 39.109375 -1.421875 33.890625 -1.421875 
Q 20.796875 -1.421875 13.15625 6.1875 
Q 5.515625 13.8125 5.515625 26.8125 
Q 5.515625 40.234375 12.765625 48.109375 
Q 20.015625 56 32.328125 56 
Q 43.359375 56 49.78125 48.890625 
Q 56.203125 41.796875 56.203125 29.59375 
z
M 47.21875 32.234375 
Q 47.125 39.59375 43.09375 43.984375 
Q 39.0625 48.390625 32.421875 48.390625 
Q 24.90625 48.390625 20.390625 44.140625 
Q 15.875 39.890625 15.1875 32.171875 
z
" id="DejaVuSans-65"/>
      <path d="M 31 75.875 
Q 24.46875 64.65625 21.28125 53.65625 
Q 18.109375 42.671875 18.109375 31.390625 
Q 18.109375 20.125 21.3125 9.0625 
Q 24.515625 -2 31 -13.1875 
L 23.1875 -13.1875 
Q 15.875 -1.703125 12.234375 9.375 
Q 8.59375 20.453125 8.59375 31.390625 
Q 8.59375 42.28125 12.203125 53.3125 
Q 15.828125 64.359375 23.1875 75.875 
z
" id="DejaVuSans-28"/>
      <path d="M 44.28125 53.078125 
L 44.28125 44.578125 
Q 40.484375 46.53125 36.375 47.5 
Q 32.28125 48.484375 27.875 48.484375 
Q 21.1875 48.484375 17.84375 46.4375 
Q 14.5 44.390625 14.5 40.28125 
Q 14.5 37.15625 16.890625 35.375 
Q 19.28125 33.59375 26.515625 31.984375 
L 29.59375 31.296875 
Q 39.15625 29.25 43.1875 25.515625 
Q 47.21875 21.78125 47.21875 15.09375 
Q 47.21875 7.46875 41.1875 3.015625 
Q 35.15625 -1.421875 24.609375 -1.421875 
Q 20.21875 -1.421875 15.453125 -0.5625 
Q 10.6875 0.296875 5.421875 2 
L 5.421875 11.28125 
Q 10.40625 8.6875 15.234375 7.390625 
Q 20.0625 6.109375 24.8125 6.109375 
Q 31.15625 6.109375 34.5625 8.28125 
Q 37.984375 10.453125 37.984375 14.40625 
Q 37.984375 18.0625 35.515625 20.015625 
Q 33.0625 21.96875 24.703125 23.78125 
L 21.578125 24.515625 
Q 13.234375 26.265625 9.515625 29.90625 
Q 5.8125 33.546875 5.8125 39.890625 
Q 5.8125 47.609375 11.28125 51.796875 
Q 16.75 56 26.8125 56 
Q 31.78125 56 36.171875 55.265625 
Q 40.578125 54.546875 44.28125 53.078125 
z
" id="DejaVuSans-73"/>
      <path d="M 8.015625 75.875 
L 15.828125 75.875 
Q 23.140625 64.359375 26.78125 53.3125 
Q 30.421875 42.28125 30.421875 31.390625 
Q 30.421875 20.453125 26.78125 9.375 
Q 23.140625 -1.703125 15.828125 -13.1875 
L 8.015625 -13.1875 
Q 14.5 -2 17.703125 9.0625 
Q 20.90625 20.125 20.90625 31.390625 
Q 20.90625 42.671875 17.703125 53.65625 
Q 14.5 64.65625 8.015625 75.875 
z
" id="DejaVuSans-29"/>
     </defs>
     <g transform="translate(229.157344 329.756562)scale(0.1 -0.1)">
      <use xlink:href="#DejaVuSans-74"/>
      <use x="39.208984" xlink:href="#DejaVuSans-69"/>
      <use x="66.992188" xlink:href="#DejaVuSans-6d"/>
      <use x="164.404297" xlink:href="#DejaVuSans-65"/>
      <use x="225.927734" xlink:href="#DejaVuSans-28"/>
      <use x="264.941406" xlink:href="#DejaVuSans-6d"/>
      <use x="362.353516" xlink:href="#DejaVuSans-73"/>
      <use x="414.453125" xlink:href="#DejaVuSans-29"/>
     </g>
    </g>
   </g>
   <g id="matplotlib.axis_2">
    <g id="ytick_1">
     <g id="line2d_13">
      <path clip-path="url(#p658ced8102)" d="M 56.18 297.6384 
L 447.48 297.6384 
" style="fill:none;stroke:#b0b0b0;stroke-linecap:square;stroke-width:0.8;"/>
     </g>
     <g id="line2d_14">
      <defs>
       <path d="M 0 0 
L -3.5 0 
" id="mf190ef3661" style="stroke:#000000;stroke-width:0.8;"/>
      </defs>
      <g>
       <use style="stroke:#000000;stroke-width:0.8;" x="56.18" xlink:href="#mf190ef3661" y="297.6384"/>
      </g>
     </g>
     <g id="text_8">
      <!-- −1.0 -->
      <defs>
       <path d="M 10.59375 35.5 
L 73.1875 35.5 
L 73.1875 27.203125 
L 10.59375 27.203125 
z
" id="DejaVuSans-2212"/>
       <path d="M 10.6875 12.40625 
L 21 12.40625 
L 21 0 
L 10.6875 0 
z
" id="DejaVuSans-2e"/>
      </defs>
      <g transform="translate(24.897188 301.437619)scale(0.1 -0.1)">
       <use xlink:href="#DejaVuSans-2212"/>
       <use x="83.789062" xlink:href="#DejaVuSans-31"/>
       <use x="147.412109" xlink:href="#DejaVuSans-2e"/>
       <use x="179.199219" xlink:href="#DejaVuSans-30"/>
      </g>
     </g>
    </g>
    <g id="ytick_2">
     <g id="line2d_15">
      <path clip-path="url(#p658ced8102)" d="M 56.18 238.888166 
L 447.48 238.888166 
" style="fill:none;stroke:#b0b0b0;stroke-linecap:square;stroke-width:0.8;"/>
     </g>
     <g id="line2d_16">
      <g>
       <use style="stroke:#000000;stroke-width:0.8;" x="56.18" xlink:href="#mf190ef3661" y="238.888166"/>
      </g>
     </g>
     <g id="text_9">
      <!-- −0.5 -->
      <g transform="translate(24.897188 242.687385)scale(0.1 -0.1)">
       <use xlink:href="#DejaVuSans-2212"/>
       <use x="83.789062" xlink:href="#DejaVuSans-30"/>
       <use x="147.412109" xlink:href="#DejaVuSans-2e"/>
       <use x="179.199219" xlink:href="#DejaVuSans-35"/>
      </g>
     </g>
    </g>
    <g id="ytick_3">
     <g id="line2d_17">
      <path clip-path="url(#p658ced8102)" d="M 56.18 180.137932 
L 447.48 180.137932 
" style="fill:none;stroke:#b0b0b0;stroke-linecap:square;stroke-width:0.8;"/>
     </g>
     <g id="line2d_18">
      <g>
       <use style="stroke:#000000;stroke-width:0.8;" x="56.18" xlink:href="#mf190ef3661" y="180.137932"/>
      </g>
     </g>
     <g id="text_10">
      <!-- 0.0 -->
      <g transform="translate(33.276875 183.93715)scale(0.1 -0.1)">
       <use xlink:href="#DejaVuSans-30"/>
       <use x="63.623047" xlink:href="#DejaVuSans-2e"/>
       <use x="95.410156" xlink:href="#DejaVuSans-30"/>
      </g>
     </g>
    </g>
    <g id="ytick_4">
     <g id="line2d_19">
      <path clip-path="url(#p658ced8102)" d="M 56.18 121.387697 
L 447.48 121.387697 
" style="fill:none;stroke:#b0b0b0;stroke-linecap:square;stroke-width:0.8;"/>
     </g>
     <g id="line2d_20">
      <g>
       <use style="stroke:#000000;stroke-width:0.8;" x="56.18" xlink:href="#mf190ef3661" y="121.387697"/>
      </g>
     </g>
     <g id="text_11">
      <!-- 0.5 -->
      <g transform="translate(33.276875 125.186916)scale(0.1 -0.1)">
       <use xlink:href="#DejaVuSans-30"/>
       <use x="63.623047" xlink:href="#DejaVuSans-2e"/>
       <use x="95.410156" xlink:href="#DejaVuSans-35"/>
      </g>
     </g>
    </g>
    <g id="ytick_5">
     <g id="line2d_21">
      <path clip-path="url(#p658ced8102)" d="M 56.18 62.637463 
L 447.48 62.637463 
" style="fill:none;stroke:#b0b0b0;stroke-linecap:square;stroke-width:0.8;"/>
     </g>
     <g id="line2d_22">
      <g>
       <use style="stroke:#000000;stroke-width:0.8;" x="56.18" xlink:href="#mf190ef3661" y="62.637463"/>
      </g>
     </g>
     <g id="text_12">
      <!-- 1.0 -->
      <g transform="translate(33.276875 66.436682)scale(0.1 -0.1)">
       <use xlink:href="#DejaVuSans-31"/>
       <use x="63.623047" xlink:href="#DejaVuSans-2e"/>
       <use x="95.410156" xlink:href="#DejaVuSans-30"/>
      </g>
     </g>
    </g>
    <g id="text_13">
     <!-- amplitude -->
     <defs>
      <path d="M 34.28125 27.484375 
Q 23.390625 27.484375 19.1875 25 
Q 14.984375 22.515625 14.984375 16.5 
Q 14.984375 11.71875 18.140625 8.90625 
Q 21.296875 6.109375 26.703125 6.109375 
Q 34.1875 6.109375 38.703125 11.40625 
Q 43.21875 16.703125 43.21875 25.484375 
L 43.21875 27.484375 
z
M 52.203125 31.203125 
L 52.203125 0 
L 43.21875 0 
L 43.21875 8.296875 
Q 40.140625 3.328125 35.546875 0.953125 
Q 30.953125 -1.421875 24.3125 -1.421875 
Q 15.921875 -1.421875 10.953125 3.296875 
Q 6 8.015625 6 15.921875 
Q 6 25.140625 12.171875 29.828125 
Q 18.359375 34.515625 30.609375 34.515625 
L 43.21875 34.515625 
L 43.21875 35.40625 
Q 43.21875 41.609375 39.140625 45 
Q 35.0625 48.390625 27.6875 48.390625 
Q 23 48.390625 18.546875 47.265625 
Q 14.109375 46.140625 10.015625 43.890625 
L 10.015625 52.203125 
Q 14.9375 54.109375 19.578125 55.046875 
Q 24.21875 56 28.609375 56 
Q 40.484375 56 46.34375 49.84375 
Q 52.203125 43.703125 52.203125 31.203125 
z
" id="DejaVuSans-61"/>
      <path d="M 18.109375 8.203125 
L 18.109375 -20.796875 
L 9.078125 -20.796875 
L 9.078125 54.6875 
L 18.109375 54.6875 
L 18.109375 46.390625 
Q 20.953125 51.265625 25.265625 53.625 
Q 29.59375 56 35.59375 56 
Q 45.5625 56 51.78125 48.09375 
Q 58.015625 40.1875 58.015625 27.296875 
Q 58.015625 14.40625 51.78125 6.484375 
Q 45.5625 -1.421875 35.59375 -1.421875 
Q 29.59375 -1.421875 25.265625 0.953125 
Q 20.953125 3.328125 18.109375 8.203125 
z
M 48.6875 27.296875 
Q 48.6875 37.203125 44.609375 42.84375 
Q 40.53125 48.484375 33.40625 48.484375 
Q 26.265625 48.484375 22.1875 42.84375 
Q 18.109375 37.203125 18.109375 27.296875 
Q 18.109375 17.390625 22.1875 11.75 
Q 26.265625 6.109375 33.40625 6.109375 
Q 40.53125 6.109375 44.609375 11.75 
Q 48.6875 17.390625 48.6875 27.296875 
z
" id="DejaVuSans-70"/>
      <path d="M 9.421875 75.984375 
L 18.40625 75.984375 
L 18.40625 0 
L 9.421875 0 
z
" id="DejaVuSans-6c"/>
      <path d="M 8.5 21.578125 
L 8.5 54.6875 
L 17.484375 54.6875 
L 17.484375 21.921875 
Q 17.484375 14.15625 20.5 10.265625 
Q 23.53125 6.390625 29.59375 6.390625 
Q 36.859375 6.390625 41.078125 11.03125 
Q 45.3125 15.671875 45.3125 23.6875 
L 45.3125 54.6875 
L 54.296875 54.6875 
L 54.296875 0 
L 45.3125 0 
L 45.3125 8.40625 
Q 42.046875 3.421875 37.71875 1 
Q 33.40625 -1.421875 27.6875 -1.421875 
Q 18.265625 -1.421875 13.375 4.4375 
Q 8.5 10.296875 8.5 21.578125 
z
M 31.109375 56 
z
" id="DejaVuSans-75"/>
      <path d="M 45.40625 46.390625 
L 45.40625 75.984375 
L 54.390625 75.984375 
L 54.390625 0 
L 45.40625 0 
L 45.40625 8.203125 
Q 42.578125 3.328125 38.25 0.953125 
Q 33.9375 -1.421875 27.875 -1.421875 
Q 17.96875 -1.421875 11.734375 6.484375 
Q 5.515625 14.40625 5.515625 27.296875 
Q 5.515625 40.1875 11.734375 48.09375 
Q 17.96875 56 27.875 56 
Q 33.9375 56 38.25 53.625 
Q 42.578125 51.265625 45.40625 46.390625 
z
M 14.796875 27.296875 
Q 14.796875 17.390625 18.875 11.75 
Q 22.953125 6.109375 30.078125 6.109375 
Q 37.203125 6.109375 41.296875 11.75 
Q 45.40625 17.390625 45.40625 27.296875 
Q 45.40625 37.203125 41.296875 42.84375 
Q 37.203125 48.484375 30.078125 48.484375 
Q 22.953125 48.484375 18.875 42.84375 
Q 14.796875 37.203125 14.796875 27.296875 
z
" id="DejaVuSans-64"/>
     </defs>
     <g transform="translate(18.8175 189.446406)rotate(-90)scale(0.1 -0.1)">
      <use xlink:href="#DejaVuSans-61"/>
      <use x="61.279297" xlink:href="#DejaVuSans-6d"/>
      <use x="158.691406" xlink:href="#DejaVuSans-70"/>
      <use x="222.167969" xlink:href="#DejaVuSans-6c"/>
      <use x="249.951172" xlink:href="#DejaVuSans-69"/>
      <use x="277.734375" xlink:href="#DejaVuSans-74"/>
      <use x="316.943359" xlink:href="#DejaVuSans-75"/>
      <use x="380.322266" xlink:href="#DejaVuSans-64"/>
      <use x="443.798828" xlink:href="#DejaVuSans-65"/>
     </g>
    </g>
   </g>
   <g id="line2d_23">
    <path clip-path="url(#p658ced8102)" d="M 73.966364 161.306197 
L 74.614319 160.983217 
L 75.262274 160.827249 
L 75.910229 158.306932 
L 76.558183 157.986205 
L 77.206138 155.988173 
L 77.854093 155.465986 
L 78.502048 155.277918 
L 79.150003 156.561201 
L 79.797958 159.411288 
L 80.445913 159.592896 
L 81.093868 162.169035 
L 81.741823 160.357577 
L 82.389778 163.276826 
L 83.037733 164.030679 
L 83.685688 164.164143 
L 84.333643 162.413202 
L 84.981598 165.558498 
L 86.925463 181.634182 
L 87.573418 179.775386 
L 88.221373 178.992561 
L 90.165238 163.37921 
L 90.813193 162.817481 
L 92.109103 170.091812 
L 92.757057 171.209074 
L 93.405012 170.079611 
L 94.700922 164.002445 
L 95.348877 164.76572 
L 95.996832 167.227279 
L 96.644787 171.06017 
L 97.292742 167.011452 
L 97.940697 164.674127 
L 98.588652 164.300477 
L 99.236607 166.227994 
L 99.884562 172.76051 
L 101.180472 178.339601 
L 101.828427 176.821587 
L 102.476382 177.794787 
L 103.124337 176.877594 
L 103.772292 178.617495 
L 104.420247 176.245674 
L 105.068202 177.972603 
L 105.716157 181.583722 
L 106.364112 181.03327 
L 107.012067 179.115714 
L 107.660022 173.824863 
L 108.307976 173.873251 
L 108.955931 172.871197 
L 110.251841 175.420454 
L 110.899796 177.920178 
L 111.547751 175.427328 
L 112.195706 170.604146 
L 112.843661 168.54269 
L 113.491616 165.030275 
L 114.139571 165.818441 
L 114.787526 167.822251 
L 115.435481 172.237412 
L 116.083436 169.954231 
L 116.731391 170.217326 
L 117.379346 174.260677 
L 118.027301 177.155212 
L 119.323211 170.233445 
L 119.971166 173.197851 
L 120.619121 170.001069 
L 121.267076 170.330443 
L 121.915031 169.233383 
L 122.562986 170.643251 
L 123.210941 165.779133 
L 123.858896 165.160284 
L 124.50685 162.898268 
L 125.154805 168.203525 
L 125.80276 175.799452 
L 126.450715 178.154825 
L 127.09867 181.008031 
L 127.746625 179.828881 
L 128.39458 179.562073 
L 129.042535 175.336323 
L 130.9864 178.730972 
L 131.634355 183.262561 
L 132.28231 181.762987 
L 132.930265 178.478703 
L 133.57822 177.084596 
L 134.226175 179.755392 
L 135.522085 191.51944 
L 136.17004 191.0442 
L 136.817995 183.081457 
L 137.46595 177.691762 
L 138.113905 177.484053 
L 138.76186 182.809108 
L 139.409815 181.896719 
L 140.057769 183.293516 
L 140.705724 181.073773 
L 142.001634 168.294934 
L 142.649589 169.21208 
L 143.297544 171.527083 
L 143.945499 178.341588 
L 144.593454 183.756696 
L 145.241409 180.848321 
L 145.889364 176.687439 
L 146.537319 171.185713 
L 147.185274 169.32473 
L 147.833229 171.30607 
L 148.481184 180.556907 
L 149.129139 186.380836 
L 149.777094 187.0319 
L 150.425049 185.497149 
L 151.073004 185.31279 
L 151.720959 186.351049 
L 152.368914 181.078249 
L 153.016869 179.927523 
L 153.664824 180.279083 
L 154.312779 184.299189 
L 154.960734 183.405828 
L 155.608689 176.087527 
L 156.256643 173.043504 
L 156.904598 175.991021 
L 157.552553 179.986683 
L 158.200508 177.636512 
L 158.848463 181.638478 
L 159.496418 175.913018 
L 160.144373 171.541131 
L 160.792328 168.689399 
L 161.440283 170.276533 
L 162.736193 172.087485 
L 164.032103 176.619623 
L 164.680058 175.680734 
L 165.328013 169.727444 
L 165.975968 168.748507 
L 166.623923 168.276537 
L 167.271878 171.919953 
L 167.919833 171.1228 
L 168.567788 170.996833 
L 169.215743 173.344106 
L 170.511653 177.293064 
L 171.159608 175.97737 
L 171.807563 175.972818 
L 172.455517 174.805378 
L 173.103472 172.22982 
L 173.751427 166.494254 
L 174.399382 166.122725 
L 175.047337 164.584627 
L 175.695292 165.231236 
L 176.343247 165.364464 
L 176.991202 161.442 
L 177.639157 161.800327 
L 178.287112 163.150489 
L 178.935067 163.277194 
L 179.583022 164.310479 
L 180.230977 168.483831 
L 180.878932 170.578325 
L 182.174842 179.239531 
L 182.822797 176.723455 
L 184.118707 166.294019 
L 184.766662 166.970315 
L 185.414617 167.979064 
L 186.062572 172.812467 
L 187.358482 175.4789 
L 188.006436 172.404691 
L 188.654391 170.497422 
L 189.302346 169.855357 
L 189.950301 172.097881 
L 190.598256 176.61781 
L 191.246211 174.958326 
L 191.894166 174.320126 
L 192.542121 170.760325 
L 193.190076 170.312435 
L 193.838031 172.0305 
L 194.485986 172.17242 
L 195.133941 172.592706 
L 195.781896 176.018645 
L 196.429851 180.372719 
L 197.077806 181.096143 
L 197.725761 182.882002 
L 198.373716 182.271461 
L 199.021671 184.133659 
L 199.669626 188.063377 
L 200.317581 196.872167 
L 200.965536 196.430986 
L 201.613491 192.857987 
L 202.261446 193.288995 
L 202.909401 197.441841 
L 203.557356 200.474592 
L 204.20531 197.240103 
L 204.853265 196.368086 
L 205.50122 196.287517 
L 206.149175 197.892979 
L 207.445085 191.687719 
L 208.09304 192.385316 
L 208.740995 194.758226 
L 209.38895 199.078348 
L 210.036905 199.843489 
L 210.68486 198.448678 
L 211.332815 193.77699 
L 211.98077 192.082512 
L 212.628725 192.471287 
L 213.27668 193.509712 
L 213.924635 195.6177 
L 214.57259 193.621087 
L 215.220545 193.701786 
L 216.516455 184.085537 
L 217.16441 183.678628 
L 217.812365 187.965111 
L 219.108275 198.353993 
L 219.75623 199.261661 
L 220.404184 200.965031 
L 221.700094 194.483659 
L 222.348049 194.502577 
L 222.996004 192.862286 
L 223.643959 192.831546 
L 224.291914 186.714566 
L 224.939869 186.889397 
L 225.587824 191.05154 
L 226.235779 198.700406 
L 226.883734 200.851391 
L 228.179644 206.061401 
L 228.827599 200.908694 
L 229.475554 200.220603 
L 230.123509 195.08913 
L 230.771464 195.562836 
L 231.419419 195.856939 
L 232.067374 196.407377 
L 232.715329 193.944728 
L 233.363284 192.750292 
L 234.011239 195.192267 
L 234.659194 201.205435 
L 235.307149 200.263192 
L 235.955103 193.446017 
L 236.603058 189.187794 
L 237.251013 186.837727 
L 237.898968 187.482525 
L 238.546923 189.287247 
L 239.194878 194.57493 
L 239.842833 201.879584 
L 240.490788 206.966929 
L 241.138743 208.499227 
L 241.786698 207.604357 
L 242.434653 210.253446 
L 243.082608 212.23385 
L 243.730563 216.072965 
L 244.378518 217.392765 
L 245.026473 212.865678 
L 245.674428 203.449736 
L 246.322383 200.939789 
L 248.266248 205.781581 
L 248.914203 206.457584 
L 249.562158 206.361022 
L 250.210113 201.554789 
L 251.506023 204.638109 
L 252.153977 203.160346 
L 252.801932 200.425196 
L 253.449887 192.684095 
L 254.097842 188.48512 
L 256.041707 152.39073 
L 256.689662 145.593204 
L 257.337617 143.840158 
L 257.985572 140.492466 
L 258.633527 129.437705 
L 259.281482 116.334766 
L 259.929437 107.741784 
L 260.577392 104.036347 
L 261.225347 101.242139 
L 262.521257 82.311076 
L 263.169212 73.976492 
L 264.465122 64.730922 
L 265.113077 55.457618 
L 266.408987 42.698858 
L 267.056942 39.361818 
L 267.704897 40.335686 
L 268.352851 48.309766 
L 269.000806 61.414179 
L 270.944671 120.503746 
L 272.888536 159.049667 
L 273.536491 174.682782 
L 274.184446 187.345937 
L 274.832401 192.46864 
L 275.480356 203.212412 
L 277.424221 245.129407 
L 279.368086 277.73908 
L 280.016041 284.219806 
L 280.663996 283.394971 
L 281.311951 286.408414 
L 281.959906 288.080104 
L 282.607861 288.998182 
L 283.255816 283.762455 
L 283.90377 282.113933 
L 284.551725 278.802274 
L 285.19968 274.239647 
L 285.847635 273.512661 
L 286.49559 268.032047 
L 287.143545 263.685192 
L 287.7915 260.138106 
L 289.08741 255.856338 
L 289.735365 257.147901 
L 290.38332 256.269222 
L 291.031275 256.610494 
L 291.67923 256.364612 
L 292.97514 243.252976 
L 293.623095 241.577025 
L 294.27105 245.747299 
L 294.919005 244.449763 
L 295.56696 241.535505 
L 296.214915 235.798499 
L 296.86287 233.166115 
L 297.510825 231.633047 
L 298.15878 228.757779 
L 298.806735 229.603542 
L 299.45469 227.910018 
L 300.102644 230.498671 
L 300.750599 227.178011 
L 301.398554 225.514718 
L 302.046509 220.741306 
L 302.694464 216.914276 
L 303.342419 215.17656 
L 303.990374 214.254225 
L 304.638329 211.904116 
L 305.286284 207.770617 
L 305.934239 205.299208 
L 306.582194 202.359737 
L 307.230149 205.373539 
L 307.878104 203.951289 
L 308.526059 203.785737 
L 309.821969 198.044232 
L 310.469924 190.680576 
L 311.117879 190.341356 
L 311.765834 198.309164 
L 313.061744 210.281421 
L 313.709699 207.667543 
L 314.357654 201.480243 
L 315.005609 197.798791 
L 316.301518 201.531136 
L 316.949473 206.051859 
L 317.597428 206.877251 
L 318.245383 201.307198 
L 319.541293 197.479436 
L 320.189248 202.542197 
L 320.837203 205.534856 
L 322.133113 201.75112 
L 322.781068 197.213172 
L 323.429023 189.877623 
L 324.076978 185.731771 
L 324.724933 188.89593 
L 325.372888 194.075121 
L 326.020843 196.850475 
L 326.668798 192.236305 
L 327.316753 189.240958 
L 327.964708 183.134487 
L 328.612663 184.129252 
L 329.260618 187.29104 
L 329.908573 192.7761 
L 330.556528 195.054258 
L 331.204483 195.180525 
L 331.852437 195.641307 
L 332.500392 195.227285 
L 333.148347 199.390445 
L 333.796302 199.587639 
L 335.092212 192.553853 
L 335.740167 189.924981 
L 336.388122 187.806326 
L 337.036077 191.247074 
L 337.684032 198.721359 
L 338.331987 198.813849 
L 338.979942 197.906606 
L 339.627897 193.840558 
L 340.275852 194.681064 
L 340.923807 191.933534 
L 342.219717 183.029058 
L 342.867672 182.886714 
L 344.811537 192.189027 
L 345.459492 187.434041 
L 346.107447 185.345719 
L 346.755402 182.554272 
L 347.403357 185.688341 
L 348.051311 187.378154 
L 349.347221 180.931642 
L 349.995176 179.134 
L 350.643131 180.966329 
L 351.291086 177.369245 
L 352.586996 173.211206 
L 353.234951 169.139364 
L 353.882906 169.501547 
L 354.530861 176.013538 
L 355.178816 179.003033 
L 355.826771 179.530461 
L 356.474726 179.089257 
L 357.122681 176.359953 
L 357.770636 177.113289 
L 358.418591 171.685233 
L 359.066546 169.774044 
L 359.714501 168.975246 
L 360.362456 174.067294 
L 361.010411 177.249229 
L 361.658366 176.936055 
L 362.306321 174.899445 
L 362.954276 173.890234 
L 363.602231 176.180256 
L 364.250185 175.064721 
L 364.89814 172.213648 
L 365.546095 164.490809 
L 366.842005 156.050879 
L 367.48996 156.903083 
L 368.137915 158.398304 
L 368.78587 156.860011 
L 369.433825 153.748295 
L 370.08178 149.140351 
L 370.729735 148.335162 
L 371.37769 148.254064 
L 372.025645 150.631511 
L 372.6736 151.697937 
L 373.321555 152.051864 
L 373.96951 152.869166 
L 374.617465 158.255095 
L 375.26542 160.629652 
L 376.56133 157.560274 
L 377.209285 157.074618 
L 377.85724 159.684069 
L 378.505195 158.470201 
L 379.15315 156.252353 
L 379.801104 152.878666 
L 380.449059 153.725267 
L 381.744969 161.878517 
L 382.392924 162.208279 
L 383.040879 156.188255 
L 383.688834 151.468409 
L 384.336789 148.752135 
L 384.984744 149.339243 
L 385.632699 146.206181 
L 386.280654 141.870554 
L 386.928609 139.434732 
L 387.576564 139.283654 
L 388.224519 138.094799 
L 388.872474 135.851883 
L 390.168384 143.415519 
L 390.816339 148.629039 
L 391.464294 150.585772 
L 392.112249 150.176319 
L 392.760204 148.152553 
L 393.408159 145.150197 
L 394.056114 143.125793 
L 395.352024 145.843711 
L 395.999978 145.019223 
L 396.647933 144.45161 
L 397.295888 142.040348 
L 398.591798 145.564719 
L 399.239753 146.575516 
L 399.887708 144.329384 
L 400.535663 140.164104 
L 401.183618 138.297762 
L 401.831573 135.914312 
L 403.127483 148.598474 
L 403.775438 151.538546 
L 404.423393 146.561886 
L 405.071348 140.665897 
L 405.719303 137.885492 
L 406.367258 139.776087 
L 407.663168 145.984813 
L 408.311123 150.781009 
L 408.959078 150.964045 
L 409.607033 148.078003 
L 410.254988 144.2528 
L 410.902943 144.10047 
L 411.550897 145.327535 
L 412.198852 149.549103 
L 412.846807 152.387181 
L 413.494762 152.384325 
L 414.142717 150.472982 
L 414.790672 154.6317 
L 415.438627 161.99174 
L 416.086582 160.193665 
L 416.734537 157.444498 
L 417.382492 153.825032 
L 418.030447 154.447605 
L 418.678402 156.765326 
L 419.326357 157.646302 
L 419.974312 166.078075 
L 420.622267 169.859286 
L 421.270222 170.881974 
L 421.918177 172.500803 
L 422.566132 173.444836 
L 423.214087 173.024102 
L 423.862042 173.49378 
L 424.509997 171.611792 
L 425.157952 166.623212 
L 425.805907 167.767072 
L 426.453862 173.089662 
L 427.101817 175.510299 
L 427.749771 175.00466 
L 428.397726 174.80375 
L 429.045681 171.010416 
L 429.693636 173.716807 
L 429.693636 173.716807 
" style="fill:none;stroke:#1f77b4;stroke-linecap:square;stroke-width:1.5;"/>
   </g>
   <g id="patch_3">
    <path d="M 56.18 301.48 
L 56.18 26.88 
" style="fill:none;stroke:#000000;stroke-linecap:square;stroke-linejoin:miter;stroke-width:0.8;"/>
   </g>
   <g id="patch_4">
    <path d="M 447.48 301.48 
L 447.48 26.88 
" style="fill:none;stroke:#000000;stroke-linecap:square;stroke-linejoin:miter;stroke-width:0.8;"/>
   </g>
   <g id="patch_5">
    <path d="M 56.18 301.48 
L 447.48 301.48 
" style="fill:none;stroke:#000000;stroke-linecap:square;stroke-linejoin:miter;stroke-width:0.8;"/>
   </g>
   <g id="patch_6">
    <path d="M 56.18 26.88 
L 447.48 26.88 
" style="fill:none;stroke:#000000;stroke-linecap:square;stroke-linejoin:miter;stroke-width:0.8;"/>
   </g>
   <g id="text_14">
    <!-- template of yh1_data2 -->
    <defs>
     <path id="DejaVuSans-20"/>
     <path d="M 30.609375 48.390625 
Q 23.390625 48.390625 19.1875 42.75 
Q 14.984375 37.109375 14.984375 27.296875 
Q 14.984375 17.484375 19.15625 11.84375 
Q 23.34375 6.203125 30.609375 6.203125 
Q 37.796875 6.203125 41.984375 11.859375 
Q 46.1875 17.53125 46.1875 27.296875 
Q 46.1875 37.015625 41.984375 42.703125 
Q 37.796875 48.390625 30.609375 48.390625 
z
M 30.609375 56 
Q 42.328125 56 49.015625 48.375 
Q 55.71875 40.765625 55.71875 27.296875 
Q 55.71875 13.875 49.015625 6.21875 
Q 42.328125 -1.421875 30.609375 -1.421875 
Q 18.84375 -1.421875 12.171875 6.21875 
Q 5.515625 13.875 5.515625 27.296875 
Q 5.515625 40.765625 12.171875 48.375 
Q 18.84375 56 30.609375 56 
z
" id="DejaVuSans-6f"/>
     <path d="M 37.109375 75.984375 
L 37.109375 68.5 
L 28.515625 68.5 
Q 23.6875 68.5 21.796875 66.546875 
Q 19.921875 64.59375 19.921875 59.515625 
L 19.921875 54.6875 
L 34.71875 54.6875 
L 34.71875 47.703125 
L 19.921875 47.703125 
L 19.921875 0 
L 10.890625 0 
L 10.890625 47.703125 
L 2.296875 47.703125 
L 2.296875 54.6875 
L 10.890625 54.6875 
L 10.890625 58.5 
Q 10.890625 67.625 15.140625 71.796875 
Q 19.390625 75.984375 28.609375 75.984375 
z
" id="DejaVuSans-66"/>
     <path d="M 32.171875 -5.078125 
Q 28.375 -14.84375 24.75 -17.8125 
Q 21.140625 -20.796875 15.09375 -20.796875 
L 7.90625 -20.796875 
L 7.90625 -13.28125 
L 13.1875 -13.28125 
Q 16.890625 -13.28125 18.9375 -11.515625 
Q 21 -9.765625 23.484375 -3.21875 
L 25.09375 0.875 
L 2.984375 54.6875 
L 12.5 54.6875 
L 29.59375 11.921875 
L 46.6875 54.6875 
L 56.203125 54.6875 
z
" id="DejaVuSans-79"/>
     <path d="M 54.890625 33.015625 
L 54.890625 0 
L 45.90625 0 
L 45.90625 32.71875 
Q 45.90625 40.484375 42.875 44.328125 
Q 39.84375 48.1875 33.796875 48.1875 
Q 26.515625 48.1875 22.3125 43.546875 
Q 18.109375 38.921875 18.109375 30.90625 
L 18.109375 0 
L 9.078125 0 
L 9.078125 75.984375 
L 18.109375 75.984375 
L 18.109375 46.1875 
Q 21.34375 51.125 25.703125 53.5625 
Q 30.078125 56 35.796875 56 
Q 45.21875 56 50.046875 50.171875 
Q 54.890625 44.34375 54.890625 33.015625 
z
" id="DejaVuSans-68"/>
     <path d="M 50.984375 -16.609375 
L 50.984375 -23.578125 
L -0.984375 -23.578125 
L -0.984375 -16.609375 
z
" id="DejaVuSans-5f"/>
    </defs>
    <g transform="translate(183.64375 20.88)scale(0.12 -0.12)">
     <use xlink:href="#DejaVuSans-74"/>
     <use x="39.208984" xlink:href="#DejaVuSans-65"/>
     <use x="100.732422" xlink:href="#DejaVuSans-6d"/>
     <use x="198.144531" xlink:href="#DejaVuSans-70"/>
     <use x="261.621094" xlink:href="#DejaVuSans-6c"/>
     <use x="289.404297" xlink:href="#DejaVuSans-61"/>
     <use x="350.683594" xlink:href="#DejaVuSans-74"/>
     <use x="389.892578" xlink:href="#DejaVuSans-65"/>
     <use x="451.416016" xlink:href="#DejaVuSans-20"/>
     <use x="483.203125" xlink:href="#DejaVuSans-6f"/>
     <use x="544.384766" xlink:href="#DejaVuSans-66"/>
     <use x="579.589844" xlink:href="#DejaVuSans-20"/>
     <use x="611.376953" xlink:href="#DejaVuSans-79"/>
     <use x="670.556641" xlink:href="#DejaVuSans-68"/>
     <use x="733.935547" xlink:href="#DejaVuSans-31"/>
     <use x="797.558594" xlink:href="#DejaVuSans-5f"/>
     <use x="847.558594" xlink:href="#DejaVuSans-64"/>
     <use x="911.035156" xlink:href="#DejaVuSans-61"/>
     <use x="972.314453" xlink:href="#DejaVuSans-74"/>
     <use x="1011.523438" xlink:href="#DejaVuSans-61"/>
     <use x="1072.802734" xlink:href="#DejaVuSans-32"/>
    </g>
   </g>
  </g>
 </g>
 <defs>
  <clipPath id="p658ced8102">
   <rect height="274.6" width="391.3" x="56.18" y="26.88"/>
  </clipPath>
 </defs>
</svg>
